<svg width="40" height="40" viewBox="0 0 40 40" fill="none" xmlns="http://www.w3.org/2000/svg">
<path d="M34.375 4.375C34.2266 4.375 34.0742 4.40234 33.9219 4.46484L11.4062 13.5117H5C4.65625 13.5117 4.375 13.8008 4.375 14.1602V25.8398C4.375 26.1992 4.65625 26.4883 5 26.4883H8.97266C8.82812 26.9414 8.75 27.4219 8.75 27.9102C8.75 30.4844 10.8516 32.5781 13.4375 32.5781C15.6016 32.5781 17.4258 31.1094 17.9648 29.125L33.9258 35.5391C34.0781 35.5977 34.2305 35.6289 34.3789 35.6289C35.0391 35.6289 35.6289 35.0742 35.6289 34.332V5.67187C35.625 4.92969 35.0391 4.375 34.375 4.375ZM13.4375 29.7773C12.4023 29.7773 11.5625 28.9414 11.5625 27.9102C11.5625 27.4727 11.7148 27.0547 11.9922 26.7227L15.3086 28.0547C15.2305 29.0156 14.4219 29.7773 13.4375 29.7773ZM32.8125 32.0586L12.4531 23.8789L11.9492 23.6758H7.1875V16.3242H11.9492L12.4531 16.1211L32.8125 7.94141V32.0586Z" fill="#1D2834"/>
</svg>
