<svg width="40" height="40" viewBox="0 0 40 40" fill="none" xmlns="http://www.w3.org/2000/svg">
<g id="clarity:boat-solid" clip-path="url(#clip0_64_2261)">
<path id="Vector" d="M37.7784 34.4456C36.5562 34.3345 35.4451 33.89 34.4451 33.1123C33.8895 32.5567 33.1118 32.2234 32.2229 32.2234C31.4451 32.2234 30.5562 32.5567 30.0007 33.1123C29.0007 34.0012 27.7784 34.3345 26.5562 34.3345C25.2229 34.3345 23.8895 33.89 22.8895 33.1123C21.5562 31.89 19.5562 31.89 18.334 33.1123C17.334 34.0012 16.0007 34.4456 14.5562 34.4456C13.2229 34.4456 12.0007 34.0012 11.0007 33.1123C10.334 32.5567 9.55621 32.2234 8.77843 32.2234C7.88954 32.2234 6.88954 32.5567 6.22287 33.1123C5.11176 34.0012 3.66732 34.4456 2.33398 34.3345V32.2234C3.22287 32.2234 4.22287 31.89 4.88954 31.2234C6.00065 30.3345 7.33398 29.89 8.66732 30.0012C10.0007 30.0012 11.334 30.4456 12.334 31.3345C13.6673 32.5567 15.6673 32.5567 17.0007 31.3345C19.1118 29.5567 22.2229 29.5567 24.2229 31.3345C25.5562 32.5567 27.5562 32.5567 28.7784 31.3345C29.7784 30.4456 31.1118 30.0012 32.4451 30.0012C33.6673 30.0012 34.8895 30.4456 35.7784 31.3345C36.4451 31.89 36.6673 32.2234 37.7784 32.2234V34.4456Z" fill="#30475C"/>
<path id="Vector_2" d="M4.55642 29.1076C5.22309 28.5521 5.88976 28.2188 6.66753 27.9965V25.5521C6.66753 24.8854 7.11198 24.3299 7.77865 24.3299H35.5564L31.5564 27.7743H31.7786C32.6675 27.7743 33.5564 27.9965 34.2231 28.3299L37.0009 25.8854L37.2231 25.6632C38.0009 24.6632 37.7786 23.3299 36.7786 22.5521C36.5564 22.3299 36.0009 22.2188 35.5564 22.2188H7.77865C5.88976 22.2188 4.44531 23.6632 4.44531 25.5521L4.55642 29.1076Z" fill="#30475C"/>
<path id="Vector_3" d="M16.5549 20.9991H9.88824C8.66602 20.9991 7.66602 19.9991 7.66602 18.7769C7.66602 18.3325 7.77713 17.888 8.11046 17.4436L12.666 10.9991C13.3327 9.99913 14.7771 9.77691 15.7771 10.4436C16.3327 10.888 16.666 11.5547 16.666 12.2214V20.9991H16.5549Z" fill="#30475C"/>
<path id="Vector_4" d="M26.9996 21.0017H17.7773V7.11285C17.7773 5.89062 18.7773 4.89062 19.9996 4.89062C20.7773 4.89062 21.444 5.33507 21.8885 6.00174L28.8885 17.5573C29.5551 18.6684 29.1107 20.0017 28.1107 20.5573C27.7773 20.7795 27.3329 20.8906 26.9996 21.0017Z" fill="#30475C"/>
</g>
<defs>
<clipPath id="clip0_64_2261">
<rect width="40" height="40" fill="white"/>
</clipPath>
</defs>
</svg>
