<svg width="50" height="50" viewBox="0 0 50 50" fill="none" xmlns="http://www.w3.org/2000/svg">
<g id="mdi:shopping-cart-outline">
<g id="Vector" filter="url(#filter0_d_4_13914)">
<path d="M35.4173 37.4974C36.5224 37.4974 37.5822 37.9364 38.3636 38.7178C39.145 39.4992 39.584 40.559 39.584 41.6641C39.584 42.7691 39.145 43.8289 38.3636 44.6103C37.5822 45.3917 36.5224 45.8307 35.4173 45.8307C34.3123 45.8307 33.2524 45.3917 32.471 44.6103C31.6896 43.8289 31.2507 42.7691 31.2507 41.6641C31.2507 39.3516 33.1048 37.4974 35.4173 37.4974ZM2.08398 4.16406H8.89648L10.8548 8.33073H41.6673C42.2199 8.33073 42.7498 8.55022 43.1405 8.94092C43.5312 9.33162 43.7507 9.86153 43.7507 10.4141C43.7507 10.7682 43.6465 11.1224 43.5007 11.4557L36.0423 24.9349C35.334 26.2057 33.959 27.0807 32.3965 27.0807H16.8757L15.0007 30.4766L14.9382 30.7266C14.9382 30.8647 14.993 30.9972 15.0907 31.0949C15.1884 31.1925 15.3209 31.2474 15.459 31.2474H39.584V35.4141H14.584C13.4789 35.4141 12.4191 34.9751 11.6377 34.1937C10.8563 33.4123 10.4173 32.3525 10.4173 31.2474C10.4173 30.5182 10.6048 29.8307 10.9173 29.2474L13.7507 24.1432L6.25065 8.33073H2.08398V4.16406ZM14.584 37.4974C15.6891 37.4974 16.7489 37.9364 17.5303 38.7178C18.3117 39.4992 18.7507 40.559 18.7507 41.6641C18.7507 42.7691 18.3117 43.8289 17.5303 44.6103C16.7489 45.3917 15.6891 45.8307 14.584 45.8307C13.4789 45.8307 12.4191 45.3917 11.6377 44.6103C10.8563 43.8289 10.4173 42.7691 10.4173 41.6641C10.4173 39.3516 12.2715 37.4974 14.584 37.4974ZM33.334 22.9141L39.1257 12.4974H12.7923L17.709 22.9141H33.334Z" fill="#F5F7FA"/>
</g>
</g>
<defs>
<filter id="filter0_d_4_13914" x="2.08398" y="4.16406" width="45.666" height="45.6641" filterUnits="userSpaceOnUse" color-interpolation-filters="sRGB">
<feFlood flood-opacity="0" result="BackgroundImageFix"/>
<feColorMatrix in="SourceAlpha" type="matrix" values="0 0 0 0 0 0 0 0 0 0 0 0 0 0 0 0 0 0 127 0" result="hardAlpha"/>
<feOffset dx="2" dy="2"/>
<feGaussianBlur stdDeviation="1"/>
<feComposite in2="hardAlpha" operator="out"/>
<feColorMatrix type="matrix" values="0 0 0 0 0 0 0 0 0 0 0 0 0 0 0 0 0 0 0.3 0"/>
<feBlend mode="normal" in2="BackgroundImageFix" result="effect1_dropShadow_4_13914"/>
<feBlend mode="normal" in="SourceGraphic" in2="effect1_dropShadow_4_13914" result="shape"/>
</filter>
</defs>
</svg>
