<svg width="30" height="30" viewBox="0 0 30 30" fill="none" xmlns="http://www.w3.org/2000/svg">
<path opacity="0.2" d="M30 1.36364V28.6364C30 28.998 29.8563 29.3449 29.6006 29.6006C29.3449 29.8563 28.998 30 28.6364 30H1.36364C1.00198 30 0.655132 29.8563 0.3994 29.6006C0.143669 29.3449 0 28.998 0 28.6364V1.36364C0 1.00198 0.143669 0.655132 0.3994 0.3994C0.655132 0.143669 1.00198 0 1.36364 0H28.6364C28.998 0 29.3449 0.143669 29.6006 0.3994C29.8563 0.655132 30 1.00198 30 1.36364Z" fill="#FFC745"/>
<path d="M28.2379 26.3079C28.3646 26.4346 28.4651 26.585 28.5337 26.7505C28.6022 26.916 28.6375 27.0935 28.6375 27.2726C28.6375 27.4518 28.6022 27.6292 28.5337 27.7948C28.4651 27.9603 28.3646 28.1107 28.2379 28.2374C28.1112 28.3641 27.9608 28.4646 27.7953 28.5332C27.6297 28.6017 27.4523 28.637 27.2731 28.637C27.094 28.637 26.9165 28.6017 26.751 28.5332C26.5855 28.4646 26.4351 28.3641 26.3084 28.2374L15.0004 16.9278L3.69245 28.2374C3.43657 28.4933 3.08954 28.637 2.72768 28.637C2.36582 28.637 2.01878 28.4933 1.7629 28.2374C1.50703 27.9815 1.36328 27.6345 1.36328 27.2726C1.36328 26.9108 1.50703 26.5637 1.7629 26.3079L13.0726 14.9999L1.7629 3.69196C1.50703 3.43609 1.36328 3.08905 1.36328 2.72719C1.36328 2.36533 1.50703 2.01829 1.7629 1.76241C2.01878 1.50654 2.36582 1.36279 2.72768 1.36279C3.08954 1.36279 3.43657 1.50654 3.69245 1.76241L15.0004 13.0721L26.3084 1.76241C26.5642 1.50654 26.9113 1.36279 27.2731 1.36279C27.635 1.36279 27.982 1.50654 28.2379 1.76241C28.4938 2.01829 28.6375 2.36533 28.6375 2.72719C28.6375 3.08905 28.4938 3.43609 28.2379 3.69196L16.9282 14.9999L28.2379 26.3079Z" fill="#FFC745"/>
</svg>
