<svg width="40" height="40" viewBox="0 0 40 40" fill="none" xmlns="http://www.w3.org/2000/svg">
<g id="heroicons-outline:status-online">
<path id="Vector" d="M9.39346 30.2133C8.00057 28.8205 6.89566 27.1669 6.14182 25.347C5.38799 23.5271 5 21.5765 5 19.6067C5 17.6368 5.38799 15.6863 6.14182 13.8664C6.89566 12.0465 8.00057 10.3929 9.39346 9M30.6068 9C31.9997 10.3929 33.1046 12.0465 33.8584 13.8664C34.6123 15.6863 35.0003 17.6368 35.0003 19.6067C35.0003 21.5765 34.6123 23.5271 33.8584 25.347C33.1046 27.1669 31.9997 28.8205 30.6068 30.2133M14.1068 25.5C13.3327 24.7261 12.7187 23.8074 12.2998 22.7962C11.8809 21.785 11.6652 20.7012 11.6652 19.6067C11.6652 18.5121 11.8809 17.4283 12.2998 16.4171C12.7187 15.4059 13.3327 14.4872 14.1068 13.7133M25.8935 13.7133C26.6675 14.4872 27.2815 15.4059 27.7005 16.4171C28.1194 17.4283 28.335 18.5121 28.335 19.6067C28.335 20.7012 28.1194 21.785 27.7005 22.7962C27.2815 23.8074 26.6675 24.7261 25.8935 25.5M21.6668 19.6067C21.6668 20.0487 21.4912 20.4726 21.1786 20.7852C20.8661 21.0977 20.4422 21.2733 20.0001 21.2733C19.5581 21.2733 19.1342 21.0977 18.8216 20.7852C18.5091 20.4726 18.3335 20.0487 18.3335 19.6067C18.3335 19.1646 18.5091 18.7407 18.8216 18.4282C19.1342 18.1156 19.5581 17.94 20.0001 17.94C20.4422 17.94 20.8661 18.1156 21.1786 18.4282C21.4912 18.7407 21.6668 19.1646 21.6668 19.6067Z" stroke="#6843E8" stroke-width="3.33333" stroke-linecap="round" stroke-linejoin="round"/>
</g>
</svg>
