<svg width="40" height="40" viewBox="0 0 40 40" fill="none" xmlns="http://www.w3.org/2000/svg">
<g id="tabler:dots">
<path id="Vector" d="M6.66602 20.0026C6.66602 20.4446 6.84161 20.8686 7.15417 21.1811C7.46673 21.4937 7.89065 21.6693 8.33268 21.6693C8.77471 21.6693 9.19863 21.4937 9.51119 21.1811C9.82375 20.8686 9.99935 20.4446 9.99935 20.0026C9.99935 19.5606 9.82375 19.1367 9.51119 18.8241C9.19863 18.5115 8.77471 18.3359 8.33268 18.3359C7.89065 18.3359 7.46673 18.5115 7.15417 18.8241C6.84161 19.1367 6.66602 19.5606 6.66602 20.0026ZM18.3327 20.0026C18.3327 20.4446 18.5083 20.8686 18.8208 21.1811C19.1334 21.4937 19.5573 21.6693 19.9993 21.6693C20.4414 21.6693 20.8653 21.4937 21.1779 21.1811C21.4904 20.8686 21.666 20.4446 21.666 20.0026C21.666 19.5606 21.4904 19.1367 21.1779 18.8241C20.8653 18.5115 20.4414 18.3359 19.9993 18.3359C19.5573 18.3359 19.1334 18.5115 18.8208 18.8241C18.5083 19.1367 18.3327 19.5606 18.3327 20.0026ZM29.9993 20.0026C29.9993 20.4446 30.1749 20.8686 30.4875 21.1811C30.8001 21.4937 31.224 21.6693 31.666 21.6693C32.108 21.6693 32.532 21.4937 32.8445 21.1811C33.1571 20.8686 33.3327 20.4446 33.3327 20.0026C33.3327 19.5606 33.1571 19.1367 32.8445 18.8241C32.532 18.5115 32.108 18.3359 31.666 18.3359C31.224 18.3359 30.8001 18.5115 30.4875 18.8241C30.1749 19.1367 29.9993 19.5606 29.9993 20.0026Z" stroke="#1D2834" stroke-width="3.33333" stroke-linecap="round" stroke-linejoin="round"/>
</g>
</svg>
