<svg width="24" height="24" viewBox="0 0 24 24" fill="none" xmlns="http://www.w3.org/2000/svg">
<path d="M4.85 11.7329L9.394 5.18694C9.48533 5.06227 9.59 4.98227 9.708 4.94694C9.826 4.91161 9.947 4.91261 10.071 4.94994C10.1957 4.98727 10.2983 5.05794 10.379 5.16194C10.4597 5.26594 10.5 5.39027 10.5 5.53494V12.1919C10.5 12.4239 10.4233 12.6166 10.27 12.7699C10.1167 12.9233 9.924 12.9999 9.692 12.9999H5.502C5.34067 12.9999 5.20067 12.9596 5.082 12.8789C4.96467 12.7983 4.87067 12.6956 4.8 12.5709C4.72933 12.4469 4.69733 12.3113 4.704 12.1639C4.71067 12.0173 4.75933 11.8736 4.85 11.7329ZM5.863 11.9999H9.5V6.77894L5.863 11.9999ZM14.223 12.9999C13.851 12.9999 13.6217 12.8676 13.535 12.6029C13.4477 12.3383 13.441 12.0603 13.515 11.7689C13.6437 11.1743 13.7567 10.5009 13.854 9.74894C13.9513 8.99694 14 8.24727 14 7.49994C14 6.68861 13.9543 5.89794 13.863 5.12794C13.7723 4.35794 13.663 3.66594 13.535 3.05194C13.5017 2.91461 13.509 2.79727 13.557 2.69994C13.605 2.60261 13.6727 2.52494 13.76 2.46694C13.8467 2.39694 13.9473 2.35561 14.062 2.34294C14.1753 2.33094 14.286 2.36461 14.394 2.44394C15.2533 2.96594 16.0147 3.58027 16.678 4.28694C17.3413 4.99361 17.9347 5.78127 18.458 6.64994C18.9593 7.48461 19.3727 8.35961 19.698 9.27494C20.0227 10.1903 20.246 11.1313 20.368 12.0979C20.4013 12.3426 20.336 12.5543 20.172 12.7329C20.0087 12.9109 19.8047 12.9999 19.56 12.9999H14.223ZM14.503 11.9999H19.358C19.1127 10.3579 18.573 8.82727 17.739 7.40794C16.9057 5.98794 15.887 4.79427 14.683 3.82694C14.7803 4.42027 14.8573 5.03594 14.914 5.67394C14.9713 6.31194 15 6.92061 15 7.49994C15 8.25794 14.953 9.02127 14.859 9.78994C14.7643 10.5593 14.645 11.2959 14.503 11.9999ZM9 19.1149C8.55333 19.1149 8.12467 19.0309 7.714 18.8629C7.30333 18.6943 6.912 18.4876 6.54 18.2429C6.45333 18.1849 6.36767 18.1456 6.283 18.1249C6.19833 18.1049 6.11033 18.1009 6.019 18.1129C5.92833 18.1263 5.84167 18.1473 5.759 18.1759C5.67633 18.2046 5.59967 18.2543 5.529 18.3249C5.43033 18.4196 5.331 18.4989 5.231 18.5629C5.131 18.6269 5.021 18.6809 4.901 18.7249C4.52367 18.4336 4.18633 18.1126 3.889 17.7619C3.59233 17.4119 3.33967 17.0273 3.131 16.6079C2.99767 16.3546 3.01433 16.1066 3.181 15.8639C3.349 15.6213 3.574 15.4999 3.856 15.4999H20.144C20.426 15.4999 20.6457 15.6206 20.803 15.8619C20.9597 16.1026 20.9817 16.3513 20.869 16.6079C20.6397 17.0146 20.3817 17.3963 20.095 17.7529C19.8083 18.1096 19.476 18.4336 19.098 18.7249C18.9913 18.6803 18.8817 18.6229 18.769 18.5529C18.6563 18.4829 18.557 18.4069 18.471 18.3249C18.4003 18.2543 18.3237 18.2046 18.241 18.1759C18.1583 18.1473 18.0717 18.1263 17.981 18.1129C17.8897 18.1003 17.8017 18.1036 17.717 18.1229C17.6323 18.1409 17.5467 18.1789 17.46 18.2369C17.088 18.4816 16.6967 18.6893 16.286 18.8599C15.8747 19.0299 15.446 19.1149 15 19.1149C14.528 19.1149 14.0813 19.0226 13.66 18.8379C13.2387 18.6533 12.836 18.4316 12.452 18.1729C12.3813 18.1283 12.3113 18.0923 12.242 18.0649C12.172 18.0383 12.0913 18.0249 12 18.0249C11.9087 18.0249 11.8283 18.0383 11.759 18.0649C11.689 18.0916 11.619 18.1276 11.549 18.1729C11.1637 18.4309 10.7603 18.6526 10.339 18.8379C9.91833 19.0226 9.472 19.1149 9 19.1149ZM12 21.6919C11.478 21.9679 10.967 22.1713 10.467 22.3019C9.967 22.4339 9.478 22.4999 9 22.4999C8.522 22.4999 8.033 22.4343 7.533 22.3029C7.033 22.1716 6.522 21.9683 6 21.6929C5.478 21.9683 4.967 22.1716 4.467 22.3029C3.967 22.4343 3.478 22.4999 3 22.4999C2.858 22.4999 2.739 22.4523 2.643 22.3569C2.54767 22.2609 2.5 22.1419 2.5 21.9999C2.5 21.8579 2.54767 21.7389 2.643 21.6429C2.739 21.5476 2.858 21.4999 3 21.4999C3.47533 21.4999 3.92867 21.4206 4.36 21.2619C4.79133 21.1033 5.22 20.9243 5.646 20.7249C5.704 20.6916 5.763 20.6699 5.823 20.6599C5.883 20.6493 5.942 20.6439 6 20.6439C6.058 20.6439 6.117 20.6493 6.177 20.6599C6.237 20.6699 6.296 20.6916 6.354 20.7249C6.77933 20.9249 7.20767 21.1033 7.639 21.2599C8.071 21.4159 8.52467 21.4939 9 21.4939C9.47533 21.4939 9.92867 21.4159 10.36 21.2599C10.792 21.1033 11.2207 20.9249 11.646 20.7249C11.704 20.6916 11.763 20.6699 11.823 20.6599C11.883 20.6493 11.942 20.6439 12 20.6439C12.058 20.6439 12.117 20.6493 12.177 20.6599C12.237 20.6699 12.296 20.6916 12.354 20.7249C12.7793 20.9249 13.2077 21.1033 13.639 21.2599C14.071 21.4159 14.5247 21.4939 15 21.4939C15.4753 21.4939 15.9287 21.4159 16.36 21.2599C16.792 21.1033 17.2207 20.9249 17.646 20.7249C17.6873 20.7049 17.8053 20.6783 18 20.6449C18.02 20.6449 18.138 20.6716 18.354 20.7249C18.7793 20.9249 19.2077 21.1039 19.639 21.2619C20.0703 21.4199 20.524 21.4993 21 21.4999C21.142 21.4999 21.261 21.5476 21.357 21.6429C21.4523 21.7389 21.5 21.8579 21.5 21.9999C21.5 22.1419 21.4523 22.2609 21.357 22.3569C21.261 22.4523 21.142 22.4999 21 22.4999C20.522 22.4999 20.033 22.4343 19.533 22.3029C19.033 22.1716 18.522 21.9683 18 21.6929C17.478 21.9683 16.967 22.1716 16.467 22.3029C15.967 22.4343 15.478 22.4999 15 22.4999C14.522 22.4999 14.033 22.4343 13.533 22.3029C13.033 22.1716 12.522 21.9683 12 21.6929V21.6919Z" fill="#F5F7FA"/>
</svg>
