<svg width="30" height="30" viewBox="0 0 30 30" fill="none" xmlns="http://www.w3.org/2000/svg">
<path d="M6.0625 14.6662L11.7425 6.48374C11.8567 6.3279 11.9875 6.2279 12.135 6.18374C12.2825 6.13957 12.4338 6.14082 12.5887 6.18749C12.7446 6.23415 12.8729 6.32249 12.9737 6.45249C13.0746 6.58249 13.125 6.7379 13.125 6.91874V15.24C13.125 15.53 13.0292 15.7708 12.8375 15.9625C12.6458 16.1542 12.405 16.25 12.115 16.25H6.8775C6.67583 16.25 6.50083 16.1996 6.3525 16.0987C6.20583 15.9979 6.08833 15.8696 6 15.7137C5.91167 15.5587 5.87167 15.3892 5.88 15.205C5.88833 15.0217 5.94917 14.8421 6.0625 14.6662ZM7.32875 15H11.875V8.47374L7.32875 15ZM17.7787 16.25C17.3137 16.25 17.0271 16.0846 16.9187 15.7537C16.8096 15.4229 16.8013 15.0754 16.8938 14.7112C17.0546 13.9679 17.1958 13.1262 17.3175 12.1862C17.4392 11.2462 17.5 10.3092 17.5 9.37499C17.5 8.36082 17.4429 7.37249 17.3287 6.40999C17.2154 5.44749 17.0787 4.58249 16.9187 3.81499C16.8771 3.64332 16.8863 3.49665 16.9462 3.37499C17.0063 3.25332 17.0908 3.15624 17.2 3.08374C17.3083 2.99624 17.4342 2.94457 17.5775 2.92874C17.7192 2.91374 17.8575 2.95582 17.9925 3.05499C19.0667 3.70749 20.0183 4.4754 20.8475 5.35874C21.6767 6.24207 22.4183 7.22666 23.0725 8.31249C23.6992 9.35582 24.2158 10.4496 24.6225 11.5937C25.0283 12.7379 25.3075 13.9142 25.46 15.1225C25.5017 15.4283 25.42 15.6929 25.215 15.9162C25.0108 16.1387 24.7558 16.25 24.45 16.25H17.7787ZM18.1287 15H24.1975C23.8908 12.9475 23.2162 11.0342 22.1737 9.25999C21.1321 7.48499 19.8587 5.9929 18.3537 4.78374C18.4754 5.5254 18.5717 6.29499 18.6425 7.09249C18.7142 7.88999 18.75 8.65082 18.75 9.37499C18.75 10.3225 18.6912 11.2767 18.5738 12.2375C18.4554 13.1992 18.3063 14.12 18.1287 15ZM11.25 23.8937C10.6917 23.8937 10.1558 23.7887 9.6425 23.5787C9.12917 23.3679 8.64 23.1096 8.175 22.8037C8.06667 22.7312 7.95958 22.6821 7.85375 22.6562C7.74792 22.6312 7.63792 22.6262 7.52375 22.6412C7.41042 22.6579 7.30208 22.6842 7.19875 22.72C7.09542 22.7558 6.99958 22.8179 6.91125 22.9062C6.78792 23.0246 6.66375 23.1237 6.53875 23.2037C6.41375 23.2837 6.27625 23.3512 6.12625 23.4062C5.65458 23.0421 5.23292 22.6408 4.86125 22.2025C4.49042 21.765 4.17458 21.2842 3.91375 20.76C3.74708 20.4433 3.76792 20.1333 3.97625 19.83C4.18625 19.5267 4.4675 19.375 4.82 19.375H25.18C25.5325 19.375 25.8071 19.5258 26.0037 19.8275C26.1996 20.1283 26.2271 20.4392 26.0863 20.76C25.7996 21.2683 25.4771 21.7454 25.1187 22.1912C24.7604 22.6371 24.345 23.0421 23.8725 23.4062C23.7392 23.3504 23.6021 23.2787 23.4612 23.1912C23.3204 23.1037 23.1963 23.0087 23.0888 22.9062C23.0004 22.8179 22.9046 22.7558 22.8012 22.72C22.6979 22.6842 22.5896 22.6579 22.4763 22.6412C22.3621 22.6254 22.2521 22.6296 22.1462 22.6537C22.0404 22.6762 21.9333 22.7237 21.825 22.7962C21.36 23.1021 20.8708 23.3617 20.3575 23.575C19.8433 23.7875 19.3075 23.8937 18.75 23.8937C18.16 23.8937 17.6017 23.7783 17.075 23.5475C16.5483 23.3167 16.045 23.0396 15.565 22.7162C15.4767 22.6604 15.3892 22.6154 15.3025 22.5812C15.215 22.5479 15.1142 22.5312 15 22.5312C14.8858 22.5312 14.7854 22.5479 14.6987 22.5812C14.6112 22.6146 14.5237 22.6596 14.4362 22.7162C13.9546 23.0387 13.4504 23.3158 12.9237 23.5475C12.3979 23.7783 11.84 23.8937 11.25 23.8937ZM15 27.115C14.3475 27.46 13.7087 27.7142 13.0837 27.8775C12.4587 28.0425 11.8475 28.125 11.25 28.125C10.6525 28.125 10.0413 28.0429 9.41625 27.8787C8.79125 27.7146 8.1525 27.4604 7.5 27.1162C6.8475 27.4604 6.20875 27.7146 5.58375 27.8787C4.95875 28.0429 4.3475 28.125 3.75 28.125C3.5725 28.125 3.42375 28.0654 3.30375 27.9462C3.18458 27.8262 3.125 27.6775 3.125 27.5C3.125 27.3225 3.18458 27.1737 3.30375 27.0537C3.42375 26.9346 3.5725 26.875 3.75 26.875C4.34417 26.875 4.91083 26.7758 5.45 26.5775C5.98917 26.3792 6.525 26.1554 7.0575 25.9062C7.13 25.8646 7.20375 25.8375 7.27875 25.825C7.35375 25.8117 7.4275 25.805 7.5 25.805C7.5725 25.805 7.64625 25.8117 7.72125 25.825C7.79625 25.8375 7.87 25.8646 7.9425 25.9062C8.47417 26.1562 9.00958 26.3792 9.54875 26.575C10.0887 26.77 10.6558 26.8675 11.25 26.8675C11.8442 26.8675 12.4108 26.77 12.95 26.575C13.49 26.3792 14.0258 26.1562 14.5575 25.9062C14.63 25.8646 14.7037 25.8375 14.7787 25.825C14.8538 25.8117 14.9275 25.805 15 25.805C15.0725 25.805 15.1462 25.8117 15.2213 25.825C15.2963 25.8375 15.37 25.8646 15.4425 25.9062C15.9742 26.1562 16.5096 26.3792 17.0487 26.575C17.5887 26.77 18.1558 26.8675 18.75 26.8675C19.3442 26.8675 19.9108 26.77 20.45 26.575C20.99 26.3792 21.5258 26.1562 22.0575 25.9062C22.1092 25.8812 22.2567 25.8479 22.5 25.8062C22.525 25.8062 22.6725 25.8396 22.9425 25.9062C23.4742 26.1562 24.0096 26.38 24.5487 26.5775C25.0879 26.775 25.655 26.8742 26.25 26.875C26.4275 26.875 26.5763 26.9346 26.6963 27.0537C26.8154 27.1737 26.875 27.3225 26.875 27.5C26.875 27.6775 26.8154 27.8262 26.6963 27.9462C26.5763 28.0654 26.4275 28.125 26.25 28.125C25.6525 28.125 25.0413 28.0429 24.4163 27.8787C23.7913 27.7146 23.1525 27.4604 22.5 27.1162C21.8475 27.4604 21.2087 27.7146 20.5837 27.8787C19.9587 28.0429 19.3475 28.125 18.75 28.125C18.1525 28.125 17.5413 28.0429 16.9163 27.8787C16.2913 27.7146 15.6525 27.4604 15 27.1162V27.115Z" fill="#1D2834"/>
</svg>
