<svg width="15" height="15" viewBox="0 0 15 15" fill="none" xmlns="http://www.w3.org/2000/svg">
<path d="M14.1652 13.1481C14.2319 13.2149 14.2849 13.2942 14.3211 13.3814C14.3572 13.4687 14.3758 13.5622 14.3758 13.6567C14.3758 13.7511 14.3572 13.8446 14.3211 13.9319C14.2849 14.0191 14.2319 14.0984 14.1652 14.1652C14.0984 14.2319 14.0191 14.2849 13.9319 14.3211C13.8446 14.3572 13.7511 14.3758 13.6567 14.3758C13.5622 14.3758 13.4687 14.3572 13.3814 14.3211C13.2942 14.2849 13.2149 14.2319 13.1481 14.1652L7.1879 8.20403L1.22767 14.1652C1.0928 14.3 0.90988 14.3758 0.71915 14.3758C0.528419 14.3758 0.345501 14.3 0.210634 14.1652C0.0757673 14.0303 3.75975e-09 13.8474 0 13.6567C-3.75975e-09 13.4659 0.0757673 13.283 0.210634 13.1481L6.17177 7.1879L0.210634 1.22767C0.0757673 1.0928 -1.42105e-09 0.90988 0 0.71915C1.42105e-09 0.528419 0.0757673 0.345501 0.210634 0.210634C0.345501 0.0757673 0.528419 1.42105e-09 0.71915 0C0.90988 -1.42105e-09 1.0928 0.0757673 1.22767 0.210634L7.1879 6.17177L13.1481 0.210634C13.283 0.0757673 13.4659 -3.75975e-09 13.6567 0C13.8474 3.75975e-09 14.0303 0.0757673 14.1652 0.210634C14.3 0.345501 14.3758 0.528419 14.3758 0.71915C14.3758 0.90988 14.3 1.0928 14.1652 1.22767L8.20403 7.1879L14.1652 13.1481Z" fill="#30475C"/>
</svg>
