<svg width="40" height="40" viewBox="0 0 40 40" fill="none" xmlns="http://www.w3.org/2000/svg">
<path d="M9.39346 30.604C8.00057 29.2111 6.89566 27.5575 6.14182 25.7376C5.38799 23.9177 5 21.9671 5 19.9973C5 18.0274 5.38799 16.0769 6.14182 14.257C6.89566 12.4371 8.00057 10.7835 9.39346 9.39062M30.6068 9.39062C31.9997 10.7835 33.1046 12.4371 33.8584 14.257C34.6123 16.0769 35.0003 18.0274 35.0003 19.9973C35.0003 21.9671 34.6123 23.9177 33.8584 25.7376C33.1046 27.5575 31.9997 29.2111 30.6068 30.604M14.1068 25.8906C13.3327 25.1168 12.7187 24.198 12.2998 23.1868C11.8809 22.1756 11.6652 21.0918 11.6652 19.9973C11.6652 18.9028 11.8809 17.8189 12.2998 16.8078C12.7187 15.7966 13.3327 14.8778 14.1068 14.104M25.8935 14.104C26.6675 14.8778 27.2815 15.7966 27.7005 16.8078C28.1194 17.8189 28.335 18.9028 28.335 19.9973C28.335 21.0918 28.1194 22.1756 27.7005 23.1868C27.2815 24.198 26.6675 25.1168 25.8935 25.8906M21.6668 19.9973C21.6668 20.4393 21.4912 20.8632 21.1786 21.1758C20.8661 21.4884 20.4422 21.664 20.0001 21.664C19.5581 21.664 19.1342 21.4884 18.8216 21.1758C18.5091 20.8632 18.3335 20.4393 18.3335 19.9973C18.3335 19.5553 18.5091 19.1313 18.8216 18.8188C19.1342 18.5062 19.5581 18.3306 20.0001 18.3306C20.4422 18.3306 20.8661 18.5062 21.1786 18.8188C21.4912 19.1313 21.6668 19.5553 21.6668 19.9973Z" stroke="#769CBA" stroke-width="3.33333" stroke-linecap="round" stroke-linejoin="round"/>
</svg>
