<svg width="21" height="21" viewBox="0 0 21 21" fill="none" xmlns="http://www.w3.org/2000/svg">
<g id="ion:search" opacity="0.75">
<path id="Vector" d="M18.7314 17.2836L14.8723 13.4244C15.8014 12.1875 16.3029 10.682 16.3013 9.135C16.3013 5.18355 13.0864 1.96875 9.135 1.96875C5.18355 1.96875 1.96875 5.18355 1.96875 9.135C1.96875 13.0864 5.18355 16.3013 9.135 16.3013C10.682 16.3029 12.1875 15.8014 13.4244 14.8723L17.2836 18.7314C17.4789 18.9061 17.7337 18.9993 17.9956 18.9919C18.2576 18.9846 18.5067 18.8773 18.692 18.692C18.8773 18.5067 18.9846 18.2576 18.9919 17.9956C18.9993 17.7337 18.9061 17.4789 18.7314 17.2836ZM4.01625 9.135C4.01625 8.12261 4.31646 7.13295 4.87891 6.29118C5.44137 5.4494 6.24081 4.79332 7.17614 4.40589C8.11147 4.01847 9.14068 3.9171 10.1336 4.11461C11.1266 4.31211 12.0386 4.79963 12.7545 5.5155C13.4704 6.23137 13.9579 7.14344 14.1554 8.13638C14.3529 9.12932 14.2515 10.1585 13.8641 11.0939C13.4767 12.0292 12.8206 12.8286 11.9788 13.3911C11.1371 13.9535 10.1474 14.2537 9.135 14.2537C7.77792 14.2521 6.47689 13.7123 5.5173 12.7527C4.5577 11.7931 4.01788 10.4921 4.01625 9.135Z" fill="#505050"/>
</g>
</svg>
