<svg width="148" height="96" viewBox="0 0 148 96" fill="none" xmlns="http://www.w3.org/2000/svg">
<path d="M101.701 18.6623C101.701 18.6623 58.7848 -8.58158 12.2456 21.8562C56.9578 -18.5703 101.701 18.6623 101.701 18.6623Z" fill="#F5F7FA"/>
<path d="M49.5039 21.6205C49.5039 21.6205 96.9193 39.3951 135.864 0C100.772 48.7888 49.5039 21.6205 49.5039 21.6205Z" fill="#F5F7FA"/>
<path d="M134.099 55.8596C131.798 54.7164 129.843 53.1216 129.843 50.3215C129.843 47.1737 132.342 42.7554 139.727 42.7554C140.56 42.7554 144.669 43.3635 145.113 43.3635C146.501 43.5293 146.501 44.1361 146.501 45.0188L146.28 48.2787C146.28 48.4984 146.168 49.1618 145.613 49.1618C145.224 49.1618 144.947 49.0513 144.614 48.0025C144.279 46.9523 142.781 42.8123 139.06 42.8123C136.673 42.8123 134.618 45.3523 134.618 47.3394C134.618 49.5492 135.84 50.0452 141.448 52.3655C142.238 52.7118 143.512 53.2417 144.729 54.0886C141.163 54.6612 137.664 55.4242 134.099 55.8596Z" fill="#F5F7FA"/>
<path d="M88.992 47.1202V55.9104C87.1828 55.6611 85.395 55.2875 83.6045 54.9221V46.8439C83.6045 46.1253 83.1612 45.7951 82.3278 45.849C81.8844 45.849 81.4947 45.9043 81.051 45.9043C80.7734 45.9043 80.1074 45.9042 80.1074 45.2978C80.1074 44.9311 80.2449 44.7383 80.4902 44.5657C80.8205 44.4739 81.0727 44.5318 81.2911 44.5239C84.7586 44.4081 87.5722 41.7277 87.5722 38.2776C87.5693 37.907 87.7515 37.6264 88.2935 37.6238C88.8434 37.6212 88.992 37.8974 88.992 38.7805V42.5351C88.992 43.5856 88.7345 45.5606 89.8968 45.4553C92.7023 45.2034 93.7863 43.0406 95.2114 43.0406C95.656 43.0406 96.0444 43.8063 95.9326 44.7998C95.8221 45.7947 95.656 45.9605 94.9334 45.9605C93.9895 45.9605 92.7115 45.8487 90.0461 45.8487C89.1026 45.8487 88.992 45.9605 88.992 47.1202Z" fill="#F5F7FA"/>
<path d="M67.4821 43.2518V46.0063C67.4821 46.3365 67.4821 46.7775 67.815 46.7328C67.982 46.7328 68.2599 46.4013 68.3139 46.2904C68.4257 46.1247 71.1463 42.9765 74.3671 42.9765C76.3664 42.9765 78.3657 44.0806 78.3657 46.2904C78.3657 48.5555 76.3664 49.4386 74.9778 49.4386C73.7563 49.4386 72.9785 48.9962 72.0912 48.0026C71.146 46.9525 71.0085 45.5235 69.7913 45.5961C67.6745 45.7241 67.6476 47.6711 67.6476 52.2548V54.4969C65.8492 54.8337 64.0613 55.2343 62.2617 55.5618V52.1226C62.2617 48.6512 61.5404 48.5407 59.4293 48.4299C59.2635 48.4299 58.708 48.4299 58.708 47.8247C58.708 47.4379 59.0129 47.0561 59.5789 46.9794C60.0413 46.9403 60.1344 46.9525 60.1344 46.9525C62.8119 46.9525 65.0983 45.2847 66.0018 42.9377C66.2619 42.3013 66.7352 42.3135 66.8714 42.3135C67.4265 42.3135 67.4821 42.7542 67.4821 43.2518Z" fill="#F5F7FA"/>
<path d="M50.7231 55.5308C50.657 55.0954 50.5774 54.653 50.4817 54.2084C49.5891 50.0331 45.778 42.0194 39.8583 43.2718C36.3382 44.0161 34.1392 47.9377 34.8861 54.0975C33.1121 54.3481 31.3594 54.7165 29.6055 55.0737C29.9978 49.794 33.685 44.4272 40.3154 43.0264C46.5078 41.7175 54.2702 44.3111 56.0137 52.4679C56.282 53.7216 56.3804 54.9727 56.3195 56.1929C54.4251 56.1402 52.5672 55.8719 50.7231 55.5308Z" fill="#F5F7FA"/>
<path d="M125.358 52.4681C125.611 53.6558 125.712 54.8421 125.672 56.0017C123.756 55.7764 121.869 55.3936 119.981 55.0082C119.935 54.7424 119.883 54.477 119.826 54.2086C118.934 50.0334 115.121 42.0196 109.202 43.2721C105.601 44.0325 103.384 48.1176 104.286 54.5201C102.494 54.8598 100.714 55.2575 98.9214 55.5811C99.1075 50.1412 102.816 44.4735 109.66 43.027C115.851 41.7177 123.615 44.3117 125.358 52.4681Z" fill="#F5F7FA"/>
<path d="M4.77564 54.0239V39.388C4.77564 37.1246 4.77564 35.6321 1.94423 35.4677C0.778312 35.3568 0.000488281 35.3568 0.000488281 34.529C0.000488281 33.7551 0.222818 33.7551 2.05506 33.7551C2.88814 33.7551 6.94105 33.9765 7.83069 33.9765C9.1627 33.9765 15.5474 33.7551 16.9916 33.7551C26.1538 33.7551 28.5968 39.609 28.5968 43.5294C28.5968 50.2664 22.5449 53.305 17.9921 53.305C16.6035 53.305 15.4373 53.084 13.1048 52.2548C12.7719 52.1456 11.4399 51.702 11.216 51.702C10.717 51.702 10.717 51.9782 10.717 52.6969V55.0642C8.74468 54.7126 6.77101 54.3367 4.77564 54.0239ZM10.717 38.7194V49.7231C10.717 50.8502 10.717 51.1156 11.383 51.4461C12.3266 52.0434 13.9378 52.1756 15.1041 52.1756C18.1026 52.1756 22.3222 49.8526 22.3222 43.3597C22.3222 37.5275 18.6577 33.9765 14.2158 33.9765C10.9949 33.9765 10.717 35.4729 10.717 38.7194Z" fill="#F5F7FA"/>
<path d="M130.799 60.0302C131.217 60.1729 131.448 60.6636 131.677 61.5319C131.954 62.5255 133.566 68.6273 138.062 68.6273C140.56 68.6273 143.448 65.6736 143.448 62.8017C143.448 60.909 142.38 59.7088 140.59 58.6939C137.345 59.2938 134.086 59.8615 130.799 60.0302ZM35.6556 57.8756C37.5391 64.5034 41.7858 69.0628 45.7548 68.2241C48.6951 67.6012 50.7118 64.1202 50.9358 59.4503C46.975 58.733 43.0799 57.6599 39.0004 57.6599C37.8733 57.6599 36.7597 57.7421 35.6556 57.8756ZM105.11 58.2489C107.044 64.6731 111.206 69.0464 115.1 68.2241C118.144 67.5798 120.198 63.8723 120.298 58.954C117.202 58.3219 114.114 57.6599 110.912 57.6599C108.945 57.6599 107.02 57.9105 105.11 58.2489ZM124.995 59.7967C123.611 63.9828 120.193 67.3345 115.303 68.3685C107.284 70.0629 101.092 65.1234 99.3964 59.3734C97.2714 59.771 95.1307 60.0812 92.9343 60.0812C91.6023 60.0812 90.2921 59.9667 88.9923 59.7884V60.5932C88.9923 63.078 89.3251 65.618 92.2118 65.618C93.0449 65.618 93.823 65.4522 95.7654 64.2373C95.9328 64.1268 96.2104 64.0163 96.3775 64.0163C96.6538 64.0163 96.8212 64.2926 96.8212 64.5136C96.8212 65.3427 93.2675 68.7105 89.2133 68.7105C86.3266 68.7105 83.606 66.8326 83.606 62.6909V58.8014C80.7559 58.2203 77.9047 57.6595 74.9563 57.6595C72.4715 57.6595 70.0542 58.0588 67.6477 58.5318V62.7557C67.6477 65.0138 67.6477 66.5024 70.4801 66.6681C71.7016 66.7221 72.4781 66.7787 72.4781 67.6065C72.4781 68.379 71.7568 68.379 71.3118 68.379C70.3679 68.379 65.872 68.1593 64.8715 68.1593C64.0381 68.1593 59.9855 68.379 59.0972 68.379C58.7088 68.379 58.1536 68.379 58.1536 67.6617C58.1536 67.1641 58.542 66.9431 59.8184 66.7787C62.2628 66.4468 62.2628 65.8416 62.2628 62.7557V59.5835C60.5236 59.8749 58.7696 60.0812 56.9778 60.0812C56.5049 60.0812 56.0342 60.0663 55.5662 60.0394C54.1316 64.1123 50.7519 67.3545 45.9564 68.3685C37.7151 70.1116 31.4027 64.8415 29.9184 58.8906C26.9903 59.4892 24.0579 60.0812 21.022 60.0812C17.4992 60.0812 14.1057 59.5635 10.7165 58.9649V62.6912C10.7165 65.0102 10.7165 66.5027 13.7703 66.6685C14.9918 66.7224 15.7683 66.779 15.7683 67.6068C15.7683 68.3794 15.047 68.3794 14.602 68.3794C12.7145 68.3794 9.71606 68.1597 7.82889 68.1597C6.88498 68.1597 2.22165 68.3794 1.16624 68.3794C0.721255 68.3794 0 68.3794 0 67.5515C0 66.779 0.777824 66.7224 1.94407 66.6685C4.77548 66.4458 4.77548 65.0102 4.77548 62.7468V57.919L4.77811 55.9667C10.2045 56.8146 15.4611 58.144 21.0223 58.144C27.1525 58.144 32.8577 55.724 39.0001 55.724C45.1424 55.724 50.848 58.144 56.9778 58.144C63.108 58.144 68.8136 55.724 74.9559 55.724C81.0983 55.724 86.8035 58.144 92.9337 58.144C99.0639 58.144 104.769 55.724 110.911 55.724C117.054 55.724 122.759 58.1469 128.89 58.144C134.918 58.1427 140.577 56.5775 146.478 55.7026C146.929 56.2338 147.306 56.8255 147.577 57.4888C147.844 58.1779 148 58.9501 148 59.8197C148 63.9614 144.613 68.7109 137.284 68.7109C133.953 68.7109 130.51 67.3302 130.289 67.1644C129.623 66.8326 129.623 66.3919 129.623 65.0668L129.733 60.979C129.733 60.8429 129.771 60.2617 130.182 60.0568C129.752 60.0729 129.321 60.0812 128.889 60.0812C127.576 60.0812 126.279 59.9706 124.995 59.7967Z" fill="#F5F7FA"/>
<path d="M40.4647 86.818C40.9379 86.818 41.2642 86.818 41.2642 86.2842C41.2642 85.2785 40.3167 81.9902 35.8448 81.9902C31.8178 81.9902 28.501 84.8335 28.501 89.2166C28.501 93.3326 31.4616 95.9088 35.3715 95.9088C39.1317 95.9088 41.205 93.3027 41.205 92.8581C41.205 92.7703 41.1455 92.5923 40.9379 92.5923C40.7613 92.5923 40.7317 92.6219 40.2867 93.0656C39.576 93.7464 38.3614 94.2506 37.0294 94.2506C34.7186 94.2506 32.9012 92.7893 32.1556 90.6374C31.9168 89.95 31.7876 89.1909 31.7876 88.3871C31.7876 86.8463 32.0546 86.818 32.5575 86.818H40.4647ZM32.9726 85.8997C32.2904 85.8997 32.173 85.8997 32.173 85.5735C32.173 85.1002 33.0156 82.2353 35.6796 82.2353C36.1246 82.2353 38.2131 82.7315 38.2131 84.4773C38.2131 85.2472 37.4728 85.8994 36.2003 85.8994H32.9726V85.8997Z" fill="#F5F7FA"/>
<path d="M64.2993 91.7632C64.2993 94.221 63.9447 95.604 61.2189 95.604C56.7779 95.604 54.0534 91.0511 54.0534 86.7289C54.0534 82.7315 56.6595 77.3105 61.2189 77.3105C64.4775 77.3105 65.6313 79.8587 66.1059 80.747C66.3134 81.1608 66.5495 81.4278 66.8163 81.4278C66.9942 81.4278 67.1721 81.2795 67.1721 80.8953C67.1721 80.6283 66.9051 78.2596 66.5492 77.9038C66.3413 77.6962 64.5956 76.9858 61.8411 76.9858C53.9636 76.9858 50.3208 82.2573 50.3208 86.6105C50.3208 89.4823 52.2461 95.9088 60.5374 95.9088C61.307 95.9088 64.1207 95.9088 66.8159 94.3989C67.6747 93.9539 67.6747 93.8651 67.6747 92.5331C67.6747 90.8453 67.5855 89.8382 67.5855 89.5415V89.2462C67.5855 87.9721 67.6451 87.4988 69.0672 87.41C69.8654 87.3505 70.1621 87.2617 70.1621 86.9354C70.1621 86.5809 69.8075 86.5809 69.6888 86.5809C69.2438 86.5809 66.4005 86.6996 65.9273 86.6996C63.9441 86.6996 63.1136 86.5809 62.6107 86.5809C61.4258 86.5809 61.2787 86.5809 61.2787 86.965C61.2787 87.2617 61.5149 87.3801 62.4328 87.41C63.7365 87.4396 64.2986 87.7053 64.2986 89.187V91.7632H64.2993Z" fill="#F5F7FA"/>
<path d="M97.5369 78.733C97.5369 77.8147 96.8265 77.0747 95.9083 77.0747C94.9308 77.0747 94.25 77.8742 94.25 78.7034C94.25 79.5621 94.9617 80.3024 95.9083 80.3024C96.8857 80.3024 97.5369 79.5029 97.5369 78.733Z" fill="#F5F7FA"/>
<path d="M78.2137 86.3706V85.1504C78.2137 84.1164 78.0032 82.1223 76.4758 82.1223C74.7406 82.1223 74.3755 82.7278 74.3726 83.2711C74.4144 83.6148 74.5709 84.0233 74.5574 84.4561C74.537 85.1747 74.37 85.6263 73.8671 86.0469C73.2955 86.5268 72.1671 86.8517 71.381 85.9147C70.8295 85.2583 70.9012 84.4818 71.2892 83.8398C71.8138 82.8153 73.2725 81.7257 77.2106 81.9644C80.2587 82.1493 81.3654 84.2117 81.3654 85.4224V92.3856C81.3654 93.3009 81.4625 94.0399 82.3725 94.0399C82.7297 94.0399 83.0546 93.9212 83.3151 93.7446C83.6723 93.4789 83.7048 93.4493 83.8663 93.4493C84.0617 93.4493 84.159 93.6259 84.159 93.7147C84.159 94.4241 82.1771 95.811 80.7481 95.811C79.4809 95.811 78.8633 94.9253 78.4738 94.2162C78.1811 93.6555 78.1167 93.6555 78.0183 93.6555C77.9535 93.6555 77.7917 93.7742 77.7917 93.7742C76.4259 94.7786 75.2626 95.6887 73.8013 95.6887C73.4576 95.6887 70.54 95.9258 70.54 92.4274C70.54 89.1069 74.9324 87.4326 77.401 87.4326C78.2459 87.4329 78.2137 86.9017 78.2137 86.3706ZM78.2137 90.8507V87.9318C78.2137 87.6368 77.897 87.5289 77.7352 87.5289C77.2793 87.5289 76.3288 87.7647 75.8085 88.0022C74.4591 88.7152 73.3655 89.7562 73.3655 91.572C73.3655 93.6709 74.9807 94.3843 75.6951 94.3843C78.1584 94.3843 78.2137 92.9174 78.2137 90.8507Z" fill="#F5F7FA"/>
<path d="M103.438 89.8382C103.438 93.0659 105.603 96.0884 108.366 95.7513C111.308 95.3925 111.295 93.5928 111.763 93.1952C112.258 92.7745 113.005 92.9603 112.852 93.6333C112.714 94.2332 110.722 95.9088 107.553 95.9088C104.178 95.9088 100.179 93.9243 100.179 89.3337C100.179 84.5664 104.561 81.9902 108.234 81.9902C108.578 81.9902 110.82 82.1751 112.028 82.8881C112.192 82.9851 112.338 83.0917 112.457 83.2104C112.551 83.3048 112.629 83.4061 112.686 83.514C112.735 83.5962 112.778 83.6837 112.814 83.7807C113.083 84.4806 112.987 85.3124 112.33 85.8636C111.393 86.6496 110.338 86.1333 109.858 85.5613C109.436 85.0584 109.349 84.5855 109.454 83.8748C109.788 82.8315 108.917 82.0534 107.76 82.1382C105.49 82.3047 103.438 85.218 103.438 89.8382Z" fill="#F5F7FA"/>
<path d="M129.706 86.3706V85.1504C129.706 84.1164 129.494 82.1223 127.967 82.1223C126.233 82.1223 125.866 82.7278 125.865 83.2711C125.905 83.6148 126.063 84.0233 126.05 84.4561C126.029 85.1747 125.862 85.6263 125.359 86.0469C124.788 86.5268 123.658 86.8517 122.872 85.9147C122.322 85.2583 122.392 84.4818 122.78 83.8398C123.305 82.8153 124.765 81.7257 128.701 81.9644C131.75 82.1493 132.857 84.2117 132.857 85.4224V92.3856C132.857 93.3009 132.954 94.0399 133.864 94.0399C134.221 94.0399 134.546 93.9212 134.806 93.7446C135.165 93.4789 135.196 93.4493 135.359 93.4493C135.555 93.4493 135.652 93.6259 135.652 93.7147C135.652 94.4241 133.67 95.811 132.239 95.811C130.972 95.811 130.356 94.9253 129.966 94.2162C129.672 93.6555 129.608 93.6555 129.511 93.6555C129.446 93.6555 129.283 93.7742 129.283 93.7742C127.918 94.7786 126.755 95.6887 125.292 95.6887C124.949 95.6887 122.032 95.9258 122.032 92.4274C122.032 89.1069 126.423 87.4326 128.893 87.4326C129.737 87.4329 129.706 86.9017 129.706 86.3706ZM129.706 90.8507V87.9318C129.706 87.6368 129.389 87.5289 129.226 87.5289C128.772 87.5289 127.82 87.7647 127.301 88.0022C125.951 88.7152 124.858 89.7562 124.858 91.572C124.858 93.6709 126.473 94.3843 127.188 94.3843C129.649 94.3843 129.706 92.9174 129.706 90.8507Z" fill="#F5F7FA"/>
<path d="M118.964 78.733C118.964 77.8147 118.253 77.0747 117.335 77.0747C116.358 77.0747 115.677 77.8742 115.677 78.7034C115.677 79.5621 116.389 80.3024 117.335 80.3024C118.312 80.3024 118.964 79.5029 118.964 78.733Z" fill="#F5F7FA"/>
<path d="M28.2582 93.7117C28.2582 93.6226 28.1612 93.445 27.9658 93.445C27.8027 93.445 27.7718 93.4746 27.413 93.7416C27.1528 93.9182 26.8279 94.0366 26.4707 94.0366C25.7212 94.0366 25.5229 93.5338 25.4771 92.8447V80.0276L25.5136 77.6803L25.6146 76.1717C25.6146 75.9089 25.4423 75.627 25.1456 75.627C25.0742 75.627 24.772 75.6122 24.5862 75.9803C24.1063 77.2245 22.8888 78.1088 21.4624 78.1088L21.1427 78.1236C20.7882 78.2128 20.7033 78.3664 20.7033 78.5713C20.7033 78.8923 20.9986 78.8922 21.0874 78.8922C22.2103 78.9501 22.5961 79.0093 22.5961 80.8498V82.3814C22.5882 82.4946 22.5099 82.608 22.3964 82.608C22.3372 82.608 22.1606 82.5502 22.0419 82.4906C21.5377 82.2532 20.4711 81.9861 19.5249 81.9861C16.1788 81.9861 12.3594 84.6814 12.3594 89.2704C12.3594 93.2394 15.2608 95.9034 18.607 95.9034C20.2948 95.9034 21.3006 95.1634 22.1014 94.5122C22.2201 94.4231 22.3968 94.3047 22.5152 94.3047C22.5882 94.3047 22.6595 94.4017 22.7418 94.5043C23.1397 95.1433 23.7488 95.808 24.8463 95.808C26.2763 95.808 28.2582 94.4195 28.2582 93.7117ZM22.7224 86.6067V92.5589C22.7224 93.0914 22.8019 94.7145 20.3146 94.7145C17.3835 94.7145 15.4973 91.7281 15.4973 88.3833C15.4973 84.5034 17.6854 82.1927 19.7278 82.1927C22.7197 82.193 22.7224 85.2734 22.7224 86.6067Z" fill="#F5F7FA"/>
<path d="M91.7088 95.3713C91.7088 95.1055 91.5605 94.9575 90.8205 94.8684C89.5464 94.6905 89.5464 94.3642 89.5464 92.7059V82.3627C89.5477 82.3627 89.549 82.3627 89.5503 82.3627V81.1738L89.6003 77.9342L89.7013 76.4256C89.7013 76.1628 89.5286 75.8809 89.2333 75.8809C89.1606 75.8809 88.8587 75.8661 88.6725 76.2342C88.1927 77.4787 86.9751 78.3627 85.55 78.3627L85.2307 78.3775C84.8761 78.4667 84.7896 78.6203 84.7896 78.8252C84.7896 79.1462 85.0863 79.1462 85.1738 79.1462C86.267 79.2027 86.6541 79.2889 86.6742 80.9876V92.7355C86.6742 94.3642 86.6742 94.6905 85.4001 94.8684C84.7489 94.9575 84.5117 95.0746 84.5117 95.3417C84.5117 95.7271 84.8084 95.7271 85.1642 95.7271C85.7858 95.7271 86.1404 95.6084 88.0953 95.6084C89.8128 95.6084 90.4048 95.7271 91.204 95.7271C91.4122 95.7275 91.7088 95.7275 91.7088 95.3713Z" fill="#F5F7FA"/>
<path d="M99.5203 95.3725C99.5203 95.1054 99.3733 94.9574 98.632 94.8683C97.3592 94.6904 97.3592 94.3358 97.3592 92.7059V88.3458C97.3631 88.3458 97.3658 88.3445 97.37 88.3445V87.1552L97.4184 84.057C97.4279 83.8887 97.4345 83.7347 97.444 83.5759L97.5223 82.407C97.5223 82.1439 97.3483 81.8624 97.0533 81.8624C96.9819 81.8624 96.6784 81.8489 96.4939 82.2169C96.0127 83.4611 94.7952 84.3442 93.3701 84.3442L93.0507 84.3603C92.6962 84.4481 92.6113 84.6014 92.6113 84.8066C92.6113 85.1276 92.9067 85.1276 92.9955 85.1276C94.0604 85.1828 94.4488 85.2881 94.4863 86.8641V87.1095V92.7368C94.4863 94.3654 94.4863 94.6904 93.2135 94.8683C92.561 94.9574 92.3252 95.0758 92.3252 95.3416C92.3252 95.727 92.6205 95.727 92.8281 95.727C93.3309 95.727 94.6939 95.6083 95.9371 95.6083C97.3 95.6083 98.5728 95.727 99.0174 95.727C99.225 95.7274 99.5203 95.7274 99.5203 95.3725Z" fill="#F5F7FA"/>
<path d="M120.915 95.3725C120.915 95.1054 120.768 94.9574 120.027 94.8683C118.755 94.6904 118.755 94.3358 118.755 92.7059V88.3458C118.759 88.3458 118.761 88.3445 118.766 88.3445V87.1552L118.814 84.057C118.823 83.8887 118.83 83.7347 118.84 83.5759L118.918 82.407C118.918 82.1439 118.745 81.8624 118.448 81.8624C118.377 81.8624 118.075 81.8489 117.889 82.2169C117.408 83.4611 116.19 84.3442 114.765 84.3442L114.446 84.3603C114.091 84.4481 114.007 84.6014 114.007 84.8066C114.007 85.1276 114.302 85.1276 114.391 85.1276C115.456 85.1828 115.844 85.2881 115.882 86.8641V87.1095V92.7368C115.882 94.3654 115.882 94.6904 114.609 94.8683C113.957 94.9574 113.721 95.0758 113.721 95.3416C113.721 95.727 114.016 95.727 114.224 95.727C114.728 95.727 116.089 95.6083 117.332 95.6083C118.695 95.6083 119.968 95.727 120.413 95.727C120.62 95.7274 120.915 95.7274 120.915 95.3725Z" fill="#F5F7FA"/>
</svg>
