<svg width="40" height="40" viewBox="0 0 40 40" fill="none" xmlns="http://www.w3.org/2000/svg">
<path d="M8.33325 31.2833V29.6167H11.0249V16.4083C11.0249 14.2306 11.7138 12.3156 13.0916 10.6633C14.4716 9.01222 16.2188 7.98333 18.3333 7.57667V6.66667C18.3333 6.20333 18.4949 5.81 18.8183 5.48667C19.1416 5.16222 19.5344 5 19.9966 5C20.4577 5 20.8516 5.16222 21.1783 5.48667C21.5038 5.81 21.6666 6.20333 21.6666 6.66667V7.57667C23.7821 7.98333 25.5288 9.01278 26.9066 10.665C28.2844 12.3183 28.9733 14.2333 28.9733 16.41V29.615H31.6666V31.2817H8.33325V31.2833ZM19.9949 35.6417C19.2527 35.6417 18.6194 35.3778 18.0949 34.85C17.5705 34.3233 17.3083 33.69 17.3083 32.95H22.6916C22.6916 33.6944 22.4277 34.3289 21.8999 34.8533C21.371 35.3789 20.736 35.6417 19.9949 35.6417ZM12.6916 29.615H27.3083V16.41C27.3083 14.3844 26.5966 12.66 25.1733 11.2367C23.751 9.81445 22.0266 9.10333 19.9999 9.10333C17.9733 9.10333 16.2488 9.81445 14.8266 11.2367C13.4044 12.66 12.6933 14.3844 12.6933 16.41V29.615H12.6916Z" fill="#1D2834"/>
</svg>
