<svg width="26" height="26" viewBox="0 0 26 26" fill="none" xmlns="http://www.w3.org/2000/svg">
<g clip-path="url(#clip0_1144_3244)">
<path d="M12.0637 0.387358L13.6307 0.38672C14.4373 0.386507 14.5913 0.249797 14.7656 1.18753L14.9093 1.98147C14.9415 2.14876 15.1641 3.35188 15.2412 3.40319C15.434 3.53161 15.7098 3.59583 15.9293 3.67122L17.5017 4.34285C17.5294 4.35442 17.5791 4.38189 17.6075 4.38525C17.6548 4.39086 19.3444 3.35228 19.5273 3.24442C19.8367 3.06198 20.078 2.80365 20.4307 3.05583L20.4489 3.06907C20.6057 3.18173 20.742 3.34477 20.8793 3.48154L22.2201 4.82196C22.8147 5.40722 22.7422 5.39275 22.3319 6.04571L21.176 7.83527C21.1498 7.87615 21.1033 7.9282 21.0973 7.97501C21.2314 8.28093 21.4135 8.56963 21.5539 8.87466C21.7689 9.34132 21.9346 9.8264 22.1142 10.3072C22.148 10.3978 23.5717 10.665 23.7517 10.7003L24.3415 10.8201C24.6016 10.8748 25.0569 10.9443 25.1475 11.2454L25.1617 11.295C25.1934 11.4343 25.176 11.6081 25.1767 11.7519L25.178 13.637C25.1772 13.9695 25.2489 14.4496 24.8593 14.5935C24.5552 14.7058 24.1973 14.7478 23.8783 14.8063L22.3358 15.0992C22.2756 15.1112 22.1393 15.1318 22.0914 15.1664C22.0696 15.1821 21.9109 15.7099 21.8792 15.7947L21.4097 16.9055C21.3072 17.1187 21.2053 17.3315 21.0738 17.5287L22.3427 19.4772C22.4856 19.6778 22.7296 19.9424 22.615 20.2087L22.608 20.2242C22.482 20.5099 22.1701 20.7334 21.9569 20.9537L21.0436 21.8812C20.8482 22.0764 20.6533 22.2854 20.4349 22.4552C20.0116 22.7843 19.6505 22.3823 19.2564 22.1244L18.0081 21.3657C17.8715 21.2843 17.7291 21.2081 17.6045 21.1088C17.5378 21.1303 17.466 21.177 17.4028 21.2086L17.0461 21.3807C16.7038 21.5489 16.3555 21.7059 15.9951 21.8312L15.3919 22.011C15.3601 22.0203 15.2398 22.0446 15.2192 22.0642C15.1684 22.1128 15.1022 22.6068 15.0835 22.7053L14.8529 23.8899C14.8001 24.1802 14.7672 24.4916 14.6804 24.7734C14.529 25.2651 13.8837 25.1508 13.4808 25.1519L11.6024 25.1523C10.7766 25.1505 10.8779 24.6951 10.7486 24.0119L10.4518 22.5824C10.4033 22.3727 10.4275 22.1188 10.2338 22.0417L9.05599 21.6232C8.68779 21.4748 8.33835 21.2977 7.98946 21.1089C7.7301 21.2214 7.48297 21.4029 7.24243 21.5528L6.19161 22.1957C5.99354 22.3187 5.79107 22.4681 5.57324 22.5531L5.48251 22.587C5.17155 22.678 4.76467 22.1249 4.57766 21.9377L3.82681 21.1879C3.58232 20.9444 3.31154 20.711 3.08365 20.4527C2.80163 20.133 2.95878 19.8962 3.16913 19.5778L3.50421 19.0771C3.84087 18.5752 4.18821 18.0617 4.48233 17.5341C4.28428 17.1155 4.03571 16.7254 3.85304 16.2984L3.53947 15.4225C3.51715 15.3516 3.49184 15.2325 3.44345 15.1759C3.34725 15.0635 1.14778 14.743 0.785558 14.6138C0.321841 14.4484 0.380598 14.1058 0.379134 13.7012L0.379646 11.8966C0.380028 11.7246 0.368704 11.5407 0.394682 11.3708L0.401373 11.3266C0.471888 10.8579 1.02463 10.8438 1.39556 10.7764L3.20187 10.435C3.50708 10.3548 3.49905 10.1923 3.59902 9.91434L3.83011 9.28418C3.91865 9.05556 4.02265 8.8278 4.13503 8.60971L4.37783 8.16839C4.51601 7.93199 4.46097 7.9525 4.30376 7.69788L3.38932 6.27982C3.24585 6.05964 2.8843 5.65989 2.92871 5.37992L2.93138 5.3648C2.9672 5.14477 3.18692 4.98792 3.3399 4.84545L4.66683 3.4869C5.03291 3.11838 5.23832 2.72437 5.77665 3.06878L7.3327 4.03358C7.53263 4.1522 7.7324 4.27768 7.94155 4.3789L10.3292 3.44258C10.417 3.26188 10.4498 3.00636 10.4901 2.80855L10.6679 1.87946C10.7171 1.58235 10.7884 0.636906 11.0724 0.478859L11.088 0.470342C11.2096 0.400585 11.3259 0.398756 11.4621 0.392545L12.0637 0.387358ZM12.4661 4.69536C12.3165 4.69985 12.1652 4.70111 12.0172 4.72514L11.3911 4.80978C8.42055 5.2872 5.83544 7.61564 5.04878 10.5205C4.19153 13.686 5.29267 17.2809 7.98737 19.2255C9.13839 20.0562 10.5565 20.625 11.9712 20.7638C12.3398 20.7999 12.7111 20.788 13.081 20.7866C13.8944 20.7628 14.7421 20.6185 15.5105 20.3466C17.5736 19.6167 19.4991 17.802 20.2538 15.7169C20.4697 15.1205 20.6208 14.4626 20.7145 13.836L20.7693 13.3591C20.7993 13.1206 20.7866 12.8673 20.7861 12.6272C20.7791 9.27565 18.5575 6.20067 15.3959 5.13898C14.8399 4.95228 14.2828 4.80934 13.6992 4.74119L12.4661 4.69536Z" fill="#36536E"/>
<path d="M6.45778 15.6427L6.45478 15.6324C6.40807 15.4773 6.33182 15.3243 6.27602 15.1712C4.69538 10.8335 7.56279 6.20716 12.1636 5.80004C15.9399 5.46587 19.4872 8.37985 19.724 12.2174C19.8378 14.0634 19.2067 16.0547 17.9668 17.4288C16.3179 19.2561 13.6954 20.0372 11.3049 19.5244L10.7547 19.3766C8.94886 18.8111 7.54921 17.7269 6.64617 16.0223L6.45778 15.6427Z" fill="#36536E"/>
<path d="M12.6336 6.80298C14.1571 6.67313 14.5346 8.83259 13.128 9.29362L13.1253 10.0166L14.3631 10.0158C14.8809 10.0175 14.9161 10.5126 14.5936 10.6287L14.5788 10.6338C14.5138 10.6568 14.4475 10.6504 14.3797 10.6493L13.1242 10.6464L13.1288 15.4843C13.1291 15.6988 13.116 15.9246 13.1463 16.1371C13.1829 16.1515 13.2514 16.1374 13.2919 16.1344C14.7205 16.0276 15.7689 15.0164 16.2803 13.7114C16.3343 13.5736 16.5429 13.0317 16.4703 12.9016C16.4179 12.8079 15.6723 13.2977 15.5078 13.0277C15.2619 12.6239 15.8419 12.4378 16.1368 12.261C16.4777 12.0567 16.8088 11.841 17.1658 11.6651C17.4836 11.9736 18.0748 13.2301 17.9831 13.5658C17.95 13.6871 17.8159 13.787 17.689 13.7447C17.5355 13.6935 17.3142 13.22 17.2355 13.0753L17.1984 13.4167C16.9975 15.0745 16.119 16.2805 14.7389 17.1376L12.9904 18.1133C12.9152 18.1534 12.8574 18.2041 12.7697 18.1933C12.6747 18.1609 12.5827 18.1076 12.4935 18.0616L10.9984 17.2332C9.6179 16.4306 8.65028 15.2126 8.38473 13.5969C8.35499 13.4159 8.33797 13.2331 8.29101 13.0554L8.09932 13.3871C7.99871 13.5563 7.83312 13.8685 7.61658 13.6474C7.33517 13.3601 8.17034 11.876 8.40454 11.6496C8.51633 11.6806 8.62183 11.7488 8.7194 11.8097L9.10591 12.0524C9.3756 12.2178 9.95151 12.4882 10.1151 12.7644C10.1796 12.8733 10.0238 13.0838 9.92856 13.1198C9.7766 13.1771 9.52817 13.0448 9.38828 12.9887L9.04513 12.8588C9.30489 14.5286 10.6481 16.1358 12.4302 16.1577C12.4624 15.9785 12.4463 15.778 12.4466 15.5956L12.4525 10.6511C12.3774 10.6347 12.2814 10.6451 12.2034 10.645L11.4072 10.6445C11.2463 10.6446 11.004 10.6889 10.8769 10.5614C10.6708 10.3544 10.8077 10.0909 11.0737 10.0324C11.236 9.99674 11.4237 10.0144 11.5892 10.0146L12.4535 10.0197C12.484 9.86713 12.4298 9.53092 12.4602 9.31498L12.4628 9.29791C11.1215 8.76871 11.2855 7.02297 12.6336 6.80298Z" fill="#F5F7FA"/>
<path d="M12.7454 7.49072C13.6407 7.52641 13.5623 8.57138 12.8312 8.65652C11.9747 8.63151 11.9451 7.56099 12.7454 7.49072Z" fill="#36536E"/>
</g>
<defs>
<clipPath id="clip0_1144_3244">
<rect width="25.5469" height="25.5469" fill="white"/>
</clipPath>
</defs>
</svg>
