<svg width="30" height="30" viewBox="0 0 30 30" fill="none" xmlns="http://www.w3.org/2000/svg">
<path d="M15 1.875C7.75195 1.875 1.875 7.75195 1.875 15C1.875 22.248 7.75195 28.125 15 28.125C22.248 28.125 28.125 22.248 28.125 15C28.125 7.75195 22.248 1.875 15 1.875ZM15 25.8984C8.98242 25.8984 4.10156 21.0176 4.10156 15C4.10156 12.3926 5.01855 9.99609 6.54785 8.12109L21.8789 23.4521C20.0039 24.9814 17.6074 25.8984 15 25.8984ZM23.4521 21.8789L8.12109 6.54785C9.99609 5.01855 12.3926 4.10156 15 4.10156C21.0176 4.10156 25.8984 8.98242 25.8984 15C25.8984 17.6074 24.9814 20.0039 23.4521 21.8789Z" fill="#7A2E0D"/>
</svg>
