<svg width="307" height="202" viewBox="0 0 307 202" fill="none" xmlns="http://www.w3.org/2000/svg">
<g filter="url(#filter0_d_1998_3378)">
<path d="M209.464 37.7025C209.464 37.7025 122.762 -17.3376 28.7397 44.1549C119.071 -37.5175 209.464 37.7025 209.464 37.7025Z" fill="#426787"/>
<path d="M104.011 43.6793C104.011 43.6793 199.803 79.5887 278.482 0C207.587 98.5666 104.011 43.6793 104.011 43.6793Z" fill="#426787"/>
<path d="M274.917 112.853C270.268 110.543 266.318 107.321 266.318 101.664C266.318 95.3046 271.365 86.3784 286.286 86.3784C287.969 86.3784 296.271 87.607 297.167 87.607C299.972 87.9419 299.972 89.1678 299.972 90.9511L299.525 97.5371C299.525 97.981 299.299 99.3212 298.177 99.3212C297.392 99.3212 296.832 99.0979 296.159 96.979C295.483 94.8574 292.457 86.4934 284.939 86.4934C280.116 86.4934 275.965 91.6249 275.965 95.6395C275.965 100.104 278.433 101.106 289.763 105.794C291.359 106.493 293.933 107.564 296.392 109.275C289.187 110.431 282.119 111.973 274.917 112.853Z" fill="#426787"/>
<path d="M183.788 95.196V112.955C180.133 112.451 176.521 111.696 172.904 110.958V94.6379C172.904 93.186 172.008 92.5189 170.325 92.6279C169.429 92.6279 168.641 92.7395 167.745 92.7395C167.184 92.7395 165.839 92.7395 165.839 91.5143C165.839 90.7734 166.117 90.3841 166.612 90.0352C167.279 89.8499 167.789 89.9668 168.23 89.9509C175.235 89.717 180.92 84.3017 180.92 77.3317C180.914 76.5829 181.282 76.0161 182.377 76.0108C183.488 76.0055 183.788 76.5636 183.788 78.3476V85.9329C183.788 88.0552 183.268 92.0452 185.616 91.8326C191.284 91.3236 193.474 86.9542 196.353 86.9542C197.251 86.9542 198.036 88.501 197.81 90.5083C197.587 92.5183 197.251 92.8531 195.791 92.8531C193.884 92.8531 191.302 92.6272 185.918 92.6272C184.011 92.6272 183.788 92.8531 183.788 95.196Z" fill="#426787"/>
<path d="M140.332 87.3803V92.945C140.332 93.6122 140.332 94.5032 141.004 94.4128C141.342 94.4128 141.903 93.743 142.012 93.5191C142.238 93.1842 147.735 86.8242 154.242 86.8242C158.281 86.8242 162.32 89.0547 162.32 93.5191C162.32 98.0952 158.281 99.8792 155.475 99.8792C153.008 99.8792 151.436 98.9855 149.644 96.9782C147.734 94.8567 147.456 91.9696 144.997 92.1165C140.721 92.375 140.666 96.3085 140.666 105.569V110.098C137.033 110.779 133.421 111.588 129.785 112.25V105.302C129.785 98.2885 128.328 98.0653 124.063 97.8414C123.728 97.8414 122.606 97.8414 122.606 96.6188C122.606 95.8374 123.222 95.066 124.365 94.9111C125.3 94.8321 125.488 94.8567 125.488 94.8567C130.897 94.8567 135.516 91.4873 137.341 86.7458C137.867 85.4601 138.823 85.4847 139.098 85.4847C140.22 85.4847 140.332 86.375 140.332 87.3803Z" fill="#426787"/>
<path d="M106.474 112.186C106.341 111.307 106.18 110.413 105.987 109.515C104.183 101.079 96.4838 84.8896 84.5245 87.4198C77.4129 88.9235 72.9704 96.8463 74.4794 109.291C70.8954 109.797 67.3545 110.541 63.811 111.263C64.6037 100.596 72.0528 89.754 85.448 86.9241C97.9582 84.2796 113.64 89.5195 117.163 105.998C117.705 108.531 117.904 111.059 117.781 113.524C113.953 113.418 110.2 112.875 106.474 112.186Z" fill="#426787"/>
<path d="M257.257 106C257.769 108.399 257.973 110.796 257.892 113.139C254.021 112.684 250.208 111.91 246.395 111.131C246.302 110.595 246.196 110.058 246.082 109.516C244.278 101.081 236.576 84.8911 224.619 87.4213C217.344 88.9575 212.863 97.2106 214.685 110.145C211.065 110.832 207.471 111.635 203.848 112.289C204.224 101.299 211.717 89.8486 225.542 86.9263C238.05 84.2812 253.735 89.5216 257.257 106Z" fill="#426787"/>
<path d="M13.6481 109.143V79.5741C13.6481 75.0013 13.6481 71.9861 7.92785 71.6539C5.57239 71.4299 4.00098 71.4299 4.00098 69.7575C4.00098 68.1941 4.45014 68.1941 8.15177 68.1941C9.83481 68.1941 18.0228 68.6413 19.8201 68.6413C22.5111 68.6413 35.41 68.1941 38.3276 68.1941C56.8377 68.1941 61.7732 80.0206 61.7732 87.9408C61.7732 101.551 49.5467 107.69 40.3488 107.69C37.5435 107.69 35.1874 107.244 30.4752 105.569C29.8027 105.348 27.1117 104.452 26.6592 104.452C25.6513 104.452 25.6513 105.01 25.6513 106.462V111.244C21.6666 110.534 17.6793 109.774 13.6481 109.143ZM25.6513 78.2232V100.454C25.6513 102.731 25.6513 103.267 26.9968 103.935C28.9031 105.141 32.1582 105.408 34.5143 105.408C40.5721 105.408 49.0969 100.715 49.0969 87.5979C49.0969 75.8153 41.6937 68.6413 32.7197 68.6413C26.2127 68.6413 25.6513 71.6645 25.6513 78.2232Z" fill="#426787"/>
<path d="M268.249 121.276C269.094 121.565 269.56 122.556 270.023 124.31C270.584 126.317 273.839 138.645 282.922 138.645C287.97 138.645 293.803 132.677 293.803 126.876C293.803 123.052 291.646 120.627 288.029 118.577C281.473 119.789 274.89 120.935 268.249 121.276ZM76.0339 116.923C79.8392 130.313 88.4185 139.525 96.437 137.83C102.377 136.572 106.452 129.539 106.904 120.105C98.9022 118.656 91.0331 116.488 82.7913 116.488C80.5143 116.488 78.2645 116.654 76.0339 116.923ZM216.35 117.678C220.258 130.656 228.666 139.491 236.532 137.83C242.682 136.529 246.833 129.038 247.034 119.102C240.781 117.825 234.541 116.488 228.072 116.488C224.099 116.488 220.209 116.994 216.35 117.678ZM256.525 120.804C253.727 129.262 246.823 136.033 236.944 138.122C220.744 141.545 208.233 131.566 204.808 119.949C200.515 120.753 196.19 121.379 191.752 121.379C189.061 121.379 186.414 121.148 183.788 120.788V122.414C183.788 127.434 184.461 132.565 190.293 132.565C191.976 132.565 193.548 132.23 197.472 129.776C197.81 129.553 198.371 129.329 198.709 129.329C199.267 129.329 199.605 129.887 199.605 130.334C199.605 132.009 192.426 138.813 184.235 138.813C178.403 138.813 172.907 135.019 172.907 126.652V118.794C167.149 117.62 161.389 116.487 155.432 116.487C150.412 116.487 145.528 117.294 140.667 118.249V126.782C140.667 131.345 140.667 134.352 146.389 134.687C148.857 134.796 150.425 134.91 150.425 136.582C150.425 138.143 148.968 138.143 148.069 138.143C146.162 138.143 137.079 137.699 135.058 137.699C133.374 137.699 125.187 138.143 123.392 138.143C122.608 138.143 121.486 138.143 121.486 136.694C121.486 135.689 122.271 135.242 124.849 134.91C129.788 134.24 129.788 133.017 129.788 126.782V120.374C126.274 120.963 122.731 121.379 119.111 121.379C118.155 121.379 117.204 121.349 116.259 121.295C113.36 129.523 106.533 136.073 96.8444 138.122C80.1947 141.643 67.442 130.996 64.4433 118.974C58.5278 120.183 52.6036 121.379 46.4701 121.379C39.3532 121.379 32.4974 120.333 25.6503 119.124V126.652C25.6503 131.337 25.6503 134.353 31.8197 134.687C34.2874 134.796 35.8562 134.911 35.8562 136.583C35.8562 138.144 34.3991 138.144 33.5001 138.144C29.6868 138.144 23.6291 137.7 19.8165 137.7C17.9095 137.7 8.48833 138.144 6.35612 138.144C5.45713 138.144 4 138.144 4 136.471C4 134.911 5.57141 134.796 7.92754 134.687C13.6478 134.238 13.6478 131.337 13.6478 126.765V117.011L13.6531 113.067C24.6158 114.78 35.2356 117.466 46.4707 117.466C58.8553 117.466 70.3815 112.577 82.7907 112.577C95.1999 112.577 106.727 117.466 119.111 117.466C131.495 117.466 143.022 112.577 155.431 112.577C167.84 112.577 179.367 117.466 191.751 117.466C204.136 117.466 215.663 112.577 228.071 112.577C240.48 112.577 252.007 117.472 264.392 117.466C276.572 117.463 288.003 114.301 299.925 112.533C300.837 113.607 301.597 114.802 302.145 116.142C302.684 117.534 303 119.094 303 120.851C303 129.218 296.158 138.814 281.352 138.814C274.622 138.814 267.665 136.024 267.218 135.689C265.873 135.019 265.873 134.129 265.873 131.452L266.096 123.193C266.096 122.918 266.172 121.744 267.003 121.33C266.134 121.363 265.263 121.379 264.391 121.379C261.737 121.379 259.117 121.156 256.525 120.804Z" fill="#426787"/>
<path d="M85.7495 175.396C86.7056 175.396 87.3647 175.396 87.3647 174.317C87.3647 172.285 85.4505 165.642 76.416 165.642C68.2805 165.642 61.5796 171.386 61.5796 180.242C61.5796 188.557 67.5609 193.762 75.4599 193.762C83.0565 193.762 87.2451 188.497 87.2451 187.598C87.2451 187.421 87.1249 187.061 86.7056 187.061C86.3488 187.061 86.289 187.121 85.39 188.018C83.9541 189.393 81.5003 190.412 78.8093 190.412C74.1409 190.412 70.4692 187.459 68.9629 183.112C68.4805 181.723 68.2194 180.19 68.2194 178.566C68.2194 175.453 68.7589 175.396 69.7749 175.396H85.7495ZM70.6134 173.541C69.2353 173.541 68.9981 173.541 68.9981 172.881C68.9981 171.925 70.7004 166.137 76.0824 166.137C76.9814 166.137 81.2007 167.14 81.2007 170.667C81.2007 172.222 79.705 173.54 77.1343 173.54H70.6134V173.541Z" fill="#426787"/>
<path d="M133.902 185.387C133.902 190.353 133.186 193.147 127.679 193.147C118.707 193.147 113.202 183.949 113.202 175.217C113.202 167.141 118.467 156.189 127.679 156.189C134.262 156.189 136.593 161.337 137.552 163.132C137.971 163.968 138.448 164.507 138.987 164.507C139.346 164.507 139.706 164.208 139.706 163.431C139.706 162.892 139.166 158.107 138.447 157.388C138.027 156.968 134.501 155.533 128.936 155.533C113.021 155.533 105.662 166.183 105.662 174.978C105.662 180.779 109.551 193.763 126.302 193.763C127.857 193.763 133.541 193.763 138.986 190.712C140.721 189.813 140.721 189.634 140.721 186.943C140.721 183.533 140.541 181.498 140.541 180.899V180.302C140.541 177.728 140.661 176.772 143.534 176.593C145.147 176.473 145.746 176.293 145.746 175.634C145.746 174.918 145.03 174.918 144.79 174.918C143.891 174.918 138.147 175.158 137.191 175.158C133.184 175.158 131.507 174.918 130.491 174.918C128.097 174.918 127.8 174.918 127.8 175.694C127.8 176.293 128.277 176.532 130.131 176.593C132.765 176.653 133.901 177.189 133.901 180.183V185.387H133.902Z" fill="#426787"/>
<path d="M201.051 159.063C201.051 157.208 199.615 155.713 197.76 155.713C195.786 155.713 194.41 157.328 194.41 159.003C194.41 160.738 195.848 162.234 197.76 162.234C199.735 162.234 201.051 160.618 201.051 159.063Z" fill="#426787"/>
<path d="M162.013 174.493V172.028C162.013 169.939 161.587 165.91 158.502 165.91C154.996 165.91 154.259 167.134 154.253 168.231C154.337 168.926 154.653 169.751 154.626 170.625C154.585 172.077 154.247 172.989 153.231 173.839C152.076 174.809 149.797 175.465 148.209 173.572C147.094 172.246 147.239 170.677 148.023 169.38C149.083 167.31 152.03 165.109 159.986 165.591C166.144 165.965 168.38 170.132 168.38 172.577V186.645C168.38 188.494 168.576 189.987 170.415 189.987C171.136 189.987 171.793 189.747 172.319 189.391C173.04 188.854 173.106 188.794 173.432 188.794C173.827 188.794 174.024 189.151 174.024 189.33C174.024 190.763 170.02 193.565 167.133 193.565C164.573 193.565 163.325 191.776 162.538 190.343C161.947 189.21 161.817 189.21 161.618 189.21C161.487 189.21 161.16 189.45 161.16 189.45C158.401 191.48 156.051 193.318 153.098 193.318C152.404 193.318 146.51 193.797 146.51 186.729C146.51 180.021 155.383 176.638 160.371 176.638C162.078 176.639 162.013 175.566 162.013 174.493ZM162.013 183.544V177.647C162.013 177.051 161.373 176.833 161.046 176.833C160.125 176.833 158.205 177.31 157.154 177.789C154.427 179.23 152.218 181.333 152.218 185.001C152.218 189.242 155.481 190.683 156.924 190.683C161.901 190.683 162.013 187.719 162.013 183.544Z" fill="#426787"/>
<path d="M212.972 181.497C212.972 188.018 217.346 194.124 222.93 193.443C228.873 192.719 228.846 189.083 229.791 188.279C230.793 187.43 232.302 187.805 231.991 189.164C231.714 190.376 227.688 193.762 221.287 193.762C214.467 193.762 206.388 189.752 206.388 180.478C206.388 170.847 215.243 165.642 222.662 165.642C223.357 165.642 227.886 166.016 230.327 167.456C230.659 167.652 230.953 167.868 231.193 168.107C231.384 168.298 231.542 168.503 231.656 168.721C231.755 168.887 231.842 169.064 231.916 169.26C232.458 170.674 232.264 172.354 230.937 173.468C229.044 175.056 226.912 174.012 225.942 172.857C225.09 171.841 224.916 170.885 225.128 169.45C225.801 167.342 224.041 165.77 221.704 165.941C217.118 166.278 212.972 172.163 212.972 181.497Z" fill="#426787"/>
<path d="M266.041 174.493V172.028C266.041 169.939 265.614 165.91 262.527 165.91C259.024 165.91 258.284 167.134 258.281 168.231C258.363 168.926 258.681 169.751 258.654 170.625C258.613 172.077 258.276 172.989 257.26 173.839C256.105 174.809 253.822 175.465 252.234 173.572C251.123 172.246 251.265 170.677 252.049 169.38C253.109 167.31 256.058 165.109 264.012 165.591C270.17 165.965 272.406 170.132 272.406 172.577V186.645C272.406 188.494 272.602 189.987 274.441 189.987C275.162 189.987 275.819 189.747 276.345 189.391C277.069 188.854 277.132 188.794 277.461 188.794C277.857 188.794 278.053 189.151 278.053 189.33C278.053 190.763 274.049 193.565 271.159 193.565C268.599 193.565 267.354 191.776 266.567 190.343C265.973 189.21 265.842 189.21 265.646 189.21C265.515 189.21 265.186 189.45 265.186 189.45C262.43 191.48 260.079 193.318 257.124 193.318C256.432 193.318 250.538 193.797 250.538 186.729C250.538 180.021 259.409 176.638 264.399 176.638C266.103 176.639 266.041 175.566 266.041 174.493ZM266.041 183.544V177.647C266.041 177.051 265.401 176.833 265.072 176.833C264.154 176.833 262.231 177.31 261.183 177.789C258.456 179.23 256.247 181.333 256.247 185.001C256.247 189.242 259.51 190.683 260.954 190.683C265.927 190.683 266.041 187.719 266.041 183.544Z" fill="#426787"/>
<path d="M244.339 159.063C244.339 157.208 242.904 155.713 241.048 155.713C239.074 155.713 237.698 157.328 237.698 159.003C237.698 160.738 239.137 162.234 241.048 162.234C243.023 162.234 244.339 160.618 244.339 159.063Z" fill="#426787"/>
<path d="M61.0892 189.323C61.0892 189.143 60.8932 188.784 60.4985 188.784C60.169 188.784 60.1065 188.844 59.3816 189.383C58.856 189.74 58.1995 189.979 57.478 189.979C55.9637 189.979 55.563 188.963 55.4707 187.571V161.677L55.5444 156.935L55.7484 153.887C55.7484 153.356 55.4002 152.787 54.8009 152.787C54.6567 152.787 54.0461 152.757 53.6707 153.501C52.7013 156.014 50.2415 157.801 47.3598 157.801L46.7139 157.831C45.9977 158.011 45.8262 158.321 45.8262 158.735C45.8262 159.384 46.4229 159.384 46.6023 159.384C48.8707 159.501 49.6501 159.62 49.6501 163.338V166.433C49.6342 166.661 49.476 166.891 49.2468 166.891C49.1272 166.891 48.7704 166.774 48.5305 166.653C47.5119 166.174 45.3571 165.634 43.4455 165.634C36.6854 165.634 28.9692 171.079 28.9692 180.35C28.9692 188.369 34.831 193.751 41.5911 193.751C45.001 193.751 47.0329 192.256 48.6508 190.94C48.8907 190.76 49.2475 190.521 49.4867 190.521C49.6342 190.521 49.7784 190.717 49.9445 190.924C50.7485 192.215 51.979 193.558 54.1963 193.558C57.0853 193.558 61.0892 190.753 61.0892 189.323ZM49.9053 174.969V186.994C49.9053 188.07 50.0661 191.349 45.0409 191.349C39.1193 191.349 35.3087 185.316 35.3087 178.558C35.3087 170.72 39.7293 166.051 43.8555 166.051C49.9 166.052 49.9053 172.275 49.9053 174.969Z" fill="#426787"/>
<path d="M189.276 192.676C189.276 192.139 188.977 191.84 187.482 191.66C184.908 191.301 184.908 190.641 184.908 187.291V166.395C184.91 166.395 184.913 166.395 184.916 166.395V163.993L185.017 157.448L185.221 154.401C185.221 153.87 184.872 153.3 184.275 153.3C184.128 153.3 183.518 153.27 183.142 154.014C182.173 156.528 179.713 158.314 176.834 158.314L176.189 158.344C175.473 158.524 175.298 158.834 175.298 159.248C175.298 159.897 175.897 159.897 176.074 159.897C178.282 160.011 179.065 160.185 179.105 163.617V187.351C179.105 190.641 179.105 191.301 176.531 191.66C175.215 191.84 174.736 192.077 174.736 192.616C174.736 193.395 175.336 193.395 176.055 193.395C177.31 193.395 178.027 193.155 181.976 193.155C185.446 193.155 186.642 193.395 188.256 193.395C188.677 193.396 189.276 193.396 189.276 192.676Z" fill="#426787"/>
<path d="M205.058 192.678C205.058 192.139 204.761 191.84 203.263 191.66C200.692 191.3 200.692 190.584 200.692 187.291V178.482C200.7 178.482 200.705 178.48 200.714 178.48V176.077L200.812 169.818C200.831 169.478 200.844 169.167 200.863 168.846L201.022 166.484C201.022 165.953 200.67 165.384 200.074 165.384C199.93 165.384 199.317 165.357 198.944 166.1C197.972 168.614 195.512 170.398 192.633 170.398L191.988 170.431C191.271 170.608 191.1 170.918 191.1 171.332C191.1 171.981 191.697 171.981 191.876 171.981C194.028 172.092 194.812 172.305 194.888 175.489V175.985V187.353C194.888 190.644 194.888 191.3 192.317 191.66C190.998 191.84 190.522 192.079 190.522 192.616C190.522 193.395 191.119 193.395 191.538 193.395C192.554 193.395 195.307 193.155 197.819 193.155C200.572 193.155 203.144 193.395 204.042 193.395C204.461 193.395 205.058 193.395 205.058 192.678Z" fill="#426787"/>
<path d="M248.282 192.678C248.282 192.139 247.985 191.84 246.487 191.66C243.917 191.3 243.917 190.584 243.917 187.291V178.482C243.925 178.482 243.93 178.48 243.939 178.48V176.077L244.036 169.818C244.055 169.478 244.069 169.167 244.088 168.846L244.246 166.484C244.246 165.953 243.897 165.384 243.298 165.384C243.154 165.384 242.544 165.357 242.168 166.1C241.195 168.614 238.736 170.398 235.857 170.398L235.212 170.431C234.495 170.608 234.324 170.918 234.324 171.332C234.324 171.981 234.921 171.981 235.1 171.981C237.252 172.092 238.036 172.305 238.112 175.489V175.985V187.353C238.112 190.644 238.112 191.3 235.541 191.66C234.223 191.84 233.747 192.079 233.747 192.616C233.747 193.395 234.343 193.395 234.763 193.395C235.781 193.395 238.532 193.155 241.043 193.155C243.796 193.155 246.368 193.395 247.266 193.395C247.685 193.395 248.282 193.395 248.282 192.678Z" fill="#426787"/>
</g>
<defs>
<filter id="filter0_d_1998_3378" x="0" y="0" width="307" height="201.763" filterUnits="userSpaceOnUse" color-interpolation-filters="sRGB">
<feFlood flood-opacity="0" result="BackgroundImageFix"/>
<feColorMatrix in="SourceAlpha" type="matrix" values="0 0 0 0 0 0 0 0 0 0 0 0 0 0 0 0 0 0 127 0" result="hardAlpha"/>
<feOffset dy="4"/>
<feGaussianBlur stdDeviation="2"/>
<feComposite in2="hardAlpha" operator="out"/>
<feColorMatrix type="matrix" values="0 0 0 0 0 0 0 0 0 0 0 0 0 0 0 0 0 0 0.25 0"/>
<feBlend mode="normal" in2="BackgroundImageFix" result="effect1_dropShadow_1998_3378"/>
<feBlend mode="normal" in="SourceGraphic" in2="effect1_dropShadow_1998_3378" result="shape"/>
</filter>
</defs>
</svg>
