<svg width="40" height="40" viewBox="0 0 40 40" fill="none" xmlns="http://www.w3.org/2000/svg">
<path d="M8.3335 5H18.3335C19.6596 5 20.9313 5.52678 21.869 6.46447C22.8067 7.40215 23.3335 8.67392 23.3335 10V16.6667H21.6668V10C21.6668 9.11594 21.3156 8.2681 20.6905 7.64298C20.0654 7.01786 19.2176 6.66667 18.3335 6.66667H8.3335C7.44944 6.66667 6.60159 7.01786 5.97647 7.64298C5.35135 8.2681 5.00016 9.11594 5.00016 10V31.6667C5.00016 32.5507 5.35135 33.3986 5.97647 34.0237C6.60159 34.6488 7.44944 35 8.3335 35H18.3335C19.2176 35 20.0654 34.6488 20.6905 34.0237C21.3156 33.3986 21.6668 32.5507 21.6668 31.6667V25H23.3335V31.6667C23.3335 32.9927 22.8067 34.2645 21.869 35.2022C20.9313 36.1399 19.6596 36.6667 18.3335 36.6667H8.3335C7.00741 36.6667 5.73564 36.1399 4.79796 35.2022C3.86028 34.2645 3.3335 32.9927 3.3335 31.6667V10C3.3335 8.67392 3.86028 7.40215 4.79796 6.46447C5.73564 5.52678 7.00741 5 8.3335 5ZM13.3335 20H32.0835L26.6668 14.5833L27.7668 13.3333L35.2668 20.8333L27.7668 28.3333L26.6668 27.0833L32.0835 21.6667H13.3335V20Z" fill="#1D2834"/>
</svg>
