<svg width="40" height="40" viewBox="0 0 40 40" fill="none" xmlns="http://www.w3.org/2000/svg">
<g clip-path="url(#clip0_1153_3336)">
<path fill-rule="evenodd" clip-rule="evenodd" d="M23.3333 3.33337C25.0437 3.33337 26.6887 3.99077 27.928 5.16958C29.1673 6.34839 29.9061 7.95844 29.9917 9.66671L30 10V30C30 31.7104 29.3426 33.3554 28.1638 34.5947C26.985 35.834 25.3749 36.5729 23.6667 36.6584L23.3333 36.6667H16.6667C14.9563 36.6667 13.3113 36.0093 12.072 34.8305C10.8327 33.6517 10.0939 32.0416 10.0083 30.3334L10 30V10C10 8.28964 10.6574 6.64466 11.8362 5.40535C13.015 4.16605 14.6251 3.42723 16.3333 3.34171L16.6667 3.33337H23.3333ZM20 25C19.1159 25 18.2681 25.3512 17.643 25.9764C17.0179 26.6015 16.6667 27.4493 16.6667 28.3334C16.6667 29.2174 17.0179 30.0653 17.643 30.6904C18.2681 31.3155 19.1159 31.6667 20 31.6667C20.8841 31.6667 21.7319 31.3155 22.357 30.6904C22.9821 30.0653 23.3333 29.2174 23.3333 28.3334C23.3333 27.4493 22.9821 26.6015 22.357 25.9764C21.7319 25.3512 20.8841 25 20 25ZM20 16.6667C19.1159 16.6667 18.2681 17.0179 17.643 17.643C17.0179 18.2681 16.6667 19.116 16.6667 20C16.6667 20.8841 17.0179 21.7319 17.643 22.3571C18.2681 22.9822 19.1159 23.3334 20 23.3334C20.8841 23.3334 21.7319 22.9822 22.357 22.3571C22.9821 21.7319 23.3333 20.8841 23.3333 20C23.3333 19.116 22.9821 18.2681 22.357 17.643C21.7319 17.0179 20.8841 16.6667 20 16.6667ZM20 8.33337C19.1159 8.33337 18.2681 8.68456 17.643 9.30968C17.0179 9.93481 16.6667 10.7827 16.6667 11.6667C16.6667 12.5508 17.0179 13.3986 17.643 14.0237C18.2681 14.6489 19.1159 15 20 15C20.8841 15 21.7319 14.6489 22.357 14.0237C22.9821 13.3986 23.3333 12.5508 23.3333 11.6667C23.3333 10.7827 22.9821 9.93481 22.357 9.30968C21.7319 8.68456 20.8841 8.33337 20 8.33337Z" fill="#1D2834"/>
</g>
<defs>
<clipPath id="clip0_1153_3336">
<rect width="40" height="40" fill="white"/>
</clipPath>
</defs>
</svg>
