<svg width="26" height="26" viewBox="0 0 26 26" fill="none" xmlns="http://www.w3.org/2000/svg">
<g clip-path="url(#clip0_967_3799)">
<path d="M12.0637 0.387602L13.6307 0.386964C14.4373 0.386751 14.5913 0.250041 14.7656 1.18777L14.9093 1.98171C14.9415 2.14901 15.1641 3.35213 15.2412 3.40344C15.434 3.53185 15.7098 3.59608 15.9293 3.67146L17.5017 4.34309C17.5294 4.35467 17.5791 4.38214 17.6075 4.38549C17.6548 4.3911 19.3444 3.35252 19.5273 3.24466C19.8367 3.06222 20.078 2.8039 20.4307 3.05607L20.4489 3.06932C20.6057 3.18197 20.742 3.34501 20.8793 3.48178L22.2201 4.82221C22.8147 5.40746 22.7422 5.39299 22.3319 6.04596L21.176 7.83552C21.1498 7.87639 21.1033 7.92844 21.0973 7.97525C21.2314 8.28117 21.4135 8.56988 21.5539 8.8749C21.7689 9.34157 21.9346 9.82665 22.1142 10.3075C22.148 10.398 23.5717 10.6653 23.7517 10.7005L24.3415 10.8204C24.6016 10.8751 25.0569 10.9445 25.1475 11.2456L25.1617 11.2952C25.1934 11.4346 25.176 11.6083 25.1767 11.7522L25.178 13.6372C25.1772 13.9698 25.2489 14.4498 24.8593 14.5937C24.5552 14.7061 24.1973 14.7481 23.8783 14.8065L22.3358 15.0995C22.2756 15.1114 22.1393 15.1321 22.0914 15.1666C22.0696 15.1824 21.9109 15.7102 21.8792 15.795L21.4097 16.9057C21.3072 17.119 21.2053 17.3317 21.0738 17.5289L22.3427 19.4775C22.4856 19.678 22.7296 19.9426 22.615 20.2089L22.608 20.2244C22.482 20.5101 22.1701 20.7337 21.9569 20.9539L21.0436 21.8814C20.8482 22.0766 20.6533 22.2857 20.4349 22.4554C20.0116 22.7845 19.6505 22.3826 19.2564 22.1247L18.0081 21.3659C17.8715 21.2845 17.7291 21.2084 17.6045 21.109C17.5378 21.1306 17.466 21.1772 17.4028 21.2088L17.0461 21.3809C16.7038 21.5491 16.3555 21.7061 15.9951 21.8315L15.3919 22.0113C15.3601 22.0205 15.2398 22.0448 15.2192 22.0644C15.1684 22.1131 15.1022 22.6071 15.0835 22.7056L14.8529 23.8901C14.8001 24.1804 14.7672 24.4918 14.6804 24.7736C14.529 25.2653 13.8837 25.1511 13.4808 25.1521L11.6024 25.1526C10.7766 25.1507 10.8779 24.6953 10.7486 24.0121L10.4518 22.5827C10.4033 22.3729 10.4275 22.1191 10.2338 22.0419L9.05599 21.6235C8.68779 21.475 8.33835 21.298 7.98946 21.1092C7.7301 21.2216 7.48297 21.4032 7.24243 21.553L6.19161 22.1959C5.99354 22.319 5.79107 22.4684 5.57324 22.5534L5.48251 22.5872C5.17155 22.6782 4.76467 22.1251 4.57766 21.9379L3.82681 21.1882C3.58232 20.9447 3.31154 20.7113 3.08365 20.453C2.80163 20.1332 2.95878 19.8964 3.16913 19.578L3.50421 19.0774C3.84087 18.5755 4.18821 18.062 4.48233 17.5343C4.28428 17.1157 4.03571 16.7257 3.85304 16.2986L3.53947 15.4227C3.51715 15.3518 3.49184 15.2328 3.44345 15.1762C3.34725 15.0637 1.14778 14.7433 0.785558 14.614C0.321841 14.4486 0.380598 14.106 0.379134 13.7015L0.379646 11.8968C0.380028 11.7248 0.368704 11.541 0.394682 11.371L0.401373 11.3268C0.471888 10.8581 1.02463 10.844 1.39556 10.7767L3.20187 10.4352C3.50708 10.355 3.49905 10.1925 3.59902 9.91458L3.83011 9.28442C3.91865 9.05581 4.02265 8.82804 4.13503 8.60995L4.37783 8.16864C4.51601 7.93223 4.46097 7.95275 4.30376 7.69813L3.38932 6.28006C3.24585 6.05988 2.8843 5.66014 2.92871 5.38017L2.93138 5.36505C2.9672 5.14501 3.18692 4.98817 3.3399 4.8457L4.66683 3.48714C5.03291 3.11862 5.23832 2.72461 5.77665 3.06902L7.3327 4.03382C7.53263 4.15245 7.7324 4.27792 7.94155 4.37915L10.3292 3.44283C10.417 3.26212 10.4498 3.0066 10.4901 2.8088L10.6679 1.8797C10.7171 1.58259 10.7884 0.63715 11.0724 0.479104L11.088 0.470586C11.2096 0.400829 11.3259 0.399 11.4621 0.392789L12.0637 0.387602ZM12.4661 4.6956C12.3165 4.70009 12.1652 4.70136 12.0172 4.72539L11.3911 4.81003C8.42055 5.28744 5.83544 7.61588 5.04878 10.5208C4.19153 13.6863 5.29267 17.2812 7.98737 19.2258C9.13839 20.0564 10.5565 20.6252 11.9712 20.764C12.3398 20.8002 12.7111 20.7882 13.081 20.7868C13.8944 20.763 14.7421 20.6188 15.5105 20.3469C17.5736 19.6169 19.4991 17.8022 20.2538 15.7171C20.4697 15.1207 20.6208 14.4629 20.7145 13.8362L20.7693 13.3593C20.7993 13.1209 20.7866 12.8676 20.7861 12.6274C20.7791 9.27589 18.5575 6.20091 15.3959 5.13922C14.8399 4.95253 14.2828 4.80958 13.6992 4.74143L12.4661 4.6956Z" fill="#F5F7FA"/>
<path d="M6.45753 15.6427L6.45454 15.6324C6.40783 15.4773 6.33157 15.3243 6.27578 15.1712C4.69514 10.8335 7.56254 6.20716 12.1634 5.80004C15.9396 5.46587 19.4869 8.37985 19.7237 12.2174C19.8376 14.0634 19.2065 16.0547 17.9666 17.4288C16.3176 19.2561 13.6952 20.0372 11.3047 19.5244L10.7545 19.3766C8.94862 18.8111 7.54897 17.7269 6.64593 16.0223L6.45753 15.6427Z" fill="#F5F7FA"/>
<path d="M12.6334 6.80298C14.1569 6.67313 14.5343 8.83259 13.1277 9.29362L13.1251 10.0166L14.3629 10.0158C14.8806 10.0175 14.9159 10.5126 14.5934 10.6287L14.5785 10.6338C14.5136 10.6568 14.4473 10.6504 14.3795 10.6493L13.1239 10.6464L13.1286 15.4843C13.1289 15.6988 13.1158 15.9246 13.146 16.1371C13.1827 16.1515 13.2511 16.1374 13.2917 16.1344C14.7203 16.0276 15.7686 15.0164 16.28 13.7114C16.334 13.5736 16.5427 13.0317 16.47 12.9016C16.4177 12.8079 15.672 13.2977 15.5076 13.0277C15.2616 12.6239 15.8416 12.4378 16.1366 12.261C16.4775 12.0567 16.8086 11.841 17.1656 11.6651C17.4833 11.9736 18.0746 13.2301 17.9829 13.5658C17.9498 13.6871 17.8157 13.787 17.6887 13.7447C17.5353 13.6935 17.314 13.22 17.2352 13.0753L17.1982 13.4167C16.9973 15.0745 16.1187 16.2805 14.7386 17.1376L12.9902 18.1133C12.915 18.1534 12.8572 18.2041 12.7694 18.1933C12.6745 18.1609 12.5825 18.1076 12.4933 18.0616L10.9982 17.2332C9.61765 16.4306 8.65003 15.2126 8.38449 13.5969C8.35474 13.4159 8.33772 13.2331 8.29076 13.0554L8.09908 13.3871C7.99847 13.5563 7.83288 13.8685 7.61634 13.6474C7.33492 13.3601 8.17009 11.876 8.4043 11.6496C8.51609 11.6806 8.62159 11.7488 8.71915 11.8097L9.10567 12.0524C9.37536 12.2178 9.95127 12.4882 10.1149 12.7644C10.1794 12.8733 10.0235 13.0838 9.92831 13.1198C9.77635 13.1771 9.52792 13.0448 9.38804 12.9887L9.04489 12.8588C9.30464 14.5286 10.6479 16.1358 12.4299 16.1577C12.4621 15.9785 12.446 15.778 12.4463 15.5956L12.4522 10.6511C12.3771 10.6347 12.2811 10.6451 12.2031 10.645L11.4069 10.6445C11.246 10.6446 11.0037 10.6889 10.8767 10.5614C10.6705 10.3544 10.8074 10.0909 11.0734 10.0324C11.2357 9.99674 11.4235 10.0144 11.5889 10.0146L12.4532 10.0197C12.4837 9.86713 12.4295 9.53092 12.46 9.31498L12.4625 9.29791C11.1213 8.76871 11.2852 7.02297 12.6334 6.80298Z" fill="#36536E"/>
<path d="M12.7456 7.49072C13.6409 7.52641 13.5625 8.57138 12.8314 8.65652C11.975 8.63151 11.9453 7.56099 12.7456 7.49072Z" fill="#F5F7FA"/>
</g>
<defs>
<clipPath id="clip0_967_3799">
<rect width="25.5469" height="25.5469" fill="white"/>
</clipPath>
</defs>
</svg>
