<svg width="26" height="26" viewBox="0 0 26 26" fill="none" xmlns="http://www.w3.org/2000/svg">
<g clip-path="url(#clip0_1144_3480)">
<path d="M13.0145 25.3949C12.8807 25.4051 12.7387 25.3915 12.5967 25.3869C7.2976 25.2163 2.57081 21.5286 1.05583 16.4347C-0.978289 9.59541 3.39116 2.39299 10.2874 0.844122C10.8714 0.712949 11.4582 0.608883 12.0562 0.567978L12.7393 0.527815C12.8135 0.525896 12.9021 0.51478 12.9748 0.52749L13.0009 2.67508L12.9648 2.68488L12.9531 2.68244C12.7171 2.71449 12.4718 2.71944 12.2338 2.74045C8.93875 3.03145 5.83647 5.00783 4.1664 7.86229C1.57579 12.2901 2.71453 17.8819 6.78294 21.0018C8.54621 22.3541 10.7413 23.209 12.9771 23.1938L12.9845 23.1961C13.0004 23.3895 12.9888 25.3532 13.0145 25.3949Z" fill="#F5F7FA"/>
<path d="M12.9724 0.520701C13.3201 0.505915 13.6705 0.547042 14.014 0.57261C18.099 0.876607 21.7799 3.31161 23.801 6.84316C25.5485 9.89664 25.9006 13.5874 24.7866 16.928C23.9792 19.349 22.2987 21.5709 20.2334 23.0485C18.2765 24.4485 15.993 25.2225 13.6037 25.3766L13.0225 25.3867C12.9887 25.3535 13.0003 23.3898 12.9886 23.1964C16.909 23.214 20.7296 20.6579 22.3155 17.0944C23.5988 14.2107 23.4948 10.9627 22.0065 8.17678C20.2781 4.94112 16.6981 2.69715 13.0126 2.67751L12.9724 0.520701Z" fill="#F5F7FA"/>
<path d="M12.9675 23.1948C10.7413 23.2089 8.54628 22.354 6.783 21.0017C2.71459 17.8818 1.57586 12.29 4.16646 7.86219C5.83654 5.00772 8.93882 3.03135 12.2339 2.74035C12.4718 2.71934 12.7171 2.71438 12.9532 2.68234L12.9649 2.68066L12.9979 3.35781C12.9964 3.40304 13.0046 3.49938 12.9865 3.53575C12.3718 3.65707 12.4826 4.07911 12.4816 4.55274C12.4805 5.01887 12.434 5.23629 12.9637 5.40362L12.9827 5.43287C12.9691 5.51518 12.9307 6.04138 12.9664 6.09449L12.9373 6.10658L12.899 8.32719L12.8954 8.34106C12.8847 8.40514 12.8997 8.51158 12.866 8.56058L12.7301 8.57089L12.7278 9.04489V11.5352L12.7478 11.6731C12.7886 11.6865 12.8304 11.6834 12.8727 11.6832L12.893 14.2761C12.8402 14.29 12.7951 14.2978 12.7466 14.3044C12.7197 14.4763 12.7282 14.6545 12.728 14.8279L12.7269 17.631L12.7754 17.624C12.8064 17.7608 12.8241 17.8846 12.8403 18.025L12.9634 19.3417L13.0263 19.3644L13.0474 20.5725C13.0245 20.5827 13.0038 20.5862 12.9791 20.59C12.3896 20.664 12.4795 21.2638 12.4806 21.7021C12.4815 22.0941 12.5034 22.3466 12.9744 22.4256L12.9675 23.1948Z" fill="#36536E"/>
<path d="M5.32847 7.80811C5.57283 7.84705 5.98868 8.07405 6.05271 8.31231C6.11482 8.54352 5.91027 8.84973 5.68115 8.89792C5.50961 8.89655 5.008 8.57191 4.95115 8.41621C4.85639 8.15667 5.10036 7.88585 5.32847 7.80811Z" fill="#F5F7FA"/>
<path d="M5.62361 17.103C6.00198 17.0783 6.31997 17.5568 5.9056 17.8961C5.75788 18.0171 5.6134 18.1091 5.42912 18.1622C5.1351 18.1884 4.67072 17.7058 5.12225 17.3694C5.27672 17.2543 5.43745 17.1554 5.62361 17.103Z" fill="#F5F7FA"/>
<path d="M8.18269 4.96611C8.55091 4.94037 8.90059 5.55701 8.85341 5.81788L8.85021 5.83362C8.81588 6.00841 8.65643 6.14201 8.49398 6.19549C8.26643 6.23911 8.14242 6.03964 8.03192 5.87191C7.78868 5.50263 7.69291 5.1598 8.18269 4.96611Z" fill="#F5F7FA"/>
<path d="M8.34609 19.5894C8.54632 19.587 8.77316 19.7259 8.84024 19.9169C8.93479 20.1859 8.57506 20.7923 8.32425 20.8813C8.12107 20.8573 7.88611 20.7138 7.8109 20.5195C7.72859 20.3069 8.13473 19.6693 8.34609 19.5894Z" fill="#F5F7FA"/>
<path d="M4.70662 12.4819C4.70723 12.4842 4.76329 12.4837 4.77502 12.4839L4.88724 12.4863C5.20381 12.4954 5.4989 12.6479 5.50088 13.0046C5.50322 13.4241 5.13988 13.4637 4.83702 13.4633L4.27557 13.4613C4.04501 13.4617 3.79443 13.5017 3.61172 13.331C3.32203 13.0603 3.4787 12.6037 3.84658 12.4999C3.93984 12.4736 4.06303 12.4842 4.15968 12.4837L4.70662 12.4819Z" fill="#F5F7FA"/>
<path d="M12.9372 6.10693L12.899 8.32755L12.8953 8.34141C12.8846 8.4055 12.8996 8.51193 12.8659 8.56094L12.7301 8.57125L12.7277 9.04524C12.7275 8.95459 12.7486 8.64376 12.7161 8.58013C11.468 8.27082 11.4539 6.53497 12.5729 6.18483C12.6931 6.1472 12.8147 6.13243 12.9372 6.10693Z" fill="#F5F7FA"/>
<path d="M12.7355 11.5356L12.7477 11.6736C12.7885 11.6869 12.8303 11.6838 12.8726 11.6836L12.8929 14.2766C12.8401 14.2905 12.795 14.2982 12.7465 14.3048C12.7149 14.2996 12.6878 14.2903 12.6579 14.2785C11.4529 13.7998 11.3873 12.2859 12.5393 11.7394C12.6013 11.71 12.6673 11.6995 12.7303 11.6736L12.7355 11.5356Z" fill="#F5F7FA"/>
<path d="M12.9633 19.342C12.5698 19.3204 12.1971 19.1834 11.832 19.0433C10.044 18.3575 9.31102 17.7994 8.77589 15.9562C8.61481 16.0859 8.31952 16.4201 8.20729 16.4819C7.99512 16.5988 7.70816 16.3561 7.79169 16.127C7.82953 16.0232 7.90407 15.9274 7.96486 15.8362L8.6595 14.7485C9.02426 14.1725 9.10551 13.9657 9.609 14.6751L9.89053 15.049C10.1662 15.4245 10.0923 15.5933 9.65049 15.6819C9.75546 16.5247 10.1949 17.4091 10.9994 17.7654C11.4195 17.9515 12.204 18.1534 12.6643 17.9767C12.698 17.8614 12.7012 17.7488 12.7188 17.6312L12.7753 17.6243C12.8063 17.7611 12.8241 17.8849 12.8403 18.0252L12.9633 19.342Z" fill="#F5F7FA"/>
<path d="M13.0127 2.67529C16.6982 2.69707 20.2781 4.94104 22.0066 8.17669C23.4948 10.9627 23.5988 14.2106 22.3155 17.0943C20.7296 20.6579 16.9091 23.2139 12.9845 23.1938L12.9771 23.1951L12.973 22.426C12.5032 22.3469 12.4814 22.0945 12.4805 21.7024C12.4794 21.2641 12.3894 20.6643 12.979 20.5903C13.0037 20.5866 13.0244 20.5831 13.0473 20.5729L13.0305 19.3647L12.9633 19.342L12.8402 18.0253C12.824 17.8849 12.8063 17.7611 12.7753 17.6243L12.7188 17.6313L12.7278 14.8282C12.728 14.6548 12.7196 14.4766 12.7434 14.3047C12.795 14.2981 12.8401 14.2903 12.887 14.2764L12.8769 11.6835C12.8303 11.6837 12.7885 11.6868 12.7477 11.6734L12.7355 11.5355L12.7274 9.04521L12.73 8.57121L12.8659 8.5609C12.8996 8.5119 12.8846 8.40546 12.8953 8.34138L12.8977 8.32751L12.9329 6.1069L12.9495 6.09482C12.9306 6.0417 12.969 5.5155 12.9826 5.43319L12.9637 5.40394C12.4339 5.23661 12.4804 5.01919 12.4815 4.55306C12.4825 4.07943 12.3717 3.65739 12.9764 3.53607C13.0045 3.49971 12.9963 3.40336 12.9977 3.35813L12.9715 2.68509L13.0127 2.67529Z" fill="#36536E"/>
<path d="M20.6442 7.80951C20.9088 7.78574 21.1683 8.23104 21.0167 8.44021C20.8848 8.62216 20.5887 8.82153 20.3675 8.85972C20.0946 8.82889 19.8238 8.51318 19.969 8.24064C20.0836 8.02558 20.4212 7.87253 20.6442 7.80951Z" fill="#F5F7FA"/>
<path d="M20.2142 17.1285C20.4754 17.0931 20.9585 17.3786 21.0558 17.5532C21.1664 17.7513 20.8911 18.0821 20.7311 18.1608C20.4983 18.2122 20.0252 17.9345 19.9328 17.7186C19.8248 17.4667 19.9754 17.2206 20.2142 17.1285Z" fill="#F5F7FA"/>
<path d="M17.6088 5.00364C17.8346 4.97885 18.2152 5.16884 18.1723 5.44158L18.1536 5.53538C18.0844 5.77217 17.9228 6.07533 17.699 6.19147C17.3216 6.26038 17.0451 5.90583 17.1865 5.56254C17.27 5.36003 17.3989 5.09251 17.6088 5.00364Z" fill="#F5F7FA"/>
<path d="M17.5336 19.6174C17.5941 19.6137 17.6747 19.6053 17.7323 19.6282C17.8379 19.6703 18.2642 20.3379 18.1892 20.5125C18.1249 20.6621 17.954 20.7777 17.8082 20.8368C17.3623 20.9523 16.7361 19.7865 17.5336 19.6174Z" fill="#F5F7FA"/>
<path d="M12.9791 20.5903C13.4215 20.5977 13.52 20.9116 13.5195 21.2628L13.5163 21.8712C13.5098 22.2008 13.301 22.3911 12.9744 22.426C12.5034 22.347 12.4815 22.0945 12.4806 21.7024C12.4795 21.2641 12.3896 20.6643 12.9791 20.5903Z" fill="#F5F7FA"/>
<path d="M12.9764 3.53613C13.2246 3.57248 13.4328 3.68943 13.495 3.94206L13.5 3.96113C13.5472 4.15399 13.5205 4.39205 13.5202 4.59176C13.5196 4.98127 13.5571 5.29949 13.038 5.39516L12.9636 5.404C12.4339 5.23668 12.4804 5.01925 12.4815 4.55312C12.4825 4.07949 12.3717 3.65745 12.9764 3.53613Z" fill="#F5F7FA"/>
<path d="M20.942 12.4833C21.1796 12.468 22.1518 12.4377 22.2864 12.5504L22.2994 12.5616C22.3937 12.6415 22.4626 12.7358 22.4847 12.8596L22.4915 12.8975C22.5463 13.2054 22.3633 13.4162 22.0677 13.456L21.2708 13.4607C21.0892 13.4604 20.8779 13.4969 20.716 13.3974C20.2835 13.1313 20.3977 12.5698 20.942 12.4833Z" fill="#F5F7FA"/>
<path d="M12.9494 6.09473C13.0476 6.10082 13.1452 6.10316 13.2411 6.12586L13.2602 6.13012C14.6188 6.45081 14.53 8.2929 13.2655 8.57158L13.2693 11.6589C14.3648 12.1406 14.705 13.3665 13.6545 14.1024C13.5354 14.1859 13.4038 14.269 13.2594 14.2988L13.27 16.6933C13.2698 16.9272 13.2117 17.6977 13.3019 17.8763C13.4917 18.0406 13.9235 18.0039 14.1555 17.9871C14.7096 17.9471 15.3977 17.6504 15.7645 17.2284C16.1162 16.8237 16.2835 16.2494 16.3696 15.73C15.5939 15.5507 16.0602 15.0918 16.3338 14.7202L16.5202 14.4441C16.6418 14.2593 16.7202 14.2255 16.9428 14.2319C17.2455 14.4611 17.6317 15.2067 17.8482 15.5479L18.1263 15.9677C18.295 16.2253 18.2801 16.4313 17.949 16.4945C17.7928 16.4512 17.6784 16.3509 17.554 16.2518L17.2252 15.9858C16.6927 18.0156 15.4856 18.6134 13.5401 19.2346C13.3851 19.284 13.1889 19.3569 13.0262 19.3646L12.9633 19.3419L12.8402 18.0252C12.824 17.8849 12.8063 17.7611 12.7753 17.6243L12.7188 17.6312L12.7278 14.8281C12.728 14.6547 12.7196 14.4765 12.7434 14.3046C12.795 14.298 12.8401 14.2903 12.887 14.2763L12.8769 11.6834C12.8303 11.6836 12.7885 11.6867 12.7477 11.6734L12.7355 11.5354L12.7274 9.04512L12.73 8.57113L12.8659 8.56082C12.8996 8.51181 12.8846 8.40538 12.8953 8.34129L12.8977 8.32743L12.9329 6.10681L12.9494 6.09473Z" fill="#F5F7FA"/>
<path d="M11.4766 10.2578V9.75H14.5488V10.2578H11.4766Z" fill="#F5F7FA"/>
</g>
<defs>
<clipPath id="clip0_1144_3480">
<rect width="26" height="26" fill="white"/>
</clipPath>
</defs>
</svg>
