<svg width="30" height="30" viewBox="0 0 30 30" fill="none" xmlns="http://www.w3.org/2000/svg">
<g clip-path="url(#clip0_1144_3410)">
<path d="M15.4974 15.5229L15.5493 15.5151C15.7917 15.8065 16.0616 16.1039 16.2134 16.4538C15.8366 17.0238 15.8466 16.5026 15.8509 17.3641L15.891 18.8086C15.9047 19.0491 15.8923 19.2927 15.9212 19.5321L14.7985 19.5342L14.2548 19.5412C14.2839 19.1708 14.2703 18.7987 14.2811 18.4277L14.3117 17.0864C14.3112 16.6506 14.1616 16.798 14.0145 16.4821C14.0983 16.2505 14.2689 16.0575 14.4062 15.8568C14.6403 15.5145 14.5164 15.5318 14.9244 15.5354L15.4974 15.5229Z" fill="#D9D9D9"/>
<path d="M14.6782 6.2417L15.8711 6.24352C16.9292 6.27252 18.9246 6.55734 19.6681 7.34338C18.6287 7.85736 16.7171 8.09109 15.5868 8.12637L14.4726 8.11582C13.5939 8.07516 12.3742 7.94086 11.5202 7.6773L10.5486 7.35603C11.3615 6.60211 12.716 6.36873 13.7768 6.28828L14.6782 6.2417Z" fill="#D9D9D9"/>
<path d="M7.2576 28.3783C7.77827 28.3719 8.24924 28.3922 8.75936 28.5246C9.47438 28.7104 10.1876 29.0536 10.9357 29.0756C11.913 29.1044 12.4178 28.9752 13.3614 28.6561C14.7967 28.1707 15.6918 28.3689 17.0335 28.8007C18.0148 29.1166 18.994 29.184 19.9949 28.8969C21.3672 28.5032 21.9986 28.121 23.54 28.5243C24.9628 28.8966 25.593 29.2866 27.1069 28.9599C27.6375 28.8453 29.0474 28.2638 29.5331 28.4794C29.7744 28.5864 29.832 29.2031 29.554 29.2978L29.5385 29.3028C29.4039 29.3489 29.2538 29.3336 29.1137 29.3406C28.5493 29.3688 27.8889 29.7086 27.3193 29.8372C26.8928 29.9335 26.4309 29.8838 25.9973 29.8838L25.3591 29.8832C24.4441 29.8813 23.7884 29.4592 22.9069 29.2964C21.4372 29.0766 20.6361 29.8804 19.2579 29.8832L17.9366 29.8829C16.8951 29.8807 15.9974 29.2473 14.9397 29.2608C14.1335 29.2711 13.4368 29.6028 12.6757 29.8119C12.2671 29.9241 11.8398 29.8835 11.421 29.8837L10.6526 29.8833C9.98842 29.8821 9.70506 29.7582 9.08198 29.5451C8.0628 29.1965 7.28497 29.1577 6.23303 29.5088C5.66659 29.6979 5.26973 29.8811 4.66997 29.8828L4.03101 29.8835C3.59067 29.8835 3.11801 29.9353 2.68448 29.8412C2.08022 29.7099 1.51521 29.4311 0.900824 29.3341C0.761928 29.3122 0.506381 29.3047 0.388129 29.2228C0.204303 29.0954 0.237674 28.6907 0.3543 28.538C0.622691 28.1867 2.70112 28.9499 3.12006 29.0139C4.33091 29.1989 4.95668 28.9673 6.0937 28.6088C6.48305 28.486 6.85202 28.4153 7.2576 28.3783Z" fill="#D9D9D9"/>
<path d="M7.08468 26.6795C7.91073 26.6579 8.44517 26.7113 9.25101 26.9638C9.99099 27.1957 10.6901 27.4178 11.4771 27.3693C12.478 27.3077 13.3373 26.8213 14.3033 26.7012C15.1184 26.5997 15.9402 26.7039 16.7212 26.9456L17.536 27.2061C18.1844 27.3803 18.8641 27.4049 19.5264 27.2998L19.7393 27.2567C20.4531 27.1274 21.1182 26.7521 21.8498 26.6996C22.7356 26.636 23.5294 26.7169 24.379 27.0022C24.6911 27.107 25.0191 27.272 25.346 27.3179L25.5469 27.3486C25.9793 27.4288 26.5379 27.3921 26.9597 27.291C27.5504 27.1496 29.0272 26.5098 29.6202 26.6928C29.8222 26.7551 29.8107 27.1344 29.7586 27.2849L29.7514 27.3047C29.7278 27.3819 29.6917 27.4899 29.6024 27.5113L29.5752 27.5151C29.4206 27.5372 29.2628 27.5338 29.1075 27.5508C28.3496 27.6343 27.6776 28.0815 26.9262 28.1947L26.7353 28.2272C25.2344 28.3718 24.7597 27.9809 23.4363 27.6524L22.9508 27.5775C22.0815 27.5063 21.4682 27.6185 20.6434 27.8964C19.4592 28.2953 18.5153 28.4288 17.2616 28.0457L16.5342 27.8028C15.5086 27.4911 14.4808 27.4742 13.4536 27.7993C13.1248 27.9034 12.806 28.0371 12.4732 28.1293C11.6144 28.3673 10.605 28.2918 9.76317 28.0401C8.18173 27.5674 7.48376 27.2869 5.81548 27.8643C4.64308 28.27 3.81761 28.4679 2.54888 28.0672L1.55868 27.7148C1.26555 27.6234 0.987026 27.577 0.687037 27.5214L0.490772 27.495C0.154989 27.4379 0.181516 26.9329 0.322954 26.7574C0.395679 26.6672 0.540391 26.6834 0.64458 26.6823C1.64186 26.6723 2.26419 27.144 3.14946 27.3192C4.68779 27.6237 5.61272 26.8199 7.08468 26.6795Z" fill="#D9D9D9"/>
<path d="M18.7936 14.6543C18.8967 14.7101 19.0154 14.736 19.1267 14.7705L21.2549 15.38C22.1137 15.6077 23.0225 15.7505 23.7155 16.3522C24.3438 16.8977 24.6442 17.6477 24.7095 18.4644L24.7486 19.542L22.7702 19.5336L16.7861 19.539C16.8874 19.3781 16.9498 19.1531 17.0206 18.9737L18.7936 14.6543Z" fill="#D9D9D9"/>
<path d="M11.4308 14.5679L11.4538 14.5898C11.4829 14.7176 11.5423 14.8453 11.5913 14.9667L13.1569 18.8625C13.2428 19.0835 13.3173 19.338 13.4434 19.5392L7.34246 19.5339L5.29134 19.5413C5.21551 17.4239 5.69787 16.2834 7.85949 15.6248L10.9087 14.7378C11.0745 14.6828 11.2561 14.6421 11.4161 14.5742L11.4308 14.5679Z" fill="#D9D9D9"/>
<path d="M10.9312 8.29773C11.0628 8.35328 11.2002 8.38621 11.3379 8.42295L12.3779 8.65721C14.2406 9.07076 16.6712 8.98562 18.5303 8.52174C18.7998 8.45453 19.082 8.39436 19.3395 8.29053L19.3854 8.37736C19.7093 8.96635 19.8512 9.71365 19.4665 10.3052L19.4521 10.3272C19.1919 10.7286 19.0438 10.4136 18.8696 10.9424C18.7607 11.2729 18.5161 11.207 18.358 11.6605L18.2386 11.9656C18.151 12.1801 18.0372 12.3841 17.9307 12.5896C17.7562 12.8726 17.5775 13.1404 17.3572 13.3908C16.403 14.4756 15.1417 15.0241 13.8333 14.2724C12.915 13.7448 12.0112 12.5788 11.7474 11.5383L11.6844 11.2625C11.6651 11.173 11.6681 11.1788 11.5827 11.1372C10.9958 10.8508 10.2174 9.58393 10.692 8.95352L10.706 8.93559C10.7673 8.85607 10.8528 8.80522 10.9349 8.74949C10.8916 8.61004 10.9121 8.44041 10.9312 8.29773Z" fill="#D9D9D9"/>
<path d="M29.2282 20.292C29.3724 20.2695 29.541 20.2804 29.6859 20.2911L29.6338 20.5004C29.5333 20.8378 29.2229 21.1209 29.0141 21.3934L28.7499 21.7555C28.6226 21.931 28.6039 21.9721 28.3846 21.9701L2.27056 21.969C1.99501 21.9691 1.70225 21.9906 1.42979 21.959C1.33713 21.8974 1.26991 21.7459 1.20143 21.6557L0.717531 20.9636C0.643299 20.8579 0.323359 20.439 0.407557 20.2957L29.2282 20.292Z" fill="#D9D9D9"/>
<path d="M14.7476 0.122225L14.7902 0.117429C15.7986 0.103379 17.3075 0.706686 18.1979 1.1226C19.5664 1.76173 21.7437 3.26494 21.7499 4.85368C21.7533 5.73139 20.923 6.20109 20.3589 6.73154C20.2509 6.83314 20.0572 6.58031 19.907 6.48C18.6309 5.62818 16.6802 5.456 15.1911 5.45099L14.4517 5.45444C13.0166 5.48059 10.811 5.87807 9.82682 6.89713C9.3003 6.2973 8.3158 5.9042 8.25996 4.99394C8.21555 4.26972 8.65149 3.60058 9.11145 3.08058C10.2861 1.75256 11.9498 0.916053 13.6214 0.399116L14.3258 0.210644C14.4653 0.176848 14.6039 0.131521 14.7476 0.122225ZM14.8497 1.32426C14.463 1.35799 14.1234 1.54278 13.8741 1.83975L13.7692 1.98498C13.0814 3.07246 13.9479 4.34291 15.1868 4.23889C16.1353 4.11242 16.7628 3.03897 16.3238 2.16377L16.3132 2.14239C16.0771 1.6688 15.4014 1.23212 14.8497 1.32426Z" fill="#D9D9D9"/>
<path d="M14.9211 2.15522C14.9779 2.15288 15.0308 2.15027 15.0864 2.16361L15.1914 2.18762C15.8528 2.34446 15.7484 3.358 15.062 3.43661C14.6786 3.47305 14.2694 3.11993 14.35 2.71632L14.3544 2.69547C14.4159 2.37716 14.6095 2.23171 14.9211 2.15522Z" fill="#D9D9D9"/>
<path d="M6.31359 22.7552L28.0965 22.749C28.0314 22.7961 27.9804 22.8987 27.9362 22.9654L26.3072 25.2393C26.005 25.6637 25.723 26.1149 25.3933 26.5179C25.2603 26.4276 25.0809 26.373 24.931 26.3129C24.0118 25.9446 23.2696 25.8588 22.3059 25.8668C21.8103 25.8883 21.3434 25.9622 20.8666 26.1036C20.2968 26.2724 19.7623 26.5176 19.1601 26.5553C18.2126 26.6146 17.7887 26.4584 16.9228 26.1696C15.6772 25.7542 14.3268 25.763 13.0799 26.1819C12.2324 26.4665 11.6036 26.679 10.6787 26.5444C10.1217 26.4633 9.60879 26.2373 9.07377 26.0747C7.79461 25.6859 5.84287 25.868 4.6417 26.5156L4.63075 26.5217C4.52322 26.4065 4.4363 26.2662 4.34627 26.137L2.29255 23.2447C2.23284 23.1626 2.02833 22.8164 1.96387 22.775L6.31359 22.7552Z" fill="#D9D9D9"/>
</g>
<defs>
<clipPath id="clip0_1144_3410">
<rect width="30" height="30" fill="white"/>
</clipPath>
</defs>
</svg>
