<svg width="39" height="48" viewBox="0 0 39 48" fill="none" xmlns="http://www.w3.org/2000/svg">
<path d="M0.5 0.5H34C36.4853 0.5 38.5 2.51472 38.5 5V43C38.5 45.4853 36.4853 47.5 34 47.5H0.5V0.5Z" fill="white" stroke="#D9D9D9"/>
<path d="M19.6592 9.01341C20.4425 8.97909 21.2438 9.01062 22.0213 9.10838L23.4244 9.35002C25.2799 9.72204 26.9858 10.5202 28.5047 11.6312C29.2729 12.1931 29.8247 12.6348 30.4784 13.3198C32.9919 15.9534 34.505 19.517 34.4951 23.1717L34.4898 23.9283C34.3218 27.6153 32.5896 31.2786 29.8582 33.7541L29.0193 34.4466C27.5189 35.6236 25.9279 36.4338 24.0768 36.9481C23.4155 37.1318 22.7431 37.2891 22.0607 37.372L20.9625 37.4521C19.7982 37.5211 18.6423 37.4622 17.4987 37.218C16.2048 37.0184 14.5177 36.4028 13.3906 35.777C12.9962 35.558 13.118 35.5192 12.717 35.6424L7.52231 37.2104C7.22952 37.3173 6.83533 37.5175 6.51643 37.4058L6.49543 37.3982C5.72976 37.1337 6.08844 36.2567 6.24397 35.7036L7.74446 30.3595C7.81107 30.1053 7.78556 30.1214 7.6612 29.8805L7.04265 28.5891C5.73785 25.3648 5.64251 21.6153 6.84239 18.3458C8.82818 12.9347 13.8356 9.21291 19.6592 9.01341ZM19.8627 15.5916C17.8907 15.6551 16.1234 16.3603 15.7166 18.4407C15.6282 18.8925 15.5521 19.3602 15.9256 19.7075C16.3456 20.0979 17.8352 20.45 18.3108 19.9211C18.6549 19.5384 18.4209 18.4893 19.1291 18.0171C19.5818 17.7153 20.3773 17.7633 20.8243 18.0455C21.15 18.251 21.276 18.5382 21.3569 18.9013C21.7709 20.7594 19.6075 21.8332 18.8579 23.4141C18.5851 24.022 18.5108 24.6759 18.5159 25.3364C18.5236 26.3353 18.8686 26.487 19.7814 26.4839C20.2714 26.4822 20.9642 26.4238 21.1728 25.8831C21.2306 25.7331 21.2202 25.528 21.2357 25.3674C21.4863 22.7803 24.2306 22.036 24.526 19.6295C24.8068 17.3428 23.495 15.9173 21.2528 15.651L19.8627 15.5916ZM19.5549 28.2184C18.645 28.2611 18.5561 28.7007 18.5565 29.5153C18.5568 30.1631 18.4636 31.1226 19.2249 31.3782L19.4681 31.4399C19.7237 31.4966 20.0678 31.4781 20.3271 31.4455C21.2883 31.2573 21.3373 30.6473 21.3377 29.794C21.3379 29.3175 21.4162 28.6525 20.9496 28.3476C20.666 28.1623 19.9273 28.191 19.5549 28.2184Z" fill="#D9D9D9"/>
</svg>
