<svg width="39" height="48" viewBox="0 0 39 48" fill="none" xmlns="http://www.w3.org/2000/svg">
<path d="M0.5 0.5H34C36.4853 0.5 38.5 2.51472 38.5 5V43C38.5 45.4853 36.4853 47.5 34 47.5H0.5V0.5Z" fill="white" stroke="#D9D9D9"/>
<path d="M33.875 16.1885C33.875 15.0943 33.4404 14.0449 32.6668 13.2712C31.8932 12.4974 30.844 12.0628 29.75 12.0628H29.7212C29.1675 12.0628 28.7188 11.614 28.7188 11.0603C28.7188 10.5053 28.2921 10.0289 27.7371 10.0012C27.5977 9.99448 27.4583 10.0161 27.3275 10.0649C27.1967 10.1136 27.0772 10.1884 26.9761 10.2847C26.875 10.381 26.7946 10.4969 26.7396 10.6252C26.6846 10.7536 26.6563 10.8917 26.6562 11.0313C26.6562 11.601 26.1945 12.0628 25.6248 12.0628H13.2212C12.6675 12.0628 12.2188 11.614 12.2188 11.0603C12.2188 10.5053 11.7921 10.0289 11.2371 10.0012C11.0977 9.99448 10.9583 10.0161 10.8275 10.0649C10.6967 10.1136 10.5772 10.1884 10.4761 10.2847C10.375 10.381 10.2946 10.4969 10.2396 10.6252C10.1846 10.7536 10.1563 10.8917 10.1562 11.0313C10.1562 11.6009 9.69454 12.0628 9.125 12.0628C8.03098 12.0628 6.98177 12.4974 6.20818 13.2712C5.4346 14.0449 5 15.0943 5 16.1885V16.9621C5 17.0305 5.02716 17.096 5.07551 17.1444C5.12386 17.1928 5.18944 17.2199 5.25781 17.2199H33.6172C33.6856 17.2199 33.7511 17.1928 33.7995 17.1444C33.8478 17.096 33.875 17.0305 33.875 16.9621V16.1885ZM5 34.7543C5 35.8485 5.4346 36.8979 6.20818 37.6716C6.98177 38.4453 8.03098 38.88 9.125 38.88H29.75C30.844 38.88 31.8932 38.4453 32.6668 37.6716C33.4404 36.8979 33.875 35.8485 33.875 34.7543V19.4762C33.875 19.4249 33.8546 19.3757 33.8184 19.3394C33.7821 19.3032 33.7329 19.2828 33.6816 19.2828H5.19336C5.14208 19.2828 5.0929 19.3032 5.05663 19.3394C5.02037 19.3757 5 19.4249 5 19.4762V34.7543ZM27.1719 21.3457C27.4778 21.3457 27.7769 21.4364 28.0313 21.6064C28.2857 21.7764 28.4839 22.018 28.601 22.3007C28.7181 22.5834 28.7487 22.8945 28.689 23.1946C28.6293 23.4948 28.482 23.7704 28.2657 23.9868C28.0493 24.2032 27.7737 24.3505 27.4737 24.4102C27.1736 24.4699 26.8626 24.4393 26.5799 24.3222C26.2973 24.2051 26.0557 24.0068 25.8857 23.7524C25.7157 23.4979 25.625 23.1988 25.625 22.8928C25.625 22.4825 25.788 22.089 26.0781 21.7988C26.3682 21.5087 26.7616 21.3457 27.1719 21.3457ZM27.1719 26.5028C27.4778 26.5028 27.7769 26.5936 28.0313 26.7636C28.2857 26.9336 28.4839 27.1752 28.601 27.4579C28.7181 27.7406 28.7487 28.0517 28.689 28.3518C28.6293 28.6519 28.482 28.9276 28.2657 29.144C28.0493 29.3603 27.7737 29.5077 27.4737 29.5674C27.1736 29.6271 26.8626 29.5964 26.5799 29.4793C26.2973 29.3622 26.0557 29.1639 25.8857 28.9095C25.7157 28.6551 25.625 28.356 25.625 28.05C25.625 27.6396 25.788 27.2461 26.0781 26.956C26.3682 26.6658 26.7616 26.5028 27.1719 26.5028ZM22.0156 21.3457C22.3216 21.3457 22.6206 21.4364 22.875 21.6064C23.1294 21.7764 23.3277 22.018 23.4447 22.3007C23.5618 22.5834 23.5925 22.8945 23.5328 23.1946C23.4731 23.4948 23.3258 23.7704 23.1094 23.9868C22.8931 24.2032 22.6175 24.3505 22.3174 24.4102C22.0173 24.4699 21.7063 24.4393 21.4237 24.3222C21.141 24.2051 20.8994 24.0068 20.7294 23.7524C20.5595 23.4979 20.4688 23.1988 20.4688 22.8928C20.4688 22.4825 20.6317 22.089 20.9218 21.7988C21.2119 21.5087 21.6054 21.3457 22.0156 21.3457ZM22.0156 26.5028C22.3216 26.5028 22.6206 26.5936 22.875 26.7636C23.1294 26.9336 23.3277 27.1752 23.4447 27.4579C23.5618 27.7406 23.5925 28.0517 23.5328 28.3518C23.4731 28.6519 23.3258 28.9276 23.1094 29.144C22.8931 29.3603 22.6175 29.5077 22.3174 29.5674C22.0173 29.6271 21.7063 29.5964 21.4237 29.4793C21.141 29.3622 20.8994 29.1639 20.7294 28.9095C20.5595 28.6551 20.4688 28.356 20.4688 28.05C20.4688 27.6396 20.6317 27.2461 20.9218 26.956C21.2119 26.6658 21.6054 26.5028 22.0156 26.5028ZM22.0156 31.66C22.3216 31.66 22.6206 31.7507 22.875 31.9207C23.1294 32.0907 23.3277 32.3324 23.4447 32.6151C23.5618 32.8978 23.5925 33.2088 23.5328 33.509C23.4731 33.8091 23.3258 34.0847 23.1094 34.3011C22.8931 34.5175 22.6175 34.6648 22.3174 34.7245C22.0173 34.7842 21.7063 34.7536 21.4237 34.6365C21.141 34.5194 20.8994 34.3211 20.7294 34.0667C20.5595 33.8122 20.4688 33.5131 20.4688 33.2071C20.4688 32.7968 20.6317 32.4033 20.9218 32.1131C21.2119 31.823 21.6054 31.66 22.0156 31.66ZM16.8594 26.5028C17.1653 26.5028 17.4644 26.5936 17.7188 26.7636C17.9732 26.9336 18.1714 27.1752 18.2885 27.4579C18.4056 27.7406 18.4362 28.0517 18.3765 28.3518C18.3168 28.6519 18.1695 28.9276 17.9532 29.144C17.7368 29.3603 17.4612 29.5077 17.1612 29.5674C16.8611 29.6271 16.5501 29.5964 16.2674 29.4793C15.9848 29.3622 15.7432 29.1639 15.5732 28.9095C15.4032 28.6551 15.3125 28.356 15.3125 28.05C15.3125 27.6396 15.4755 27.2461 15.7656 26.956C16.0557 26.6658 16.4491 26.5028 16.8594 26.5028ZM16.8594 31.66C17.1653 31.66 17.4644 31.7507 17.7188 31.9207C17.9732 32.0907 18.1714 32.3324 18.2885 32.6151C18.4056 32.8978 18.4362 33.2088 18.3765 33.509C18.3168 33.8091 18.1695 34.0847 17.9532 34.3011C17.7368 34.5175 17.4612 34.6648 17.1612 34.7245C16.8611 34.7842 16.5501 34.7536 16.2674 34.6365C15.9848 34.5194 15.7432 34.3211 15.5732 34.0667C15.4032 33.8122 15.3125 33.5131 15.3125 33.2071C15.3125 32.7968 15.4755 32.4033 15.7656 32.1131C16.0557 31.823 16.4491 31.66 16.8594 31.66ZM11.7031 26.5028C12.0091 26.5028 12.3081 26.5936 12.5625 26.7636C12.8169 26.9336 13.0152 27.1752 13.1323 27.4579C13.2493 27.7406 13.28 28.0517 13.2203 28.3518C13.1606 28.6519 13.0133 28.9276 12.7969 29.144C12.5806 29.3603 12.305 29.5077 12.0049 29.5674C11.7048 29.6271 11.3938 29.5964 11.1112 29.4793C10.8285 29.3622 10.5869 29.1639 10.4169 28.9095C10.247 28.6551 10.1562 28.356 10.1562 28.05C10.1562 27.6396 10.3192 27.2461 10.6093 26.956C10.8994 26.6658 11.2929 26.5028 11.7031 26.5028ZM11.7031 31.66C12.0091 31.66 12.3081 31.7507 12.5625 31.9207C12.8169 32.0907 13.0152 32.3324 13.1323 32.6151C13.2493 32.8978 13.28 33.2088 13.2203 33.509C13.1606 33.8091 13.0133 34.0847 12.7969 34.3011C12.5806 34.5175 12.305 34.6648 12.0049 34.7245C11.7048 34.7842 11.3938 34.7536 11.1112 34.6365C10.8285 34.5194 10.5869 34.3211 10.4169 34.0667C10.247 33.8122 10.1562 33.5131 10.1562 33.2071C10.1562 32.7968 10.3192 32.4033 10.6093 32.1131C10.8994 31.823 11.2929 31.66 11.7031 31.66Z" fill="#D9D9D9"/>
</svg>
