<svg width="25" height="22" viewBox="0 0 25 22" fill="none" xmlns="http://www.w3.org/2000/svg">
<path d="M13.4358 9.66826V5.37126H11.0007V9.66826H6.13067V11.8168H11.0007V16.1138H13.4358V11.8168H18.3058V9.66826H13.4358ZM12.2183 21.485C8.9892 21.485 5.8924 20.3532 3.60911 18.3386C1.32583 16.324 0.0430908 13.5916 0.0430908 10.7425C0.0430908 7.89342 1.32583 5.16102 3.60911 3.14641C5.8924 1.1318 8.9892 0 12.2183 0C15.4473 0 18.5441 1.1318 20.8274 3.14641C23.1107 5.16102 24.3934 7.89342 24.3934 10.7425C24.3934 13.5916 23.1107 16.324 20.8274 18.3386C18.5441 20.3532 15.4473 21.485 12.2183 21.485Z" fill="#C8C8C8"/>
</svg>
