<svg width="39" height="48" viewBox="0 0 39 48" fill="none" xmlns="http://www.w3.org/2000/svg">
<path d="M0.5 0.5H34C36.4853 0.5 38.5 2.51472 38.5 5V43C38.5 45.4853 36.4853 47.5 34 47.5H0.5V0.5Z" fill="white" stroke="#C8C8C8"/>
<path d="M6.91667 23.6539L14.49 12.7439C14.6422 12.5362 14.8167 12.4028 15.0133 12.3439C15.21 12.2851 15.4117 12.2867 15.6183 12.3489C15.8261 12.4112 15.9972 12.5289 16.1317 12.7023C16.2661 12.8756 16.3333 13.0828 16.3333 13.3239V24.4189C16.3333 24.8056 16.2056 25.1267 15.95 25.3823C15.6944 25.6378 15.3733 25.7656 14.9867 25.7656H8.00333C7.73444 25.7656 7.50111 25.6984 7.30333 25.5639C7.10778 25.4295 6.95111 25.2584 6.83333 25.0506C6.71556 24.8439 6.66222 24.6178 6.67333 24.3723C6.68444 24.1278 6.76556 23.8884 6.91667 23.6539ZM8.605 24.0989H14.6667V15.3973L8.605 24.0989ZM22.5383 25.7656C21.9183 25.7656 21.5361 25.5451 21.3917 25.1039C21.2461 24.6628 21.235 24.1995 21.3583 23.7139C21.5728 22.7228 21.7611 21.6006 21.9233 20.3473C22.0856 19.0939 22.1667 17.8445 22.1667 16.5989C22.1667 15.2467 22.0906 13.9289 21.9383 12.6456C21.7872 11.3623 21.605 10.2089 21.3917 9.18561C21.3361 8.95672 21.3483 8.76116 21.4283 8.59894C21.5083 8.43672 21.6211 8.30728 21.7667 8.21061C21.9111 8.09394 22.0789 8.02505 22.27 8.00394C22.4589 7.98394 22.6433 8.04005 22.8233 8.17228C24.2556 9.04228 25.5244 10.0662 26.63 11.2439C27.7356 12.4217 28.7244 13.7345 29.5967 15.1823C30.4322 16.5734 31.1211 18.0317 31.6633 19.5573C32.2044 21.0828 32.5767 22.6512 32.78 24.2623C32.8356 24.6701 32.7267 25.0228 32.4533 25.3206C32.1811 25.6173 31.8411 25.7656 31.4333 25.7656H22.5383ZM23.005 24.0989H31.0967C30.6878 21.3623 29.7883 18.8112 28.3983 16.4456C27.0094 14.0789 25.3117 12.0895 23.305 10.4773C23.4672 11.4662 23.5956 12.4923 23.69 13.5556C23.7856 14.6189 23.8333 15.6334 23.8333 16.5989C23.8333 17.8623 23.755 19.1345 23.5983 20.4156C23.4406 21.6978 23.2417 22.9256 23.005 24.0989ZM13.8333 35.9573C13.0889 35.9573 12.3744 35.8173 11.69 35.5373C11.0056 35.2562 10.3533 34.9117 9.73333 34.5039C9.58889 34.4073 9.44611 34.3417 9.305 34.3073C9.16389 34.2739 9.01722 34.2673 8.865 34.2873C8.71389 34.3095 8.56944 34.3445 8.43167 34.3923C8.29389 34.4401 8.16611 34.5228 8.04833 34.6406C7.88389 34.7984 7.71833 34.9306 7.55167 35.0373C7.385 35.1439 7.20167 35.2339 7.00167 35.3073C6.37278 34.8217 5.81056 34.2867 5.315 33.7023C4.82056 33.1189 4.39944 32.4778 4.05167 31.7789C3.82944 31.3567 3.85722 30.9434 4.135 30.5389C4.415 30.1345 4.79 29.9323 5.26 29.9323H32.4067C32.8767 29.9323 33.2428 30.1334 33.505 30.5356C33.7661 30.9367 33.8028 31.3512 33.615 31.7789C33.2328 32.4567 32.8028 33.0928 32.325 33.6873C31.8472 34.2817 31.2933 34.8217 30.6633 35.3073C30.4856 35.2328 30.3028 35.1373 30.115 35.0206C29.9272 34.9039 29.7617 34.7773 29.6183 34.6406C29.5006 34.5228 29.3728 34.4401 29.235 34.3923C29.0972 34.3445 28.9528 34.3095 28.8017 34.2873C28.6494 34.2662 28.5028 34.2717 28.3617 34.3039C28.2206 34.3339 28.0778 34.3973 27.9333 34.4939C27.3133 34.9017 26.6611 35.2478 25.9767 35.5323C25.2911 35.8156 24.5767 35.9573 23.8333 35.9573C23.0467 35.9573 22.3022 35.8034 21.6 35.4956C20.8978 35.1878 20.2267 34.8184 19.5867 34.3873C19.4689 34.3128 19.3522 34.2528 19.2367 34.2073C19.12 34.1628 18.9856 34.1406 18.8333 34.1406C18.6811 34.1406 18.5472 34.1628 18.4317 34.2073C18.315 34.2517 18.1983 34.3117 18.0817 34.3873C17.4394 34.8173 16.7672 35.1867 16.065 35.4956C15.3639 35.8034 14.62 35.9573 13.8333 35.9573ZM18.8333 40.2523C17.9633 40.7123 17.1117 41.0512 16.2783 41.2689C15.445 41.4889 14.63 41.5989 13.8333 41.5989C13.0367 41.5989 12.2217 41.4895 11.3883 41.2706C10.555 41.0517 9.70333 40.7128 8.83333 40.2539C7.96333 40.7128 7.11167 41.0517 6.27833 41.2706C5.445 41.4895 4.63 41.5989 3.83333 41.5989C3.59667 41.5989 3.39833 41.5195 3.23833 41.3606C3.07944 41.2006 3 41.0023 3 40.7656C3 40.5289 3.07944 40.3306 3.23833 40.1706C3.39833 40.0117 3.59667 39.9323 3.83333 39.9323C4.62556 39.9323 5.38111 39.8001 6.1 39.5356C6.81889 39.2712 7.53333 38.9728 8.24333 38.6406C8.34 38.5851 8.43833 38.5489 8.53833 38.5323C8.63833 38.5145 8.73667 38.5056 8.83333 38.5056C8.93 38.5056 9.02833 38.5145 9.12833 38.5323C9.22833 38.5489 9.32667 38.5851 9.42333 38.6406C10.1322 38.9739 10.8461 39.2712 11.565 39.5323C12.285 39.7923 13.0411 39.9223 13.8333 39.9223C14.6256 39.9223 15.3811 39.7923 16.1 39.5323C16.82 39.2712 17.5344 38.9739 18.2433 38.6406C18.34 38.5851 18.4383 38.5489 18.5383 38.5323C18.6383 38.5145 18.7367 38.5056 18.8333 38.5056C18.93 38.5056 19.0283 38.5145 19.1283 38.5323C19.2283 38.5489 19.3267 38.5851 19.4233 38.6406C20.1322 38.9739 20.8461 39.2712 21.565 39.5323C22.285 39.7923 23.0411 39.9223 23.8333 39.9223C24.6256 39.9223 25.3811 39.7923 26.1 39.5323C26.82 39.2712 27.5344 38.9739 28.2433 38.6406C28.3122 38.6073 28.5089 38.5628 28.8333 38.5073C28.8667 38.5073 29.0633 38.5517 29.4233 38.6406C30.1322 38.9739 30.8461 39.2723 31.565 39.5356C32.2839 39.7989 33.04 39.9312 33.8333 39.9323C34.07 39.9323 34.2683 40.0117 34.4283 40.1706C34.5872 40.3306 34.6667 40.5289 34.6667 40.7656C34.6667 41.0023 34.5872 41.2006 34.4283 41.3606C34.2683 41.5195 34.07 41.5989 33.8333 41.5989C33.0367 41.5989 32.2217 41.4895 31.3883 41.2706C30.555 41.0517 29.7033 40.7128 28.8333 40.2539C27.9633 40.7128 27.1117 41.0517 26.2783 41.2706C25.445 41.4895 24.63 41.5989 23.8333 41.5989C23.0367 41.5989 22.2217 41.4895 21.3883 41.2706C20.555 41.0517 19.7033 40.7128 18.8333 40.2539V40.2523Z" fill="#C8C8C8"/>
</svg>
