<svg width="39" height="48" viewBox="0 0 39 48" fill="none" xmlns="http://www.w3.org/2000/svg">
<path d="M0.5 0.5H34C36.4853 0.5 38.5 2.51472 38.5 5V43C38.5 45.4853 36.4853 47.5 34 47.5H0.5V0.5Z" fill="white" stroke="#C8C8C8"/>
<path d="M28.2135 9.79623C28.7463 9.71498 29.2282 10.3691 29.5496 10.7065C29.7775 10.9457 30.0729 11.1975 30.2152 11.4989L30.2242 11.5184C30.3256 11.7325 30.3591 11.9444 30.3607 12.1785L30.3632 36.9199C30.3476 37.4162 29.9418 37.8359 29.4845 37.9784C29.2349 38.0561 28.9019 38.0169 28.6402 38.0167L7.02482 38.017L6.21504 38.0168C5.56609 38.015 4.92175 37.8206 4.76916 37.1139L4.76533 37.0956C4.71242 36.8628 4.7428 36.5856 4.74289 36.3461L4.7433 33.8862C4.74375 32.7492 4.88674 32.7772 5.62192 32.0423L25.5022 12.1668L27.557 10.1434C27.6796 10.0261 27.8161 9.91093 27.9783 9.85456L28.0048 9.84566C28.0766 9.82071 28.1379 9.80504 28.2135 9.79623ZM24.3042 18.2334L9.41806 33.0923L9.34189 33.1798C9.26847 33.2647 9.25581 33.4073 9.14237 33.4392C8.98622 33.4832 8.80303 33.499 8.64107 33.5127L7.92747 33.5825C7.55719 33.6035 7.17909 33.5903 6.80819 33.5896C6.59808 33.5892 5.96974 33.6756 5.85154 33.4567L5.8513 36.5542C5.85146 36.6724 5.8421 36.7999 5.85545 36.9172L6.77197 36.924L6.77196 36.0693C6.77216 35.8277 6.72937 35.4758 6.83215 35.2573L6.84398 35.2318C7.07581 34.7484 7.70327 34.8794 7.83566 35.353C7.93381 35.704 7.84119 36.5153 7.86719 36.9248L9.33937 36.9212L9.34341 35.9037C9.34388 35.526 9.3089 34.9776 9.89647 34.9978C10.3875 35.0148 10.4275 35.5433 10.4275 35.8947L10.4253 36.6562C10.4243 36.7388 10.4038 36.8461 10.4204 36.9241L11.8121 36.9007C11.7867 36.6066 11.7732 36.2298 11.9778 35.9929C12.3748 35.5332 12.8709 35.9716 12.8839 36.5318L12.8784 36.9223C13.2088 36.9463 13.5525 36.9269 13.8841 36.926L14.1847 36.9252C14.2346 36.9251 14.2914 36.9312 14.3393 36.9178C14.3392 36.5987 14.2953 36.2184 14.5429 35.9719C14.7694 35.7464 15.0792 35.7915 15.2835 36.022C15.4853 36.2497 15.4268 36.6472 15.4192 36.9289H16.9452L16.945 35.9135C16.9452 35.7632 16.9218 35.5631 16.9582 35.4184C17.0209 35.1686 17.3083 34.9826 17.5606 35.0279L17.5813 35.0315C18.0752 35.1268 18.0371 35.6084 18.0356 35.9868L18.0279 36.9268L19.0365 36.9253C19.1531 36.9251 19.3256 36.9475 19.4359 36.9169C19.4274 36.5739 19.3942 36.2094 19.6516 35.9409C19.847 35.7372 20.1715 35.753 20.3569 35.9607C20.5697 36.1992 20.5232 36.6246 20.505 36.9241L22.0048 36.9247C22.0008 36.59 21.9701 36.224 22.2261 35.9637C22.4208 35.7659 22.7174 35.7435 22.9146 35.952C23.142 36.1923 23.078 36.6223 23.0708 36.9284L24.636 36.9267L24.6351 35.9002C24.6351 35.5119 24.6083 34.9775 25.1998 34.9907C25.752 35.0029 25.7192 35.51 25.7194 35.9012L25.7187 36.924L28.9028 36.9306L28.5872 36.9216C28.4852 36.5479 28.4708 36.1422 28.4065 35.7592C28.2981 35.113 28.115 34.4589 28.0843 33.8043L28.1188 33.7829C27.9369 33.7832 27.677 33.8121 27.5044 33.7623L27.3677 33.7243C26.8598 33.5352 27.0587 32.9484 27.4751 32.7824C27.6898 32.7283 27.9167 32.7218 28.1368 32.7147C28.3454 32.4406 28.2241 31.8423 28.2029 31.5278L27.5507 31.524L26.7487 31.5179C26.2093 31.4704 26.0134 30.8091 26.3851 30.5392C26.7536 30.3844 27.0528 30.4306 27.4357 30.4341L28.5241 30.4335C28.7678 30.433 29.0157 30.4417 29.2588 30.4237L29.2602 29.6784C29.237 29.6585 29.1268 29.6687 29.0901 29.6688L28.3771 29.669C28.0502 29.6688 27.6252 29.7214 27.3613 29.4852C27.1643 29.3088 27.1352 28.948 27.3201 28.7534C27.5487 28.5131 27.9346 28.5653 28.2322 28.5655L29.2581 28.5689L29.2551 27.8094L28.4041 27.8093C28.265 27.8091 28.0778 27.8303 27.9472 27.786L27.9317 27.7806C27.6773 27.697 27.4571 27.4999 27.4539 27.2153C27.4474 26.6494 28.2156 26.6957 28.6048 26.6956L29.2604 26.6965L29.2605 25.9608C29.0839 25.9345 28.8855 25.9512 28.7065 25.9512L27.3692 25.9513C27.1379 25.9512 26.5059 26.0351 26.3664 25.8287L26.3573 25.8151C26.2183 25.4934 26.0408 25.0891 26.4203 24.9045C26.3716 24.8325 26.3965 24.6254 26.3926 24.5346L26.3691 22.0389L26.4719 20.7739C26.6045 20.9101 26.7255 20.9671 26.9061 21.0214C26.94 21 26.975 20.8904 26.9951 20.8505C27.0724 20.697 27.2016 20.5819 27.2872 20.4332L27.3018 20.455L27.2396 20.5539C27.2057 20.6005 27.1561 20.6415 27.1257 20.6893C27.0616 20.79 26.9847 21.0746 26.8406 21.0265L26.7781 21.008C26.6676 20.9678 26.5737 20.9085 26.4925 20.8249L26.5033 20.8579C26.5033 20.9139 26.4896 20.8984 26.4705 20.9421C26.4599 20.9665 26.4557 21.055 26.4632 21.085L26.5036 21.1289L26.5474 21.0777C26.5605 21.1038 26.559 21.0933 26.5591 21.1211L26.606 21.1363C26.6228 21.1555 26.6345 21.1714 26.6573 21.1839L26.6719 21.2241L26.7891 21.3706L26.8183 21.3779C26.8615 21.3959 26.9194 21.4107 26.9584 21.4342L26.9942 21.4365C27.0404 21.4672 27.0492 21.4515 27.0933 21.4382L27.159 21.4219C27.1847 21.4219 27.2109 21.4331 27.2313 21.4484L27.3097 21.4424C27.3238 21.4386 27.6308 21.1968 27.638 21.1896L27.668 21.1874C27.6919 21.1715 27.6835 21.1734 27.7074 21.1687L27.7632 21.1581C27.7992 21.1446 27.8418 21.1515 27.8731 21.1362L27.8877 21.1253C27.9949 21.1356 28.1719 21.1127 28.3125 21.1184L29.2455 21.0908L29.2513 20.8652C29.2202 20.8284 29.2383 20.7906 29.2345 20.7444L29.2318 20.6455C29.2254 20.5812 29.2467 20.4604 29.2134 20.4111H29.1182C29.0736 20.3814 27.9374 20.3944 27.7852 20.3998C27.6926 20.3306 27.4025 20.4222 27.2787 20.3781L27.4645 20.3675L26.9488 20.3654C26.812 20.3644 26.6434 20.3813 26.5173 20.3208L26.4961 20.3104C26.0574 20.1042 26.0438 19.5384 26.4604 19.3003C26.3554 19.1838 26.398 18.9256 26.3906 18.7784L26.3663 16.5683C26.3659 16.4739 26.3703 16.3662 26.3349 16.2773L26.2975 16.1693L24.3042 18.2334Z" fill="#C8C8C8"/>
<path d="M28.2028 31.5298L29.2603 31.5283L29.2654 32.7061C29.2494 32.7209 29.259 32.717 29.2362 32.717L28.1367 32.7157C28.3453 32.4406 28.224 31.8423 28.2028 31.5298Z" fill="#C8C8C8"/>
<path d="M28.6151 11.3518C29.356 12.0599 29.2542 11.8736 29.2586 12.8535C29.2598 13.1221 29.2793 13.4059 29.2584 13.6725L28.2471 13.6768C28.0446 13.6776 27.576 13.6383 27.3969 13.7409L27.3373 13.7762C27.3447 13.7527 27.3443 13.7627 27.3414 13.7384C27.2972 13.3588 27.6977 12.8745 27.8954 12.5839L28.2172 12.0902C28.3681 11.85 28.5016 11.6118 28.6151 11.3518Z" fill="#C8C8C8"/>
<path d="M28.1187 33.7798L29.2605 33.7839L29.261 36.9307L28.9027 36.927L28.5871 36.9218C28.4851 36.548 28.4708 36.1423 28.4065 35.7594C28.298 35.1131 28.1149 34.459 28.0842 33.8044L28.1187 33.7798Z" fill="#C8C8C8"/>
<path d="M27.4644 20.365L29.2527 20.3772C29.2713 20.4477 29.2606 20.5373 29.2608 20.6105L29.2613 21.1183C29.0497 21.2248 27.7288 20.9206 27.4269 21.38C27.2321 21.6761 27.4675 22.0064 27.7342 22.1475C27.9407 22.2569 28.1426 22.2368 28.3667 22.2328L28.9331 22.2292C29.0389 22.2295 29.1523 22.222 29.2569 22.2363L29.2575 22.7192C29.2576 22.8007 29.2694 22.9 29.25 22.9788L28.2602 22.9816C28.0777 22.9818 27.8681 22.9633 27.6887 22.9963C26.9364 23.1347 27.0587 23.9521 27.7221 24.0767C27.8605 24.1026 28.0163 24.0896 28.1574 24.0895L28.9425 24.0892C29.0372 24.0891 29.1673 24.0736 29.2573 24.0981L29.2562 24.8437L27.2167 24.8468C26.9746 24.8393 26.6654 24.8169 26.4355 24.9045C26.3715 24.8325 26.3964 24.6253 26.3925 24.5346L26.369 22.0389L26.4719 20.7739C26.6044 20.9101 26.7254 20.967 26.906 21.0214C26.9399 21 26.9749 20.8903 26.995 20.8505C27.0723 20.6969 27.2015 20.5819 27.2871 20.4331L27.3017 20.455L27.2395 20.5539C27.2056 20.6004 27.156 20.6414 27.1256 20.6892C27.0615 20.79 26.9846 21.0746 26.8405 21.0265L26.778 21.008C26.6675 20.9677 26.5736 20.9085 26.4924 20.8248L26.5033 20.8578C26.5033 20.9139 26.4895 20.8984 26.4704 20.942C26.4598 20.9665 26.4556 21.0549 26.4631 21.0849L26.5035 21.1288L26.5473 21.0777C26.5604 21.1038 26.5589 21.0933 26.559 21.121L26.6059 21.1363C26.6227 21.1555 26.6344 21.1714 26.6572 21.1838L26.6718 21.224L26.789 21.3705L26.8183 21.3779C26.8614 21.3958 26.9193 21.4107 26.9583 21.4342L26.9941 21.4364C27.0403 21.4672 27.0491 21.4514 27.0932 21.4381L27.1589 21.4218C27.1846 21.4218 27.2108 21.433 27.2312 21.4483L27.3096 21.4424C27.3237 21.4386 27.6307 21.1968 27.6379 21.1895L27.6679 21.1874C27.6918 21.1715 27.6834 21.1734 27.7073 21.1687L27.7631 21.1581C27.7991 21.1446 27.8417 21.1515 27.873 21.1361L27.8877 21.1252C27.9948 21.1356 28.1718 21.1127 28.3125 21.1183L29.2454 21.0907L29.2512 20.8651C29.2201 20.8283 29.2382 20.7906 29.2344 20.7443L29.2317 20.6454C29.2253 20.5812 29.2466 20.4604 29.2133 20.411H29.1181C29.0735 20.3813 27.9373 20.3943 27.7851 20.3997C27.6925 20.3306 27.4024 20.4222 27.2786 20.3781L27.4644 20.365Z" fill="#C8C8C8"/>
<path d="M5.85748 33.4569L5.85744 33.4386C5.85631 33.3339 5.92384 33.2844 5.99312 33.214L28.2567 10.9731L28.6152 11.3519C28.5017 11.6119 28.3682 11.8501 28.2173 12.0903L27.8955 12.584C27.6978 12.8746 27.2973 13.359 27.3415 13.7385C27.3444 13.7628 27.3448 13.7528 27.3374 13.7763C27.1176 14.0431 27.126 14.3903 27.4077 14.6103C27.6648 14.8111 27.9912 14.7726 28.2967 14.7731L28.9309 14.7738C29.0326 14.7739 29.163 14.7591 29.2606 14.7836L29.2603 15.5371L28.2993 15.5398C28.1169 15.5401 27.9014 15.5196 27.7239 15.5575C27.001 15.7119 27.0462 16.52 27.8218 16.6351L27.8447 16.6389C27.9722 16.6588 28.1103 16.6475 28.2397 16.6472L28.9453 16.6471C29.0414 16.6472 29.1611 16.6339 29.2537 16.6575L29.2585 17.3957L28.3206 17.3958C27.9576 17.3962 27.4042 17.3176 27.2132 17.7233C27.0696 18.0283 27.2248 18.3173 27.5218 18.4378C27.8995 18.5909 28.8049 18.4796 29.2554 18.5166L29.2542 19.2664L27.0391 19.2623C26.8468 19.257 26.6526 19.2452 26.4656 19.3005C26.3554 19.1839 26.398 18.9258 26.3906 18.7786L26.3663 16.5685C26.3659 16.474 26.3703 16.3663 26.3349 16.2775L26.2975 16.1695L24.3042 18.2336L9.41806 33.0925L9.34189 33.18C9.26847 33.2649 9.25581 33.4075 9.14238 33.4394C8.98623 33.4833 8.80304 33.4992 8.64108 33.5129L7.92747 33.5827C7.55719 33.6037 7.17909 33.5905 6.80819 33.5897C6.59808 33.5893 5.96975 33.6758 5.85748 33.4569Z" fill="#C8C8C8"/>
<path d="M24.3042 18.2335L26.2975 16.1694L26.3349 16.2774C26.3703 16.3663 26.3659 16.474 26.3663 16.5685L26.3906 18.7786C26.398 18.9257 26.3554 19.1839 26.4604 19.3004C26.0438 19.5385 26.0574 20.1044 26.4961 20.3105L26.5173 20.321C26.6435 20.3814 26.812 20.3645 26.9488 20.3655L27.4645 20.3677L27.2787 20.3783C27.4025 20.4223 27.6926 20.3308 27.7852 20.3999C27.9374 20.3945 29.0736 20.3815 29.1182 20.4112H29.2134C29.2467 20.4605 29.2254 20.5814 29.2318 20.6456L29.2345 20.7445C29.2383 20.7908 29.2202 20.8285 29.2513 20.8653L29.2455 21.0909L28.3126 21.1185C28.1719 21.1129 27.9949 21.1357 27.8878 21.1254L27.8731 21.1363C27.8418 21.1517 27.7992 21.1447 27.7632 21.1583L27.7074 21.1688C27.6835 21.1736 27.6919 21.1716 27.668 21.1876L27.638 21.1897C27.6308 21.197 27.3238 21.4388 27.3097 21.4426L27.2313 21.4485C27.2109 21.4332 27.1847 21.422 27.159 21.422L27.0933 21.4383C27.0492 21.4516 27.0404 21.4674 26.9942 21.4366L26.9584 21.4343C26.9194 21.4108 26.8615 21.396 26.8184 21.3781L26.7891 21.3707L26.6719 21.2242L26.6573 21.184C26.6345 21.1715 26.6228 21.1556 26.606 21.1364L26.5591 21.1212C26.559 21.0934 26.5605 21.104 26.5474 21.0778L26.5036 21.129L26.4632 21.0851C26.4557 21.0551 26.4599 20.9666 26.4705 20.9422C26.4896 20.8985 26.5034 20.9141 26.5034 20.858L26.4925 20.825C26.5737 20.9087 26.6676 20.9679 26.7781 21.0082L26.8406 21.0267C26.9847 21.0747 27.0616 20.7901 27.1257 20.6894C27.1561 20.6416 27.2057 20.6006 27.2396 20.5541L27.3018 20.4552L27.2872 20.4333C27.2016 20.5821 27.0724 20.6971 26.9951 20.8507C26.975 20.8905 26.94 21.0001 26.9061 21.0216C26.7255 20.9672 26.6045 20.9103 26.472 20.7741L26.3691 22.0391L26.3926 24.5347C26.3965 24.6255 26.3716 24.8326 26.4203 24.9046C26.0408 25.0892 26.2183 25.4936 26.3573 25.8152L26.3664 25.8288C26.5059 26.0352 27.1379 25.9513 27.3693 25.9514L28.7065 25.9513C28.8855 25.9514 29.0839 25.9347 29.2605 25.961L29.2604 26.6967L28.6048 26.6957C28.2156 26.6959 27.4474 26.6495 27.4539 27.2154C27.4571 27.5 27.6773 27.6972 27.9317 27.7807L27.9472 27.7862C28.0778 27.8305 28.265 27.8093 28.4041 27.8094L29.2551 27.8096L29.2581 28.569L28.2322 28.5656C27.9346 28.5655 27.5487 28.5132 27.3202 28.7535C27.1352 28.9481 27.1644 29.309 27.3613 29.4853C27.6252 29.7216 28.0502 29.669 28.3771 29.6691L29.0901 29.6689C29.1268 29.6688 29.237 29.6586 29.2603 29.6786L29.2588 30.4238C29.0157 30.4419 28.7678 30.4331 28.5241 30.4337L27.4357 30.4343C27.0528 30.4307 26.7536 30.3845 26.3851 30.5394C26.0135 30.8093 26.2093 31.4705 26.7487 31.518L27.5507 31.5241L28.2029 31.528C28.2241 31.8424 28.3454 32.4407 28.1368 32.7148C27.9167 32.7219 27.6898 32.7284 27.4751 32.7825C27.0587 32.9486 26.8598 33.5353 27.3677 33.7245L27.5044 33.7624C27.677 33.8122 27.9369 33.7834 28.1188 33.7831L28.0843 33.8044C28.115 34.459 28.2981 35.1131 28.4065 35.7594C28.4708 36.1423 28.4852 36.548 28.5872 36.9218L28.9028 36.9307L25.7187 36.9241L25.7194 35.9013C25.7192 35.5102 25.752 35.003 25.1998 34.9908C24.6083 34.9777 24.6352 35.5121 24.6352 35.9003L24.636 36.9269L23.0708 36.9285C23.078 36.6224 23.142 36.1924 22.9146 35.9521C22.7174 35.7436 22.4208 35.7661 22.2261 35.9639C21.9701 36.2241 22.0008 36.5901 22.0048 36.9249L20.505 36.9242C20.5232 36.6247 20.5697 36.1993 20.3569 35.9609C20.1715 35.7532 19.847 35.7373 19.6516 35.9411C19.3942 36.2095 19.4274 36.574 19.436 36.9171C19.3256 36.9476 19.1531 36.9252 19.0365 36.9254L18.0279 36.9269L18.0356 35.987C18.0371 35.6085 18.0752 35.127 17.5813 35.0316L17.5606 35.028C17.3083 34.9827 17.0209 35.1688 16.9582 35.4185C16.9218 35.5633 16.9452 35.7633 16.945 35.9137L16.9452 36.929H15.4192C15.4268 36.6474 15.4853 36.2498 15.2835 36.0222C15.0792 35.7917 14.7694 35.7465 14.5429 35.9721C14.2953 36.2185 14.3392 36.5988 14.3393 36.9179C14.2914 36.9314 14.2346 36.9252 14.1847 36.9253L13.8841 36.9262C13.5526 36.927 13.2088 36.9464 12.8784 36.9225L12.8839 36.5319C12.8709 35.9718 12.3748 35.5333 11.9778 35.993C11.7732 36.2299 11.7867 36.6067 11.8121 36.9008L10.4204 36.9242C10.4038 36.8462 10.4244 36.7389 10.4253 36.6563L10.4275 35.8948C10.4275 35.5435 10.3875 35.0149 9.89648 34.9979C9.3089 34.9777 9.34388 35.5261 9.34342 35.9038L9.33937 36.9213L7.86719 36.925C7.8412 36.5154 7.93382 35.7041 7.83567 35.3531C7.70328 34.8795 7.07582 34.7485 6.84399 35.2319L6.83215 35.2574C6.72938 35.476 6.77216 35.8279 6.77197 36.0695L6.77198 36.9241L5.85546 36.9173C5.84211 36.8001 5.85146 36.6726 5.85131 36.5544L5.85155 33.4569C5.96975 33.6757 6.59809 33.5893 6.80819 33.5897C7.1791 33.5905 7.5572 33.6037 7.92747 33.5826L8.64108 33.5128C8.80304 33.4992 8.98623 33.4833 9.14238 33.4394C9.25582 33.4074 9.26847 33.2649 9.34189 33.18L9.41806 33.0924L24.3042 18.2335ZM12.8099 32.7039L12.8277 32.7965C12.8907 33.1364 13.145 33.2512 13.4679 33.2582L23.7211 33.2579C24.4101 33.2551 24.5972 33.2101 24.5896 32.3899L24.5969 22.4913C24.5996 22.2437 24.4065 22.0657 24.2446 21.9016C23.935 21.6624 23.7599 21.7184 23.4881 21.976L13.1734 32.158C12.986 32.3332 12.8428 32.4395 12.8099 32.7039Z" fill="url(#paint0_linear_1463_3430)" fill-opacity="0.5"/>
<path d="M27.5506 31.5222L28.2029 31.5278C28.224 31.8423 28.3453 32.4406 28.1368 32.7147C27.9166 32.7218 27.6897 32.7283 27.4751 32.7824L27.4316 32.7295C27.3762 32.6454 27.4768 31.691 27.4995 31.5394L27.5506 31.5222Z" fill="#C8C8C8"/>
<path d="M12.8098 32.7039C12.8427 32.4394 12.9859 32.3331 13.1733 32.158L23.4881 21.9759C23.7599 21.7184 23.935 21.6624 24.2445 21.9015C24.4065 22.0656 24.5995 22.2437 24.5968 22.4912L24.5896 32.3899C24.5972 33.21 24.41 33.2551 23.721 33.2578L13.4678 33.2581C13.145 33.2511 12.8907 33.1363 12.8276 32.7964L12.8098 32.7039ZM23.4533 23.5386C23.1483 23.8981 22.7812 24.222 22.4474 24.5555L20.1465 26.8183L14.9383 31.9896C14.903 32.0246 14.7782 32.1292 14.7724 32.1687L14.814 32.1732L23.4932 32.1738L23.4533 23.5386Z" fill="#C8C8C8"/>
<defs>
<linearGradient id="paint0_linear_1463_3430" x1="14.8615" y1="24.9665" x2="25.8498" y2="39.2438" gradientUnits="userSpaceOnUse">
<stop stop-color="#D9D9D9"/>
<stop offset="1" stop-color="#D9D9D9"/>
</linearGradient>
</defs>
</svg>
