<svg width="39" height="48" viewBox="0 0 39 48" fill="none" xmlns="http://www.w3.org/2000/svg">
<path d="M0.5 0.5H34C36.4853 0.5 38.5 2.51472 38.5 5V43C38.5 45.4853 36.4853 47.5 34 47.5H0.5V0.5Z" fill="white" stroke="#C8C8C8"/>
<g clip-path="url(#clip0_1463_3390)">
<path d="M20.0072 19.8128C20.5406 19.7832 20.4339 20.4056 20.4349 20.7611L20.4353 21.809L20.1111 21.8101C19.9816 21.8113 19.846 21.8207 19.718 21.8005L19.7114 20.6673C19.7094 20.4793 19.6653 20.2264 19.7197 20.049L19.7266 20.0283C19.7718 19.8883 19.8738 19.8543 20.0072 19.8128Z" fill="#C8C8C8"/>
<path d="M10.4343 23.791C10.7149 23.7586 11.0987 23.9778 10.9329 24.2962L10.9224 24.3149C10.7764 24.5856 10.5246 24.5199 10.2676 24.5151L7.07261 24.5125C6.85809 24.5144 6.53651 24.4306 6.56445 24.1532L6.57013 24.1296C6.65781 23.7431 6.91168 23.7921 7.22304 23.7916L10.4343 23.791Z" fill="#C8C8C8"/>
<path d="M18.9103 20.9685C19.0404 20.9606 19.1762 21.0168 19.2384 21.1402L19.2801 21.224C19.3472 21.3515 19.3222 21.5367 19.3219 21.6792L19.32 22.2358L20.2062 22.2421C20.4351 22.2423 20.6859 22.2621 20.9111 22.2222L20.9319 22.2184C21.1878 22.5591 21.405 22.9192 21.5733 23.3112L21.3512 23.2899L18.6614 23.2804C18.6128 23.1277 18.6348 22.9094 18.6346 22.7482L18.6243 21.4358C18.6178 21.1732 18.6475 21.0703 18.9103 20.9685Z" fill="#C8C8C8"/>
<path d="M6.91939 21.9819L12.7504 21.979C13.0179 21.9791 13.2941 21.9652 13.5607 21.9808C13.9897 22.0059 13.9864 22.6164 13.5574 22.7132C13.4122 22.7286 13.2532 22.7119 13.1061 22.7116L7.00286 22.716C6.48892 22.7178 6.43556 22.079 6.91939 21.9819Z" fill="#C8C8C8"/>
<path d="M26.9739 18.5365C27.0647 18.5336 27.1566 18.5292 27.2436 18.5589L27.2617 18.5653C27.4141 18.6187 27.4688 18.8973 27.4488 19.0419L27.4448 19.0698C27.4452 19.1687 28.9353 19.6928 28.7978 20.7592L28.7931 20.7847C28.7295 21.1642 28.3331 21.1259 28.1913 20.947C27.9324 20.6205 28.0232 19.9843 27.2349 19.8665L27.2178 19.864C27.1297 19.8505 27.0354 19.8417 26.9466 19.8518L26.9248 19.8544C26.1314 19.943 25.6406 20.8927 26.1041 21.5628L26.1183 21.583C26.2248 21.7364 26.3659 21.8362 26.521 21.9344C26.7929 22.081 27.0953 22.1511 27.3642 22.2994C27.6758 22.4712 27.8255 22.9084 27.4076 23.0755C26.8799 23.2865 26.5052 22.9058 26.1422 22.5937C25.9681 22.444 25.7814 22.3141 25.6219 22.147C24.6198 21.097 25.4075 19.4639 26.722 19.0718C26.699 18.7995 26.6933 18.6296 26.9739 18.5365Z" fill="#C8C8C8"/>
<path d="M26.5776 20.4702C27.0302 20.4501 27.7279 20.8619 28.1075 21.1186C28.986 21.713 29.0201 22.946 28.4342 23.7509C28.1808 24.099 27.7867 24.3135 27.393 24.4628C27.4449 24.6799 27.4353 24.9938 27.1915 25.0918L27.1738 25.0986C26.9099 25.2067 26.6333 24.8957 26.6322 24.649C26.632 24.5914 26.661 24.5085 26.6392 24.4572C26.2671 24.4621 25.8741 24.0872 25.6325 23.8421C25.3864 23.5716 24.8188 22.603 25.4627 22.487L25.5308 22.4767C25.8664 22.4611 25.8857 22.802 25.9862 23.027C26.1742 23.4476 26.6276 23.8304 27.1118 23.7551L27.1372 23.7509C28.1052 23.5953 28.6851 21.9857 27.1227 21.561C26.7173 21.4508 26.026 21.2146 26.3251 20.6381C26.3795 20.5333 26.4727 20.5017 26.5776 20.4702Z" fill="#C8C8C8"/>
<path d="M6.88601 20.1655C7.14185 20.1949 7.41559 20.1767 7.67317 20.1768L15.2535 20.1764C15.3956 20.1765 15.617 20.1461 15.7455 20.1973C16.0735 20.328 15.9777 20.8337 15.6187 20.9159L7.09206 20.9096C6.45344 20.9093 6.42394 20.3547 6.88601 20.1655Z" fill="#C8C8C8"/>
<path d="M6.93422 18.3604C7.29871 18.3837 7.66802 18.3732 8.03325 18.3733L16.9503 18.3703C17.7203 18.3568 17.7157 18.9518 17.2533 19.0974C16.8198 19.1273 16.3714 19.1052 15.9361 19.1051L7.01273 19.1026C6.44728 19.0918 6.41317 18.5387 6.93422 18.3604Z" fill="#C8C8C8"/>
<path d="M19.2835 23.9734L23.0171 23.9747C23.1733 24.063 24.1683 25.5917 24.305 25.8173L21.472 25.7962L17.1022 25.7942C16.9466 25.7928 16.7702 25.7734 16.6168 25.7921L16.4983 25.7723C16.5784 25.4191 16.9704 24.1513 17.0829 23.984L19.2835 23.9734Z" fill="#C8C8C8"/>
<path d="M11.3583 34.6833C11.8915 34.6701 12.1571 34.7726 12.6162 35.0692C13.4929 35.6357 13.7419 35.2255 14.4704 34.8648L14.506 34.8472C15.049 34.5929 15.6338 34.6339 16.1481 34.9333C16.3467 35.049 16.5293 35.1943 16.747 35.2739L16.8458 35.3083C17.7742 35.5732 18.4752 34.0883 19.8424 34.929C20.0628 35.0645 20.2702 35.2331 20.5269 35.2961L20.5528 35.3013C21.5552 35.5269 22.0976 34.209 23.3764 34.8093C24.1393 35.1673 24.4256 35.6535 25.2858 35.0913C25.9519 34.656 26.6065 34.493 27.3453 34.9412C27.5654 35.0747 27.774 35.2374 28.0302 35.2957L28.056 35.3014C28.5428 35.4107 28.8235 35.0638 29.2482 35.0002C29.397 34.9779 29.6426 35.0574 29.6536 35.2382L29.6543 35.2574C29.6574 35.3143 29.663 35.3797 29.6469 35.4351C29.574 35.6863 28.793 36.0059 28.5622 36.0434C28.3391 36.0797 28.0038 36.0782 27.7864 36.02L27.7598 36.0127C27.3211 35.898 27.0675 35.5096 26.5624 35.4148C26.4603 35.4058 26.3354 35.393 26.2353 35.4174L26.2071 35.4248C25.3339 35.6445 25.3029 36.3607 23.9805 35.9935C23.7592 35.9321 23.5781 35.7765 23.3922 35.6493C22.4371 34.9957 22.1386 35.7141 21.411 35.9696C21.1086 36.0757 20.7494 36.0774 20.4318 36.048C19.8401 35.9932 19.5082 35.3046 18.7657 35.4364L18.7437 35.4405C18.5224 35.4793 18.3477 35.6146 18.1649 35.7356C17.7382 36.0182 16.9204 36.202 16.4457 35.9567C15.8442 35.6458 15.442 35.1191 14.7046 35.5449C14.0895 35.9001 13.7468 36.25 12.9045 36.034L12.877 36.0268C12.8031 36.0089 12.7211 35.9871 12.6533 35.9522L12.628 35.9388C12.4219 35.8343 12.2504 35.6787 12.0494 35.5672C11.2444 35.1206 10.9259 35.7104 10.2707 35.9569C9.71743 36.165 8.6965 36.0189 8.35487 35.5211C8.17041 35.2523 8.47187 34.9181 8.76287 35.0077L8.79011 35.0168C9.00343 35.0863 9.1833 35.2257 9.4038 35.2769C10.1275 35.4449 10.5905 34.7898 11.3583 34.6833Z" fill="#C8C8C8"/>
<path d="M11.4799 32.2969C12.0786 32.2438 12.3428 32.5636 12.8135 32.8151C14.0301 33.4652 14.5024 31.9784 15.7627 32.3668C16.1612 32.4897 16.4522 32.8426 16.863 32.9554L16.8882 32.9609C17.8144 33.1772 18.5652 31.8188 19.6283 32.4684C19.9451 32.662 20.1802 32.8839 20.5547 32.9708C21.4186 33.1712 22.2553 31.7939 23.3789 32.4601C23.6708 32.6331 23.9195 32.8762 24.2611 32.9547L24.3295 32.9698C24.7942 33.063 25.1186 32.8441 25.4917 32.6018C27.0711 31.5762 27.5231 33.4117 28.7631 32.8909C28.9459 32.8141 29.0912 32.6959 29.2842 32.6344C29.5454 32.682 29.7715 32.9534 29.5914 33.2017C29.3961 33.4708 29.0064 33.596 28.6972 33.668C27.5073 33.9453 27.3297 33.2383 26.5262 33.0256C26.4089 32.9983 26.2668 32.9999 26.153 33.0422L26.1338 33.0495C25.9653 33.1109 25.828 33.2282 25.6847 33.3329C25.1328 33.7364 24.4026 33.8609 23.7653 33.5646C23.4411 33.4138 23.1587 33.0976 22.8011 33.0344C22.271 32.9405 21.9535 33.3812 21.5087 33.5728C20.975 33.8028 20.3331 33.7841 19.8366 33.4707C19.6074 33.3261 19.3862 33.1129 19.1172 33.0528C18.6818 32.9554 18.3979 33.2943 18.0544 33.4863C17.3502 33.8801 16.5973 33.7371 15.9555 33.3022C15.0269 32.673 14.9666 33.2456 14.1766 33.5671C12.6867 34.1734 12.2452 32.9549 11.4696 33.0286L11.4486 33.0308C11.1808 33.0567 10.9614 33.2632 10.7424 33.4C9.40945 34.2325 7.78611 33.196 8.4836 32.7289C8.7075 32.579 8.94649 32.7675 9.15406 32.8607C10.1884 33.325 10.5542 32.3415 11.4799 32.2969Z" fill="#C8C8C8"/>
<path d="M5.89782 14.2972L9.58064 14.2922C9.98464 14.2962 10.1526 14.5566 9.93255 14.9145C9.84051 15.0643 9.56868 15.0235 9.42092 15.024L6.07776 15.0238C5.71114 15.0242 5.37671 15.1538 5.14798 15.4587L5.13518 15.4762C4.94384 15.733 4.95364 16.0312 4.95314 16.3352L4.95375 36.4654C4.95372 36.678 4.93735 36.9057 4.96707 37.1159L4.97069 37.1397C4.99189 37.285 5.04769 37.435 5.12787 37.5583L5.14251 37.5792C5.20576 37.673 5.29399 37.7666 5.38494 37.8341L5.4024 37.8467C5.49572 37.915 5.58749 37.9655 5.69694 38.003L5.72112 38.0111C6.04947 38.1254 6.73431 38.0519 7.09966 38.0519L31.9429 38.0496C32.4349 38.0325 33.0236 37.6552 33.0399 37.1176L33.0347 16.0939C33.0214 15.6774 32.8422 15.2892 32.4416 15.1133L32.4205 15.1043C32.2297 15.0209 32.0155 15.0243 31.8116 15.0242L29.2739 15.0256L28.4698 15.0245C28.3712 15.0238 28.1862 15.0428 28.1044 14.9839C27.9502 14.8729 28.0019 14.4664 28.0774 14.3266C28.3186 14.248 28.614 14.2891 28.8638 14.2889L32.0472 14.2935C33.0038 14.334 33.7632 15.1138 33.7801 16.068L33.7811 36.3998C33.7813 36.6448 33.8007 36.9072 33.779 37.1502C33.6933 38.1082 32.8535 38.7733 31.9177 38.7816L6.64966 38.7822C5.90266 38.7821 5.3409 38.849 4.75465 38.2676C4.37167 37.8878 4.21695 37.4148 4.21391 36.8834L4.21074 16.7108C4.20995 16.0238 4.18843 15.3324 4.72917 14.8123C5.05772 14.4963 5.44902 14.3411 5.89782 14.2972Z" fill="#C8C8C8"/>
<path d="M12.3355 26.4791L28.0781 26.4756C28.2649 26.4756 28.5552 26.4176 28.6657 26.6173L28.679 26.644C28.7252 26.7359 28.7232 26.8388 28.6917 26.9355L28.6838 26.9589C28.3611 27.9472 27.6166 28.9635 26.8852 29.6823C26.5504 29.9856 26.2124 30.2743 25.8409 30.5324L25.2044 30.9312C24.626 31.2909 24.6238 31.2355 23.9606 31.236L13.8034 31.2361C13.0745 31.2355 13.1126 31.3087 12.9404 30.5781L12.0114 26.9939C11.9969 26.9271 11.9779 26.852 11.9932 26.7845L12.0001 26.7522C12.0371 26.5619 12.1664 26.5078 12.3355 26.4791Z" fill="#C8C8C8"/>
<path d="M18.8149 9.24268L19.3516 9.24894C20.326 9.35023 21.4214 9.98853 21.8915 10.8725C22.1219 11.3058 22.0415 11.2247 22.552 11.2014C23.1841 11.1725 23.2978 11.2995 23.2973 11.9149L23.2986 12.5584C23.6432 12.5932 24.0004 12.5754 24.347 12.5754L26.6282 12.5717C26.7436 12.5707 26.8646 12.563 26.9785 12.5847L26.9981 12.5887C27.5583 12.6994 27.4203 13.3523 27.4196 13.7637L27.4167 15.8849C27.4156 16.0901 27.418 16.2751 27.1857 16.3536L27.1666 16.3597C27.0593 16.3946 26.9492 16.3843 26.8379 16.384L19.1978 16.3826L11.7126 16.3823C11.4902 16.3823 10.9148 16.437 10.7299 16.331L10.7085 16.3168C10.5934 16.2422 10.5926 16.0668 10.5862 15.9444L10.5768 13.4869C10.5721 13.1261 10.5088 12.7061 10.965 12.5932L10.9874 12.5887C11.119 12.5604 11.2668 12.5726 11.4017 12.5726L14.7163 12.5632C14.7026 12.3556 14.6694 11.6536 14.7291 11.47L14.7376 11.4462C14.8298 11.1824 15.1061 11.1986 15.342 11.1994L15.9295 11.2073C16.4662 10.0825 17.5465 9.29337 18.8149 9.24268ZM18.8715 11.1766C18.3348 11.2502 17.8622 11.5992 17.7093 12.1369L17.6776 12.2809C17.5343 13.1054 18.2284 13.9271 19.077 13.8845C19.4352 13.8642 19.7875 13.6329 20.016 13.3672C20.8002 12.4552 20.0252 11.0766 18.8715 11.1766Z" fill="#C8C8C8"/>
</g>
<defs>
<clipPath id="clip0_1463_3390">
<rect width="30" height="30" fill="white" transform="translate(4 9)"/>
</clipPath>
</defs>
</svg>
