<svg width="39" height="48" viewBox="0 0 39 48" fill="none" xmlns="http://www.w3.org/2000/svg">
<path d="M0.5 0.5H34C36.4853 0.5 38.5 2.51472 38.5 5V43C38.5 45.4853 36.4853 47.5 34 47.5H0.5V0.5Z" fill="white" stroke="#C8C8C8"/>
<g clip-path="url(#clip0_1463_3427)">
<path d="M6.98805 9.72346C8.05458 9.67954 8.36833 10.7616 8.21766 11.6221L8.18995 11.7462C8.07046 11.8654 7.77901 11.7716 7.77325 11.9702L7.75035 36.6086C7.74986 37.1924 7.88675 38.0282 7.03292 38.0821C6.7568 38.0687 6.49585 38.1144 6.23276 37.9964L6.16907 37.9666C5.7203 37.7108 5.81917 37.2298 5.8207 36.7954L5.82248 10.932C5.83062 10.694 5.8927 10.4779 6.027 10.2799L6.07785 10.2079C6.32299 9.90607 6.60807 9.76955 6.98805 9.72346Z" fill="#C8C8C8"/>
<path d="M12.8307 11.48C14.9468 11.4484 16.4253 11.7202 18.4912 12.329L21.7431 13.398C22.6974 13.7117 23.6694 14.0141 24.6655 14.1626C27.6233 14.6036 31.1592 13.8651 33.6669 12.196C33.7357 12.1503 34.1112 11.8943 34.1586 11.8421L34.1715 28.4559C33.4299 29.067 31.7654 29.7375 30.8824 30.034C27.2956 31.2243 24.8207 30.8958 21.3403 29.6835L19.3892 28.9969L17.4823 28.4262C14.8632 27.7099 12.5987 27.6008 10.039 28.5459L9.21548 28.8706C9.14428 28.9028 9.00409 28.923 8.95521 28.9782L8.94836 12.6523C8.95122 12.5016 8.93007 12.5027 9.07134 12.4436L9.32571 12.3329C10.4218 11.8446 11.6365 11.5652 12.8307 11.48Z" fill="#C8C8C8"/>
</g>
<defs>
<clipPath id="clip0_1463_3427">
<rect width="30" height="30" fill="white" transform="translate(5 9)"/>
</clipPath>
</defs>
</svg>
