<svg width="39" height="48" viewBox="0 0 39 48" fill="none" xmlns="http://www.w3.org/2000/svg">
<path d="M0.5 0.5H34C36.4853 0.5 38.5 2.51472 38.5 5V43C38.5 45.4853 36.4853 47.5 34 47.5H0.5V0.5Z" fill="white" stroke="#C8C8C8"/>
<g clip-path="url(#clip0_1465_3441)">
<path d="M9 34V35H11V34H9ZM19 34V35H21V34H19ZM11 34V33H9V34H11ZM19 33V34H21V33H19ZM15 29C16.0609 29 17.0783 29.4214 17.8284 30.1716C18.5786 30.9217 19 31.9391 19 33H21C21 31.4087 20.3679 29.8826 19.2426 28.7574C18.1174 27.6321 16.5913 27 15 27V29ZM11 33C11 31.9391 11.4214 30.9217 12.1716 30.1716C12.9217 29.4214 13.9391 29 15 29V27C13.4087 27 11.8826 27.6321 10.7574 28.7574C9.63214 29.8826 9 31.4087 9 33H11ZM15 17C13.9391 17 12.9217 17.4214 12.1716 18.1716C11.4214 18.9217 11 19.9391 11 21H13C13 20.4696 13.2107 19.9609 13.5858 19.5858C13.9609 19.2107 14.4696 19 15 19V17ZM19 21C19 19.9391 18.5786 18.9217 17.8284 18.1716C17.0783 17.4214 16.0609 17 15 17V19C15.5304 19 16.0391 19.2107 16.4142 19.5858C16.7893 19.9609 17 20.4696 17 21H19ZM15 25C16.0609 25 17.0783 24.5786 17.8284 23.8284C18.5786 23.0783 19 22.0609 19 21H17C17 21.5304 16.7893 22.0391 16.4142 22.4142C16.0391 22.7893 15.5304 23 15 23V25ZM15 23C14.4696 23 13.9609 22.7893 13.5858 22.4142C13.2107 22.0391 13 21.5304 13 21H11C11 22.0609 11.4214 23.0783 12.1716 23.8284C12.9217 24.5786 13.9391 25 15 25V23ZM8 15H32V13H8V15ZM33 16V32H35V16H33ZM32 33H8V35H32V33ZM7 32V16H5V32H7ZM8 33C7.73478 33 7.48043 32.8946 7.29289 32.7071C7.10536 32.5196 7 32.2652 7 32H5C5 32.7956 5.31607 33.5587 5.87868 34.1213C6.44129 34.6839 7.20435 35 8 35V33ZM33 32C33 32.2652 32.8946 32.5196 32.7071 32.7071C32.5196 32.8946 32.2652 33 32 33V35C32.7956 35 33.5587 34.6839 34.1213 34.1213C34.6839 33.5587 35 32.7956 35 32H33ZM32 15C32.2652 15 32.5196 15.1054 32.7071 15.2929C32.8946 15.4804 33 15.7348 33 16H35C35 15.2044 34.6839 14.4413 34.1213 13.8787C33.5587 13.3161 32.7956 13 32 13V15ZM8 13C7.20435 13 6.44129 13.3161 5.87868 13.8787C5.31607 14.4413 5 15.2044 5 16H7C7 15.7348 7.10536 15.4804 7.29289 15.2929C7.48043 15.1054 7.73478 15 8 15V13ZM23 21H29V19H23V21ZM23 27H29V25H23V27Z" fill="#C8C8C8"/>
</g>
<defs>
<clipPath id="clip0_1465_3441">
<rect width="30" height="30" fill="white" transform="translate(5 9)"/>
</clipPath>
</defs>
</svg>
