<svg width="39" height="48" viewBox="0 0 39 48" fill="none" xmlns="http://www.w3.org/2000/svg">
<path d="M0.5 0.5H34C36.4853 0.5 38.5 2.51472 38.5 5V43C38.5 45.4853 36.4853 47.5 34 47.5H0.5V0.5Z" fill="white" stroke="#C8C8C8"/>
<g clip-path="url(#clip0_1463_3433)">
<path d="M18.3615 9.12596L19.0362 9.11598C23.7607 9.11041 28.3169 11.4902 31.067 15.3288L31.7238 16.2955C33.3462 18.9515 34.1431 22.1376 33.8388 25.2451L33.4249 27.6617C31.7891 33.9755 26.1997 38.5592 19.6335 38.8698L19.4981 38.8808C18.8962 38.9063 18.2726 38.8916 17.6738 38.8319L17.08 38.7498C10.5655 37.9033 5.43236 32.8505 4.33062 26.4293L4.18773 25.4209C4.161 25.1778 4.12496 24.9322 4.11864 24.6873L4.11646 23.8248C4.11895 18.3206 7.52594 13.0503 12.4521 10.6441C14.2574 9.76228 16.3484 9.16945 18.3615 9.12596ZM19.0182 13.4307C18.7383 13.4686 18.7137 13.7116 18.6284 13.944L16.6316 19.199C16.5653 19.3646 16.5177 19.5397 16.4292 19.6953L16.4022 19.7488L10.2762 20.2607C10.0856 20.2753 9.72929 20.4246 9.90429 20.6675L9.91554 20.6834C9.9889 20.7831 10.1018 20.86 10.1973 20.9379L14.7682 24.7317C14.8164 24.7725 14.8888 24.8304 14.8781 24.8956L13.3252 31.1336C13.2784 31.3117 13.4245 31.4077 13.5812 31.4624C13.7018 31.4108 13.8034 31.3357 13.9119 31.2631L18.9956 27.9327C19.1424 28.0646 19.3445 28.1692 19.5117 28.2771L23.9322 31.1763C24.0764 31.2654 24.2049 31.371 24.3535 31.4538C24.8799 31.2627 24.6431 30.971 24.516 30.4779L23.3066 25.6713C23.2771 25.5502 23.0878 24.8928 23.1174 24.8302C23.1542 24.7521 23.3071 24.6533 23.3725 24.5986L27.6347 21.0591C27.8155 20.9171 28.2765 20.6756 28.0866 20.3833C27.9932 20.2396 27.6542 20.2619 27.5053 20.2464L21.8697 19.7682C21.8008 19.7626 21.6215 19.7743 21.5705 19.738L19.5669 14.4333C19.4723 14.179 19.3045 13.4603 19.0182 13.4307Z" fill="#C8C8C8"/>
</g>
<defs>
<clipPath id="clip0_1463_3433">
<rect width="30" height="30" fill="white" transform="translate(4 9)"/>
</clipPath>
</defs>
</svg>
