<svg width="39" height="48" viewBox="0 0 39 48" fill="none" xmlns="http://www.w3.org/2000/svg">
<path d="M0.5 0.5H34C36.4853 0.5 38.5 2.51472 38.5 5V43C38.5 45.4853 36.4853 47.5 34 47.5H0.5V0.5Z" fill="white" stroke="#C8C8C8"/>
<g clip-path="url(#clip0_1463_3429)">
<path d="M20.4974 24.5229L20.5493 24.5151C20.7917 24.8065 21.0616 25.1039 21.2134 25.4538C20.8366 26.0238 20.8466 25.5026 20.8509 26.3641L20.891 27.8086C20.9047 28.0491 20.8923 28.2927 20.9212 28.5321L19.7985 28.5342L19.2548 28.5412C19.2839 28.1708 19.2703 27.7987 19.2811 27.4277L19.3117 26.0864C19.3112 25.6506 19.1616 25.798 19.0145 25.4821C19.0983 25.2505 19.2689 25.0575 19.4062 24.8568C19.6403 24.5145 19.5164 24.5318 19.9244 24.5354L20.4974 24.5229Z" fill="#C8C8C8"/>
<path d="M19.6782 15.2419L20.8711 15.2438C21.9292 15.2728 23.9246 15.5576 24.6681 16.3436C23.6287 16.8576 21.7171 17.0913 20.5868 17.1266L19.4726 17.1161C18.5939 17.0754 17.3742 16.9411 16.5202 16.6775L15.5486 16.3563C16.3615 15.6024 17.716 15.369 18.7768 15.2885L19.6782 15.2419Z" fill="#C8C8C8"/>
<path d="M12.2576 37.3785C12.7783 37.3722 13.2492 37.3924 13.7594 37.5249C14.4744 37.7106 15.1876 38.0539 15.9357 38.0759C16.913 38.1047 17.4178 37.9755 18.3614 37.6564C19.7967 37.171 20.6918 37.3691 22.0335 37.801C23.0148 38.1168 23.994 38.1842 24.9949 37.8971C26.3672 37.5034 26.9986 37.1213 28.54 37.5246C29.9628 37.8968 30.593 38.2868 32.1069 37.9601C32.6375 37.8456 34.0474 37.2641 34.5331 37.4796C34.7744 37.5867 34.832 38.2033 34.554 38.2981L34.5385 38.3031C34.4039 38.3492 34.2538 38.3339 34.1137 38.3409C33.5493 38.369 32.8889 38.7089 32.3193 38.8374C31.8928 38.9337 31.4309 38.8841 30.9973 38.8841L30.3591 38.8835C29.4441 38.8815 28.7884 38.4594 27.9069 38.2966C26.4372 38.0769 25.6361 38.8806 24.2579 38.8834L22.9366 38.8831C21.8951 38.881 20.9974 38.2475 19.9397 38.261C19.1335 38.2714 18.4368 38.6031 17.6757 38.8121C17.2671 38.9243 16.8398 38.8838 16.421 38.884L15.6526 38.8835C14.9884 38.8823 14.7051 38.7585 14.082 38.5453C13.0628 38.1968 12.285 38.1579 11.233 38.509C10.6666 38.6981 10.2697 38.8814 9.66997 38.883L9.03101 38.8837C8.59067 38.8838 8.11801 38.9356 7.68448 38.8414C7.08022 38.7102 6.51521 38.4313 5.90082 38.3343C5.76193 38.3124 5.50638 38.3049 5.38813 38.223C5.2043 38.0956 5.23767 37.691 5.3543 37.5383C5.62269 37.1869 7.70112 37.9501 8.12006 38.0142C9.33091 38.1992 9.95668 37.9676 11.0937 37.609C11.4831 37.4862 11.852 37.4155 12.2576 37.3785Z" fill="#C8C8C8"/>
<path d="M12.0847 35.6795C12.9107 35.6579 13.4452 35.7113 14.251 35.9638C14.991 36.1957 15.6901 36.4178 16.4771 36.3693C17.478 36.3077 18.3373 35.8213 19.3033 35.7012C20.1183 35.5997 20.9402 35.7039 21.7212 35.9456L22.536 36.2061C23.1844 36.3803 23.8641 36.4049 24.5264 36.2998L24.7393 36.2567C25.4531 36.1274 26.1182 35.7521 26.8498 35.6996C27.7356 35.636 28.5294 35.7169 29.379 36.0022C29.6911 36.107 30.0191 36.272 30.346 36.3179L30.5469 36.3486C30.9793 36.4288 31.5379 36.3921 31.9597 36.291C32.5504 36.1496 34.0272 35.5098 34.6202 35.6928C34.8222 35.7551 34.8107 36.1344 34.7586 36.2849L34.7514 36.3047C34.7278 36.3819 34.6917 36.4899 34.6024 36.5113L34.5752 36.5151C34.4206 36.5372 34.2628 36.5338 34.1075 36.5508C33.3496 36.6343 32.6776 37.0815 31.9262 37.1947L31.7353 37.2272C30.2344 37.3718 29.7597 36.9809 28.4363 36.6524L27.9508 36.5775C27.0815 36.5063 26.4682 36.6185 25.6434 36.8964C24.4592 37.2953 23.5153 37.4288 22.2616 37.0457L21.5342 36.8028C20.5086 36.4911 19.4808 36.4742 18.4536 36.7993C18.1248 36.9034 17.806 37.0371 17.4732 37.1293C16.6144 37.3673 15.605 37.2918 14.7632 37.0401C13.1817 36.5674 12.4838 36.2869 10.8155 36.8643C9.64308 37.27 8.81761 37.4679 7.54888 37.0672L6.55868 36.7148C6.26555 36.6234 5.98703 36.577 5.68704 36.5214L5.49077 36.495C5.15499 36.4379 5.18152 35.9329 5.32295 35.7574C5.39568 35.6672 5.54039 35.6834 5.64458 35.6823C6.64186 35.6723 7.26419 36.144 8.14946 36.3192C9.68779 36.6237 10.6127 35.8199 12.0847 35.6795Z" fill="#C8C8C8"/>
<path d="M23.7936 23.6543C23.8967 23.7101 24.0154 23.736 24.1267 23.7705L26.2549 24.38C27.1137 24.6077 28.0225 24.7505 28.7155 25.3522C29.3438 25.8977 29.6442 26.6477 29.7095 27.4644L29.7486 28.542L27.7702 28.5336L21.7861 28.539C21.8874 28.3781 21.9498 28.1531 22.0206 27.9737L23.7936 23.6543Z" fill="#C8C8C8"/>
<path d="M16.4308 23.5679L16.4538 23.5898C16.4829 23.7176 16.5423 23.8453 16.5913 23.9667L18.1569 27.8625C18.2428 28.0835 18.3173 28.338 18.4434 28.5392L12.3425 28.5339L10.2913 28.5413C10.2155 26.4239 10.6979 25.2834 12.8595 24.6248L15.9087 23.7378C16.0745 23.6828 16.2561 23.6421 16.4161 23.5742L16.4308 23.5679Z" fill="#C8C8C8"/>
<path d="M15.9312 17.2977C16.0628 17.3533 16.2002 17.3862 16.3379 17.4229L17.3779 17.6572C19.2406 18.0708 21.6712 17.9856 23.5303 17.5217C23.7998 17.4545 24.082 17.3944 24.3395 17.2905L24.3854 17.3774C24.7093 17.9663 24.8512 18.7137 24.4665 19.3052L24.4521 19.3272C24.1919 19.7286 24.0438 19.4136 23.8696 19.9424C23.7607 20.2729 23.5161 20.207 23.358 20.6605L23.2386 20.9656C23.151 21.1801 23.0372 21.3841 22.9307 21.5896C22.7562 21.8726 22.5775 22.1404 22.3572 22.3908C21.403 23.4756 20.1417 24.0241 18.8333 23.2724C17.915 22.7448 17.0112 21.5788 16.7474 20.5383L16.6844 20.2625C16.6651 20.173 16.6681 20.1788 16.5827 20.1372C15.9958 19.8508 15.2174 18.5839 15.692 17.9535L15.706 17.9356C15.7673 17.8561 15.8528 17.8052 15.9349 17.7495C15.8916 17.61 15.9121 17.4404 15.9312 17.2977Z" fill="#C8C8C8"/>
<path d="M34.2282 29.292C34.3724 29.2695 34.541 29.2804 34.6859 29.2911L34.6338 29.5004C34.5333 29.8378 34.2229 30.1209 34.0141 30.3934L33.7499 30.7555C33.6226 30.931 33.6039 30.9721 33.3846 30.9701L7.27056 30.969C6.99501 30.9691 6.70225 30.9906 6.42979 30.959C6.33713 30.8974 6.26991 30.7459 6.20143 30.6557L5.71753 29.9636C5.6433 29.8579 5.32336 29.439 5.40756 29.2957L34.2282 29.292Z" fill="#C8C8C8"/>
<path d="M19.7476 9.12222L19.7902 9.11743C20.7986 9.10338 22.3075 9.70669 23.1979 10.1226C24.5664 10.7617 26.7437 12.2649 26.7499 13.8537C26.7533 14.7314 25.923 15.2011 25.3589 15.7315C25.2509 15.8331 25.0572 15.5803 24.907 15.48C23.6309 14.6282 21.6802 14.456 20.1911 14.451L19.4517 14.4544C18.0166 14.4806 15.811 14.8781 14.8268 15.8971C14.3003 15.2973 13.3158 14.9042 13.26 13.9939C13.2155 13.2697 13.6515 12.6006 14.1114 12.0806C15.2861 10.7526 16.9498 9.91605 18.6213 9.39912L19.3258 9.21064C19.4653 9.17685 19.6038 9.13152 19.7476 9.12222ZM19.8497 10.3243C19.463 10.358 19.1234 10.5428 18.8741 10.8397L18.7692 10.985C18.0814 12.0725 18.9479 13.3429 20.1868 13.2389C21.1353 13.1124 21.7628 12.039 21.3238 11.1638L21.3132 11.1424C21.0771 10.6688 20.4014 10.2321 19.8497 10.3243Z" fill="#C8C8C8"/>
<path d="M19.9211 11.155C19.9779 11.1526 20.0308 11.15 20.0864 11.1634L20.1914 11.1874C20.8528 11.3442 20.7484 12.3578 20.062 12.4364C19.6786 12.4728 19.2694 12.1197 19.35 11.7161L19.3544 11.6952C19.4159 11.3769 19.6095 11.2315 19.9211 11.155Z" fill="#C8C8C8"/>
<path d="M11.3136 31.7552L33.0965 31.749C33.0314 31.7961 32.9805 31.8987 32.9362 31.9654L31.3072 34.2393C31.005 34.6637 30.723 35.1149 30.3933 35.5179C30.2603 35.4276 30.0809 35.373 29.931 35.3129C29.0118 34.9446 28.2696 34.8588 27.3059 34.8668C26.8103 34.8883 26.3434 34.9622 25.8666 35.1036C25.2968 35.2724 24.7623 35.5176 24.1601 35.5553C23.2126 35.6146 22.7887 35.4584 21.9228 35.1696C20.6772 34.7542 19.3268 34.763 18.0799 35.1819C17.2324 35.4665 16.6036 35.679 15.6787 35.5444C15.1217 35.4633 14.6088 35.2373 14.0738 35.0747C12.7946 34.6859 10.8429 34.868 9.6417 35.5156L9.63075 35.5217C9.52322 35.4065 9.4363 35.2662 9.34627 35.137L7.29255 32.2447C7.23284 32.1626 7.02833 31.8164 6.96387 31.775L11.3136 31.7552Z" fill="#C8C8C8"/>
</g>
<defs>
<clipPath id="clip0_1463_3429">
<rect width="30" height="30" fill="white" transform="translate(5 9)"/>
</clipPath>
</defs>
</svg>
