<svg width="39" height="48" viewBox="0 0 39 48" fill="none" xmlns="http://www.w3.org/2000/svg">
<path d="M0.5 0.5H34C36.4853 0.5 38.5 2.51472 38.5 5V43C38.5 45.4853 36.4853 47.5 34 47.5H0.5V0.5Z" fill="white" stroke="#C8C8C8"/>
<path d="M20 9C21.9891 9 23.8968 9.79018 25.3033 11.1967C26.7098 12.6032 27.5 14.5109 27.5 16.5C27.5 18.4891 26.7098 20.3968 25.3033 21.8033C23.8968 23.2098 21.9891 24 20 24C18.0109 24 16.1032 23.2098 14.6967 21.8033C13.2902 20.3968 12.5 18.4891 12.5 16.5C12.5 14.5109 13.2902 12.6032 14.6967 11.1967C16.1032 9.79018 18.0109 9 20 9ZM20 27.75C28.2875 27.75 35 31.1062 35 35.25V39H5V35.25C5 31.1062 11.7125 27.75 20 27.75Z" fill="#C8C8C8"/>
</svg>
