<svg width="188" height="170" viewBox="0 0 188 170" fill="none" xmlns="http://www.w3.org/2000/svg">
<path d="M152.75 26.5625H35.25C25.516 26.5625 17.625 33.698 17.625 42.5V127.5C17.625 136.302 25.516 143.438 35.25 143.438H152.75C162.484 143.438 170.375 136.302 170.375 127.5V42.5C170.375 33.698 162.484 26.5625 152.75 26.5625Z" stroke="#C8C8C8" stroke-width="10" stroke-linejoin="round"/>
<path d="M123.375 69.0625C129.864 69.0625 135.125 64.3055 135.125 58.4375C135.125 52.5695 129.864 47.8125 123.375 47.8125C116.886 47.8125 111.625 52.5695 111.625 58.4375C111.625 64.3055 116.886 69.0625 123.375 69.0625Z" stroke="#C8C8C8" stroke-width="10" stroke-miterlimit="10"/>
<path d="M111.625 111.493L78.3358 81.4471C76.2175 79.532 73.3703 78.4208 70.3763 78.3406C67.3822 78.2604 64.4673 79.2172 62.2273 81.0154L17.625 116.875M82.25 143.437L127.539 102.485C129.61 100.608 132.382 99.4993 135.311 99.3765C138.24 99.2536 141.114 100.125 143.368 101.821L170.375 122.187" stroke="#C8C8C8" stroke-width="10" stroke-linecap="round" stroke-linejoin="round"/>
</svg>
